<svg width="20" height="20" viewBox="0 0 20 20" fill="none" xmlns="http://www.w3.org/2000/svg">
<g clip-path="url(#clip0_3797_45464)">
<rect width="20" height="20" rx="10" fill="white"/>
<g clip-path="url(#clip1_3797_45464)">
<path d="M9.99338 0C6.61106 0 3.61755 1.68984 1.80635 4.26806L3.16916 4.33823L4.1948 4.7725L4.05005 4.89519L3.28964 4.7725L3.27773 4.91946L3.55532 5.11099L3.19343 5.18293V5.4005L2.44539 5.44861L3.01249 5.97952L3.10914 6.41379L2.85582 6.54663L2.05834 5.89479V5.59292L2.25209 5.29105L2.10733 5.11011L1.23748 5.68957L0.980626 5.66662C0.896333 5.84315 0.817777 6.02321 0.742751 6.20548L1.1651 6.25668L1.56759 6.71521L1.46741 6.84849L1.15274 6.53427L1.00887 6.69094L1.25381 7.01399L1.20129 7.6217L0.558277 7.62081L0.525619 8.11113L1.06933 8.44124L1.25734 8.69015L0.972241 8.76694L0.16638 8.15261C0.111561 8.44514 0.0695945 8.73994 0.040602 9.03614L0.381747 9.39406L0.436912 9.9541L0.0670815 10.2626L0 10.2877C0.0207423 11.0058 0.11651 11.704 0.280242 12.3761C0.384024 12.7982 0.515229 13.213 0.673022 13.618L1.07816 13.4604L1.08434 14.2442L0.946202 14.2566C0.978861 14.3254 1.01328 14.3943 1.04727 14.4627H1.18364L1.14745 14.5893L1.10596 14.5765C1.12494 14.6127 1.14215 14.6489 1.16113 14.6842C1.27943 14.9065 1.40648 15.1239 1.54199 15.3361L1.69293 15.3255V15.5016H1.85401L2.249 14.9415H2.79801L3.26449 15.2226L3.04559 15.4363L2.78521 15.3837L2.80242 15.7364L2.93967 15.8193L3.43087 15.8564L3.5359 14.9671L3.79364 14.9786L4.07873 15.468L4.11139 16.1764L4.54477 16.5479L4.66128 17.0237L4.38016 17.6663L4.01386 18.0105C4.35608 18.2659 4.71429 18.4991 5.08628 18.7087L5.41639 18.6628L5.69752 18.4699L5.73812 17.8534L6.05896 17.8344L6.06426 18.229L6.23902 18.1945L6.3573 18.4059L6.03513 18.5886L5.71429 18.7307L5.45037 18.9037C6.85616 19.6252 8.41372 20.001 9.99382 20C11.4855 20 12.9017 19.669 14.1749 19.0798L13.6785 18.6465L13.2309 17.8618L13.2945 17.1036L12.9551 16.653L13.0933 15.8895L12.8916 15.8326V14.1749C12.8916 14.1749 12.3293 13.7477 12.2962 13.7477C12.264 13.7477 11.9979 13.6758 11.9979 13.6758L11.941 13.362L11.2092 12.4445L11.2816 12.1148L11.3059 11.5751L11.8116 11.2207L11.7401 10.6183L11 10.5622L10.4206 9.90203L10.0097 9.79081L9.74403 9.74227L9.77669 9.50086L9.43775 9.45276V9.59001L8.59305 9.38038L8.25279 8.8605L8.39137 8.60806L7.85604 7.82691L7.76469 7.25584H7.54667L7.61993 7.81058L7.98888 8.3821L7.94916 8.60806L7.63538 8.55995L7.24922 7.9015V7.1358L6.84761 6.9425V6.08985L7.59566 5.18028L7.54667 4.63701L7.7563 4.48828L7.50828 4.25482L7.52372 3.84439L7.22627 3.57871H6.39702L6.26065 3.72347L5.27031 3.71552L4.90842 3.40968L5.19043 3.20888H5.91465V3.07339L5.57659 3.02352L5.79461 2.85449L6.26859 2.78168L6.97648 2.29931H8.19939L8.86844 2.50011L9.09352 2.62898L9.29432 2.64487L9.59266 2.35536L10.5583 2.34697L10.7754 2.46789L11.1858 2.55616L11.2176 2.7168L11.8695 2.74107L11.7816 2.53189L11.2022 2.516L11.3394 2.38713L11.2918 2.23399H10.7675L11.3399 1.80767H11.8871L12.1431 2.16161L12.5707 2.18589L12.8276 1.93654L13.0213 2.03319L12.6669 2.37919L12.1996 2.38757C12.2247 2.38757 12.2402 2.72563 12.2402 2.72563L12.8351 2.70974L12.8995 2.54866L13.3099 2.52438L13.358 2.28298L13.1171 2.24238L13.1978 2.02524L13.3832 1.9692L14.0262 2.00097L13.6718 2.32314L13.7288 2.57205L14.0995 2.62854L14.0739 2.1775L14.4287 1.99303L15.0572 1.92065L15.9658 2.32314V2.6687L16.2562 2.74107L16.1115 3.01514H15.701L15.5797 3.32848L14.641 3.10737L15.378 2.71415L15.0969 2.4754L14.4609 2.55616L14.4058 2.61353L14.4035 2.61265L14.3925 2.62633L14.2107 2.81654L13.9071 2.84214L13.9322 2.99307L14.0372 3.03676L14.0328 3.08663L13.7861 3.1215L13.7689 3.26449L13.5337 3.2764L13.4913 2.99263L13.069 3.12106L12.2053 3.62637L12.3028 3.98252L12.5442 4.13919L13.0262 4.20583V4.7544L13.2495 4.71866L13.4556 4.28969L13.9684 4.12728V3.46926L14.2535 3.25389L14.9437 3.41674L14.8956 3.85189H15.0801L15.5876 3.60254L15.6119 4.17406L15.9817 4.39914L15.9654 4.73719L15.6119 4.85767L15.6362 4.96977L16.0621 5.16351L16.0541 5.39697L15.9301 5.40712C15.9301 5.40271 15.9283 5.40094 15.9283 5.40094L15.3912 5.23456L15.3678 5.06245L15.5241 4.95432V4.79677L15.355 4.7544L15.3122 4.8996L15.0157 4.9455L14.987 4.93535V4.94991L14.885 4.96536L14.8007 4.79633L14.7041 4.75396H14.4923L14.3965 4.83252V5.00772L14.5774 5.06774L14.7557 5.0929L14.7156 5.11055L14.5532 5.29105L14.4808 5.20058L14.3241 5.1591L13.8947 5.56247L13.9507 5.60837L13.3174 5.95922L12.7212 6.57884L12.6806 6.85467L12.0831 7.24701L11.7883 7.54446L11.8205 8.14025L11.41 7.94916L11.4127 7.60051L10.2705 7.60095L9.6796 7.90061L9.42186 8.37372L9.3208 8.74972L9.4863 9.11382L9.95278 9.17031L10.6933 8.67558L10.7586 8.9214L10.5327 9.34816L11.0963 9.44437L11.1532 10.3151L11.9255 10.4462L12.4154 9.87908L13.0116 10L13.2212 10.2904L13.7928 10.2573L13.8091 10.0878L14.122 10.2414L14.4773 10.7962L15.0885 10.805L15.3136 11.2L15.3453 11.6828L16.0219 11.9405L16.8745 11.9489L17.1243 12.3589L17.5017 12.4798L17.4293 12.817L17.0153 13.3435L16.8944 14.509L16.5206 14.8047L15.9645 14.7888L15.7792 15.1106L15.9169 15.7147L15.3136 16.487L15.1203 16.8414L14.5452 17.1181L14.1661 17.1755L14.1511 17.3362L14.4168 17.4121L14.385 17.5855L14.148 17.8154L14.2919 17.9973L14.5779 18.0052L14.5607 18.2263L14.4848 18.4426L14.4592 18.6191L14.701 18.8225C17.849 17.1345 19.9938 13.8144 19.9938 10.0009C19.9938 4.48652 15.5073 0 9.99338 0ZM4.53374 14.8639H4.09859V14.4053L3.84968 14.4291L3.61622 14.6785L2.97233 14.7191L2.96439 14.4216H3.15769L3.14974 14.276L2.85141 14.1198L2.32049 14.043L2.07467 13.7407L2.44097 13.3744L2.69871 13.528L2.67796 13.8086L2.94761 13.8011L3.23801 13.6476L4.27601 14.1189L4.31572 14.6776H4.53374V14.8639ZM7.48444 4.31087L7.44384 4.56419H7.2629C7.24216 4.56419 7.2223 4.28571 7.2223 4.27027L7.48444 4.31087ZM14.4305 5.72311L14.2288 5.73988L14.2394 5.59998L14.329 5.48789L14.4499 5.58277L14.4305 5.72311ZM15.1366 5.47553L14.9989 5.48744L14.9711 5.62028L14.8652 5.68648L14.6953 5.70016C14.6886 5.66044 14.686 5.62955 14.686 5.62955H14.6198V5.48744H14.8974L14.9552 5.33916L15.0655 5.33651L15.1913 5.36343L15.1366 5.47553Z" fill="#3D3ACE"/>
</g>
</g>
<rect x="0.25" y="0.25" width="19.5" height="19.5" rx="9.75" stroke="#3D3ACE" stroke-width="0.5"/>
<defs>
<clipPath id="clip0_3797_45464">
<rect width="20" height="20" rx="10" fill="white"/>
</clipPath>
<clipPath id="clip1_3797_45464">
<rect width="20" height="20" fill="white"/>
</clipPath>
</defs>
</svg>
