<svg width="80" height="80" viewBox="0 0 80 80" fill="none" xmlns="http://www.w3.org/2000/svg">
<path d="M73.9057 51.4805C73.233 50.3574 70.4771 47.0197 63.2569 51.2246L50.7179 58.528C50.201 58.8289 49.6768 59.0558 49.1349 59.2104C49.3165 58.8638 49.4586 58.498 49.5585 58.1197C50.2183 55.6566 48.7566 53.086 46.2309 52.2671C46.1773 52.2497 46.1227 52.236 46.0673 52.226C42.4749 51.578 38.924 50.2943 36.0709 49.2629C35.0768 48.9035 34.1379 48.5641 33.3384 48.3049C30.0769 47.2468 27.141 48.5491 24.6994 49.9629L15.4905 55.2946L14.6793 53.8611C14.2729 53.1432 13.6094 52.6258 12.811 52.4046C12.013 52.1833 11.1776 52.2854 10.4596 52.6916L6.94163 54.6827C5.45585 55.5236 4.93132 57.4164 5.7721 58.9022L16.1154 77.1782C16.5218 77.8961 17.1852 78.4135 17.9837 78.6347C18.2598 78.7113 18.5402 78.7491 18.8187 78.7491C19.3455 78.7491 19.8654 78.6136 20.3351 78.3479L23.8534 76.3566C25.3391 75.5157 25.8638 73.6229 25.0229 72.1371L24.0235 70.3713L25.9829 69.2402L41.9879 73.5286C42.8862 73.7694 43.7796 73.8891 44.6587 73.8889C46.4365 73.8889 48.1541 73.3994 49.7241 72.4329L72.4796 58.421C74.6141 57.1066 75.294 53.7985 73.9057 51.4805ZM22.6218 74.1808L19.1035 76.1721C18.919 76.2766 18.741 76.2504 18.6512 76.2257C18.5615 76.2008 18.3954 76.1314 18.291 75.9469L7.94773 57.671C7.78851 57.3897 7.89179 57.0175 8.17288 56.8585L11.691 54.8674C11.7787 54.8174 11.878 54.7913 11.979 54.7916C12.0463 54.7916 12.1035 54.8029 12.1434 54.8139C12.233 54.8388 12.399 54.908 12.5035 55.0925L22.8469 73.3683C23.0062 73.6497 22.9029 74.0218 22.6218 74.1808ZM44.0001 61.5625L45.5596 61.8161C47.9243 62.1943 50.023 61.8254 51.9759 60.6883L64.5151 53.3849C68.051 51.3254 70.7598 51.0935 71.7608 52.7649C72.4463 53.9094 72.1474 55.6894 71.1684 56.2921L48.413 70.3039C46.6419 71.3943 44.698 71.6669 42.6348 71.1138L26.1294 66.6913C25.8092 66.6057 25.4682 66.6506 25.181 66.8161L22.7919 68.1954L16.7219 57.4702L25.9519 52.1261C28.0157 50.9313 30.2454 49.9291 32.5669 50.6825C33.3271 50.9291 34.2046 51.2463 35.2207 51.6136C38.1387 52.6686 41.7643 53.9794 45.5319 54.6694C46.7673 55.1061 47.458 56.2983 47.1433 57.4724C46.729 59.0188 45.4316 59.2104 44.3974 59.0924C42.559 58.7138 40.8091 58.2146 38.9577 57.6858C38.0766 57.4343 37.1655 57.1739 36.2285 56.9229C36.0699 56.8804 35.9046 56.8695 35.7418 56.891C35.5791 56.9124 35.4221 56.9657 35.28 57.0477C35.1378 57.1298 35.0132 57.2391 34.9133 57.3693C34.8134 57.4996 34.7401 57.6482 34.6976 57.8068C34.6551 57.9653 34.6442 58.1307 34.6657 58.2934C34.6871 58.4562 34.7404 58.6131 34.8225 58.7553C34.9045 58.8975 35.0138 59.0221 35.144 59.122C35.2743 59.2219 35.4229 59.2952 35.5815 59.3377C36.4987 59.5835 37.3998 59.8408 38.2712 60.0896C40.1879 60.6369 41.9982 61.1539 43.9501 61.553M12.6443 58.2775C12.6682 58.4408 12.6597 58.6071 12.6192 58.767C12.5788 58.9269 12.5073 59.0774 12.4087 59.2096C12.3102 59.3419 12.1866 59.4535 12.0449 59.538C11.9032 59.6225 11.7463 59.6782 11.583 59.7021C11.4198 59.7259 11.2535 59.7174 11.0936 59.677C10.9336 59.6366 10.7832 59.5651 10.6509 59.4665C10.5187 59.368 10.4071 59.2443 10.3226 59.1027C10.2381 58.961 10.1823 58.8041 10.1585 58.6408C10.116 58.3138 10.2037 57.9832 10.4028 57.7204C10.6019 57.4575 10.8963 57.2835 11.2226 57.2358C11.5489 57.1881 11.8808 57.2706 12.1468 57.4655C12.4128 57.6604 12.5915 57.9521 12.6443 58.2775ZM31.0815 20.7743C31.6598 21.9021 31.9501 22.468 32.033 22.9386C32.116 23.4091 32.0368 24.0402 31.8793 25.2977C31.8396 25.6141 31.7954 25.9664 31.748 26.3624C31.4877 28.54 32.6674 30.5833 34.6835 31.4469C35.0501 31.6039 35.3773 31.7418 35.671 31.8657L35.8265 31.9313L31.1805 41.91C31.0841 42.1171 31.0463 42.3467 31.0712 42.5738C31.0961 42.8008 31.1827 43.0168 31.3217 43.1981C31.4607 43.3793 31.6467 43.5191 31.8595 43.6021C32.0723 43.6851 32.3038 43.7082 32.5288 43.6689L37.6355 42.7768L40.2401 47.2589C40.3548 47.4565 40.5216 47.6188 40.7221 47.7282C40.9226 47.8377 41.1493 47.8901 41.3776 47.8797C41.6058 47.8693 41.8268 47.7966 42.0166 47.6695C42.2064 47.5423 42.3577 47.3656 42.4541 47.1585L47.0662 37.2524L46.9751 37.21C47.7648 36.9711 48.2307 36.851 48.6127 36.851C49.0905 36.851 49.6983 37.0385 50.9093 37.4122L51.3105 37.5358L54.639 45.2633C54.7293 45.4732 54.8754 45.6542 55.0615 45.7869C55.2475 45.9195 55.4663 45.9986 55.6942 46.0155C55.922 46.0325 56.1501 45.9867 56.3538 45.8831C56.5574 45.7795 56.7287 45.622 56.8491 45.4279L59.5826 41.0232L64.661 42.0633C64.8848 42.1092 65.1169 42.0928 65.3321 42.016C65.5472 41.9392 65.7372 41.8049 65.8814 41.6277C66.0256 41.4505 66.1185 41.2372 66.15 41.0109C66.1814 40.7847 66.1503 40.5541 66.0599 40.3443L62.2768 31.5605C62.3653 31.5229 62.4537 31.4851 62.5421 31.4472C64.5582 30.5838 65.7379 28.5404 65.4776 26.3627C65.4302 25.9668 65.3862 25.6144 65.3465 25.2982C65.1887 24.0407 65.1096 23.4096 65.1926 22.9389C65.2755 22.4685 65.5658 21.9024 66.144 20.7747C66.2894 20.491 66.4515 20.175 66.6315 19.8193C67.621 17.8619 67.2112 15.5383 65.6121 14.0375C65.3513 13.793 65.0897 13.5492 64.8274 13.3063C63.8983 12.4443 63.4319 12.0118 63.193 11.5979C62.9541 11.1841 62.8126 10.5639 62.5309 9.32848C62.4599 9.01754 62.381 8.67129 62.2899 8.28301C61.7898 6.14754 59.9823 4.63098 57.7924 4.50926C57.3943 4.48707 57.0398 4.46957 56.7213 4.45363C55.4555 4.39066 54.8202 4.35895 54.3712 4.19551C53.9221 4.03207 53.4151 3.64801 52.4051 2.8827C52.1509 2.6902 51.8679 2.47582 51.5487 2.23676C49.7929 0.922383 47.4335 0.922383 45.6777 2.23676C45.3585 2.47582 45.0755 2.6902 44.8213 2.8827C43.8112 3.64801 43.3043 4.03207 42.8552 4.19551C42.4062 4.35895 41.771 4.39066 40.5051 4.45363C40.1866 4.46957 39.8319 4.48707 39.434 4.50926C37.2441 4.63113 35.4366 6.1477 34.9365 8.28301C34.8455 8.67129 34.7666 9.01738 34.6955 9.32832C34.4137 10.5639 34.2723 11.1839 34.0332 11.5979C33.7943 12.0116 33.3279 12.4443 32.399 13.3061C32.1367 13.5491 31.875 13.7929 31.6141 14.0374C30.0149 15.5383 29.6052 17.8618 30.5946 19.8191C30.7558 20.1381 30.9181 20.4564 31.0815 20.7743ZM41.1985 43.9321L39.3594 40.7672C39.231 40.5463 39.0379 40.37 38.8062 40.2621C38.5745 40.1542 38.3153 40.12 38.0635 40.1639L34.4577 40.7939L38.0219 33.1385C38.3169 33.4671 38.6462 33.9764 39.1894 34.8179C39.3624 35.0858 39.5551 35.3841 39.7734 35.718C40.7007 37.136 42.2346 37.94 43.8526 37.94C43.8983 37.94 43.9446 37.9363 43.9905 37.935L41.1985 43.9321ZM59.2305 38.3989C58.9801 38.3477 58.7201 38.3744 58.4853 38.4755C58.2506 38.5766 58.0525 38.7472 57.9177 38.9644L55.9877 42.0746L54.1768 37.87C55.4876 37.65 56.6802 36.8982 57.4519 35.718C57.6475 35.4187 57.842 35.1187 58.0357 34.8182C58.7232 33.7535 59.0682 33.2191 59.4343 32.9119C59.5771 32.7921 59.7543 32.6811 59.9859 32.5614L62.8163 39.1333L59.2305 38.3989ZM33.3244 15.86C33.6113 15.5908 33.868 15.3525 34.0988 15.1386C36.3176 13.0804 36.4593 12.8347 37.1326 9.8841C37.2026 9.57738 37.2804 9.23598 37.3702 8.85285C37.619 7.79098 38.4835 7.06566 39.5724 7.00504C39.9652 6.98316 40.3149 6.96582 40.6291 6.95004C43.6519 6.79957 43.9184 6.70254 46.3307 4.87488C46.5813 4.68488 46.8607 4.47332 47.1757 4.23754C47.6123 3.91066 48.1126 3.74738 48.613 3.74738C49.1133 3.74738 49.6137 3.91066 50.0504 4.23754C50.3327 4.449 50.6143 4.6614 50.8952 4.87473C53.3076 6.70238 53.574 6.79926 56.5968 6.94988C56.911 6.96551 57.2607 6.98285 57.6535 7.00488C58.7426 7.06551 59.6069 7.79082 59.8557 8.8527C59.9454 9.23582 60.0233 9.57738 60.0933 9.8841C60.7665 12.8346 60.9082 13.0802 63.1271 15.1385C63.3859 15.3782 63.644 15.6186 63.9013 15.8599C64.6966 16.6063 64.8926 17.7175 64.4004 18.691C64.2229 19.0421 64.063 19.3538 63.9196 19.6336C62.5387 22.3268 62.4894 22.606 62.866 25.6089C62.9051 25.921 62.9487 26.2685 62.9954 26.6591C63.1249 27.7421 62.5607 28.7193 61.558 29.1486C61.1965 29.3035 60.8737 29.4396 60.5837 29.5618C57.7948 30.7371 57.5776 30.9193 55.9357 33.4618C55.7446 33.7582 55.5526 34.0541 55.3598 34.3494C54.7629 35.2621 53.7027 35.648 52.6583 35.3327C52.2818 35.2188 51.9471 35.1157 51.6466 35.0229C48.7549 34.1307 48.4713 34.1305 45.579 35.0229C45.2785 35.1157 44.9438 35.2188 44.5673 35.3327C43.5235 35.6482 42.4627 35.2622 41.8659 34.3494C41.6729 34.0541 41.4809 33.7581 41.2898 33.4616C39.648 30.9193 39.4309 30.7369 36.6418 29.5618C36.3519 29.4396 36.0293 29.3036 35.6676 29.1486C34.6649 28.7193 34.1007 27.7421 34.2302 26.6589C34.2769 26.2683 34.3205 25.9207 34.3598 25.6086C34.7363 22.6057 34.6871 22.3266 33.306 19.6333C33.1626 19.3535 33.0027 19.0419 32.8252 18.6908C32.3332 17.7177 32.5291 16.6064 33.3244 15.86ZM48.6126 31.0563C54.9326 31.0563 60.0743 25.9146 60.0743 19.5946C60.0743 13.2746 54.9326 8.13301 48.6126 8.13301C42.2926 8.13301 37.151 13.2747 37.151 19.5946C37.151 25.9146 42.2927 31.0563 48.6126 31.0563ZM48.6126 10.6329C53.554 10.6329 57.5743 14.653 57.5743 19.5944C57.5743 24.5358 53.5541 28.5561 48.6126 28.5561C43.671 28.5561 39.651 24.536 39.651 19.5944C39.651 14.6529 43.6712 10.6329 48.6126 10.6329ZM45.4305 24.0239L42.2137 20.8069C42.0976 20.6909 42.0055 20.5531 41.9427 20.4014C41.8799 20.2498 41.8475 20.0872 41.8475 19.9231C41.8475 19.7589 41.8799 19.5964 41.9427 19.4448C42.0055 19.2931 42.0976 19.1553 42.2137 19.0393C42.3297 18.9232 42.4675 18.8311 42.6192 18.7683C42.7708 18.7055 42.9333 18.6731 43.0975 18.6731C43.2616 18.6731 43.4242 18.7055 43.5758 18.7683C43.7275 18.8311 43.8653 18.9232 43.9813 19.0393L46.3562 21.4143L53.2877 15.1236C53.5332 14.9008 53.8572 14.7847 54.1884 14.8007C54.5195 14.8168 54.8307 14.9637 55.0535 15.2093C55.2763 15.4548 55.3925 15.7787 55.3764 16.1099C55.3603 16.441 55.2134 16.7522 54.9679 16.975L47.1544 24.0658C46.9247 24.2748 46.6252 24.3905 46.3146 24.3902C46.1504 24.3903 45.9878 24.358 45.8361 24.2952C45.6844 24.2323 45.5465 24.1402 45.4305 24.0239Z" fill="#705CF6"/>
</svg>
