<svg width="80" height="80" viewBox="0 0 80 80" fill="none" xmlns="http://www.w3.org/2000/svg">
<g clip-path="url(#clip0_183_67973)">
<path d="M46.2747 16.2227C48.148 14.5147 49.3333 12.0627 49.3333 9.33333C49.3333 4.188 45.1467 0 40 0C34.8533 0 30.6667 4.188 30.6667 9.33333C30.6667 12.0627 31.852 14.5147 33.7253 16.2227C28.1933 17.2893 24 22.1613 24 28V33.3333C24 34.0707 24.5973 34.6667 25.3333 34.6667H54.6667C55.4027 34.6667 56 34.0707 56 33.3333V28C56 22.1613 51.8067 17.2893 46.2747 16.2227ZM33.3333 9.33333C33.3333 5.65733 36.324 2.66667 40 2.66667C43.676 2.66667 46.6667 5.65733 46.6667 9.33333C46.6667 13.0093 43.676 16 40 16C36.324 16 33.3333 13.0093 33.3333 9.33333ZM53.3333 32H26.6667V28C26.6667 22.8547 30.8533 18.6667 36 18.6667H44C49.1467 18.6667 53.3333 22.8547 53.3333 28V32ZM22.2747 61.556C24.148 59.848 25.3333 57.396 25.3333 54.6667C25.3333 49.5213 21.1467 45.3333 16 45.3333C10.8533 45.3333 6.66667 49.5213 6.66667 54.6667C6.66667 57.396 7.852 59.848 9.72533 61.556C4.19333 62.6227 0 67.4947 0 73.3333V78.6667C0 79.404 0.597333 80 1.33333 80H30.6667C31.4027 80 32 79.404 32 78.6667V73.3333C32 67.4947 27.8067 62.6227 22.2747 61.556ZM9.33333 54.6667C9.33333 50.9907 12.324 48 16 48C19.676 48 22.6667 50.9907 22.6667 54.6667C22.6667 58.3427 19.676 61.3333 16 61.3333C12.324 61.3333 9.33333 58.3427 9.33333 54.6667ZM29.3333 77.3333H2.66667V73.3333C2.66667 68.188 6.85333 64 12 64H20C25.1467 64 29.3333 68.188 29.3333 73.3333V77.3333ZM70.2747 61.556C72.148 59.848 73.3333 57.396 73.3333 54.6667C73.3333 49.5213 69.1467 45.3333 64 45.3333C58.8533 45.3333 54.6667 49.5213 54.6667 54.6667C54.6667 57.396 55.852 59.848 57.7253 61.556C52.1933 62.6227 48 67.4947 48 73.3333V78.6667C48 79.404 48.5973 80 49.3333 80H78.6667C79.4027 80 80 79.404 80 78.6667V73.3333C80 67.4947 75.8067 62.6227 70.2747 61.556ZM57.3333 54.6667C57.3333 50.9907 60.324 48 64 48C67.676 48 70.6667 50.9907 70.6667 54.6667C70.6667 58.3427 67.676 61.3333 64 61.3333C60.324 61.3333 57.3333 58.3427 57.3333 54.6667ZM77.3333 77.3333H50.6667V73.3333C50.6667 68.188 54.8533 64 60 64H68C73.1467 64 77.3333 68.188 77.3333 73.3333V77.3333ZM8.02533 42.624L5.36133 42.728C5.39733 43.6467 5.47067 44.5773 5.58 45.492L8.228 45.1747C8.12653 44.3275 8.05892 43.4766 8.02533 42.624ZM5.57867 37.196C5.46924 38.1136 5.39673 39.0352 5.36133 39.9587L8.02533 40.0627C8.05867 39.2093 8.12667 38.352 8.22667 37.5107L5.57867 37.196ZM18.9853 13.7573C18.2496 14.3185 17.5366 14.9087 16.848 15.5267L18.6307 17.5107C19.265 16.94 19.9224 16.3955 20.6013 15.8787L18.9853 13.7573ZM8.62267 26.5733C8.23067 27.4067 7.868 28.2653 7.54267 29.1307L10.0387 30.068C10.339 29.2697 10.6713 28.4837 11.0347 27.712L8.62267 26.5733ZM6.67067 31.764C6.41613 32.6527 6.19729 33.5512 6.01467 34.4573L8.62933 34.984C8.79733 34.1507 9 33.3133 9.23467 32.4987L6.67067 31.764ZM14.8627 17.4627C14.2263 18.1327 13.6165 18.8274 13.0347 19.5453L15.108 21.2227C15.6449 20.5592 16.2081 19.9174 16.796 19.2987L14.8627 17.4627ZM23.644 10.7613C22.828 11.1977 22.03 11.667 21.252 12.168L22.6973 14.4107C23.4133 13.948 24.1482 13.5152 24.9 13.1133L23.644 10.7613ZM11.3787 21.7667C10.8559 22.5298 10.364 23.3135 9.904 24.116L12.2173 25.4413C12.6416 24.701 13.0958 23.9782 13.5787 23.2747L11.3787 21.7667ZM33.6827 72.7093L33.156 75.324C34.0634 75.5065 34.978 75.6515 35.8973 75.7587L36.2067 73.1107C35.36 73.0107 34.5093 72.876 33.6827 72.7093ZM46.4013 72.6933C45.5643 72.8627 44.721 72.9992 43.8733 73.1027L44.1947 75.7507C45.1147 75.6387 46.0347 75.4893 46.9307 75.308L46.4013 72.6933ZM41.324 73.3067C40.472 73.34 39.6107 73.344 38.764 73.3107L38.6587 75.9747C39.1027 75.9933 39.5507 76.0013 40.004 76.0013C40.4813 75.9987 40.9573 75.9893 41.4307 75.9707L41.324 73.3067ZM63.1573 15.5373L61.376 17.5213C62.0102 18.0918 62.6218 18.6869 63.2093 19.3053L65.1453 17.472C64.5133 16.8053 63.8453 16.1547 63.1573 15.5373ZM66.9707 19.5533L64.8973 21.2307C65.434 21.8947 65.9441 22.5797 66.4267 23.284L68.6253 21.776C68.1026 21.0141 67.5507 20.2726 66.9707 19.5533ZM74.6387 39.9627L71.9747 40.0667C71.992 40.4867 72 40.9107 72 41.3333C72 41.7667 71.992 42.1973 71.9747 42.628L74.6387 42.732C74.6573 42.268 74.6667 41.8013 74.6667 41.3307C74.6667 40.8733 74.6573 40.416 74.6387 39.9627ZM70.1013 24.1227L67.7867 25.4493C68.2106 26.1899 68.6051 26.9469 68.9693 27.7187L71.3813 26.58C70.9874 25.7443 70.5604 24.9245 70.1013 24.1227ZM72.46 29.136L69.964 30.0747C70.2635 30.8731 70.5312 31.6831 70.7667 32.5027L73.3307 31.768C73.076 30.8793 72.7855 30.0013 72.46 29.136ZM73.984 34.4627L71.3707 34.988C71.5393 35.8248 71.6736 36.6682 71.7733 37.516L74.4213 37.2013C74.3133 36.2893 74.1667 35.368 73.984 34.4627ZM58.756 12.1733L57.312 14.416C58.0296 14.8785 58.7283 15.3696 59.4067 15.888L61.0253 13.7667C60.2904 13.2056 59.5334 12.674 58.756 12.1733ZM53.872 9.55467L52.804 11.9973C53.5857 12.3395 54.3534 12.7127 55.1053 13.116L56.3667 10.7667C55.5523 10.3282 54.72 9.92388 53.872 9.55467Z" fill="#705CF6"/>
</g>
<defs>
<clipPath id="clip0_183_67973">
<rect width="80" height="80" fill="white"/>
</clipPath>
</defs>
</svg>
