<svg width="80" height="80" viewBox="0 0 80 80" fill="none" xmlns="http://www.w3.org/2000/svg">
<path d="M65.7191 35.5638C66.2051 35.1722 66.5162 34.604 66.5841 33.9836C66.652 33.3632 66.4711 32.7411 66.0813 32.2537L65.0248 30.9375C64.0569 17.8941 53.128 7.72328 39.9995 7.72328C33.7362 7.72312 27.6991 10.0651 23.0744 14.289C18.4497 18.513 15.5716 24.3137 15.0056 30.5514L13.7192 32.1539C13.329 32.6411 13.148 33.2632 13.2159 33.8838C13.2838 34.5043 13.595 35.0725 14.0813 35.4639L15.1455 36.3183C15.8721 41.4674 18.1791 46.2639 21.748 50.0459C25.317 53.8279 29.972 56.4088 35.0703 57.4323C35.1997 57.4581 35.3328 57.4581 35.4622 57.4324C35.5915 57.4067 35.7145 57.3558 35.8242 57.2826C35.9339 57.2093 36.0281 57.1152 36.1014 57.0056C36.1747 56.8959 36.2257 56.7729 36.2514 56.6436C36.2772 56.5143 36.2772 56.3811 36.2515 56.2518C36.2258 56.1224 36.1749 55.9994 36.1017 55.8897C36.0284 55.78 35.9343 55.6858 35.8246 55.6125C35.715 55.5392 35.592 55.4883 35.4627 55.4625C31.0848 54.5965 27.0532 52.4761 23.859 49.3595C20.6648 46.2429 18.446 42.2647 17.4727 37.9094C17.9801 38.0359 18.5153 37.9892 18.9933 37.7769C19.8506 38.4539 21.0578 38.885 22.6522 39.0833C22.8894 39.2379 23.1271 39.3918 23.3653 39.5448C23.8406 39.8509 23.8406 39.8509 23.9666 39.9833C24.0603 40.0812 24.2056 40.2333 24.4605 40.4805L23.9656 41.3377C23.6189 41.9399 23.5252 42.6551 23.705 43.3263C23.8849 43.9975 24.3237 44.57 24.9252 44.9181L25.1002 45.0191C25.4811 45.2401 25.912 45.3607 26.3524 45.3695C26.4191 45.7452 26.5673 46.1017 26.7864 46.414C27.0054 46.7264 27.2902 46.9871 27.6206 47.1778L27.7956 47.2788C28.3153 47.5794 28.9228 47.6917 29.5156 47.5966C29.7288 48.1578 30.1298 48.6278 30.6503 48.9269L30.8253 49.028C31.5284 49.4342 32.3759 49.3962 33.1181 49.0912C33.3455 49.4615 33.6618 49.7691 34.0383 49.9859L34.2133 50.087C34.6102 50.3168 35.0607 50.4378 35.5194 50.4377C35.9724 50.4374 36.4178 50.3207 36.8127 50.0987L38.0599 51.0097C39.2097 51.8495 40.2369 52.2709 41.1291 52.2709C41.5052 52.274 41.8772 52.1921 42.2172 52.0312C42.8503 51.7292 43.335 51.1383 43.6183 50.3628C43.9058 50.4433 44.2028 50.4848 44.5014 50.4863C44.9708 50.488 45.4338 50.3778 45.852 50.1647C46.2688 49.9438 46.6315 49.6334 46.9141 49.2557C47.1966 48.878 47.392 48.4424 47.4861 47.9802C48.1682 47.9802 48.8371 47.7925 49.4195 47.4377C49.8281 47.19 50.1749 46.8526 50.4338 46.4511C50.6926 46.0496 50.8568 45.5945 50.9138 45.1202C50.9302 45.1202 50.9466 45.122 50.963 45.122C51.4441 45.1232 51.9198 45.02 52.3572 44.8195C52.7946 44.6189 53.1833 44.3259 53.4964 43.9606C53.8096 43.5952 54.0397 43.1663 54.1709 42.7034C54.3022 42.2404 54.3314 41.7545 54.2566 41.2792C54.2254 41.0843 54.1773 40.8925 54.1127 40.7059C54.4405 40.5867 54.7568 40.4377 55.0575 40.2609C55.7194 39.8664 56.2944 39.3183 56.8466 38.7722L60.257 37.5378C60.5666 37.7946 60.9369 37.9678 61.3325 38.0408C61.728 38.1138 62.1357 38.0841 62.5166 37.9547C61.537 42.3105 59.3103 46.2867 56.1083 49.3979C52.9062 52.509 48.8675 54.6203 44.4853 55.4741C44.2407 55.5224 44.0229 55.66 43.8741 55.86C43.7253 56.0601 43.6562 56.3083 43.6802 56.5565C43.7043 56.8046 43.8198 57.035 44.0043 57.2027C44.1887 57.3705 44.429 57.4636 44.6783 57.4641C44.7438 57.464 44.8092 57.4576 44.8734 57.445C49.9951 56.4286 54.6726 53.8411 58.2553 50.0426C61.838 46.244 64.1476 41.4233 64.863 36.2509L65.7191 35.5638ZM39.9995 9.73187C45.2594 9.73819 50.3599 11.5373 54.4597 14.8323C58.5595 18.1274 61.4137 22.7215 62.5513 27.8569L55.7777 19.4194C55.386 18.9336 54.8178 18.6227 54.1974 18.5548C53.5771 18.487 52.9551 18.6677 52.4677 19.0573L49.9794 21.0548C49.5683 21.3855 49.2802 21.8445 49.1612 22.3585C49.0422 22.8724 49.0992 23.4114 49.3231 23.8891C46.8738 24.7447 45.2672 25.0731 41.6022 24.5523C40.3875 24.3805 38.6411 24.8448 36.1542 26.0055C34.7978 26.068 33.6641 25.6009 31.6719 24.7752C31.1953 24.5768 30.7176 24.3811 30.2388 24.1881C30.5999 23.6995 30.758 23.0901 30.6801 22.4875C30.6022 21.8849 30.2942 21.3358 29.8206 20.9552L27.3325 18.9577C26.8451 18.568 26.2231 18.3873 25.6028 18.4552C24.9824 18.523 24.4142 18.8339 24.0225 19.3197L17.5644 27.3647C20.0392 17.2278 29.2664 9.73187 39.9995 9.73187ZM17.8277 35.8953L16.7108 35L16.7041 34.9947L15.3388 33.8986C15.2683 33.8404 15.2233 33.7571 15.2134 33.6663C15.2035 33.5754 15.2294 33.4843 15.2856 33.4123L25.5891 20.5773C25.6176 20.5423 25.6529 20.5131 25.6927 20.4917C25.7325 20.4702 25.7762 20.4569 25.8213 20.4523C25.8342 20.4509 25.8472 20.4503 25.8602 20.4503C25.9383 20.4497 26.0142 20.476 26.0752 20.5248L28.5634 22.5223C28.6341 22.5804 28.6792 22.6637 28.6891 22.7546C28.699 22.8454 28.673 22.9365 28.6166 23.0084L27.8183 24.003L27.8125 24.0102L18.3125 35.8434C18.2542 35.9133 18.1711 35.9578 18.0806 35.9675C17.9901 35.9772 17.8994 35.9513 17.8277 35.8953ZM27.0861 42.8628C27.0305 42.9211 26.982 42.9857 26.9417 43.0555C26.8596 43.1952 26.7259 43.297 26.5694 43.3389C26.4128 43.3808 26.2461 43.3595 26.1052 43.2795L25.9302 43.1786C25.7911 43.0959 25.6899 42.9621 25.648 42.8059C25.6062 42.6496 25.627 42.4832 25.7061 42.342L27.3834 39.4366C27.4237 39.367 27.4773 39.3062 27.5412 39.2575C27.6051 39.2089 27.6781 39.1734 27.7558 39.1531C27.8087 39.1389 27.8632 39.1316 27.918 39.1316C28.0241 39.1315 28.1284 39.1595 28.2203 39.2127L28.3952 39.3134C28.5341 39.3962 28.6353 39.53 28.6771 39.6862C28.719 39.8425 28.6981 40.0089 28.6191 40.15C28.5677 40.2389 28.5302 40.3352 28.508 40.4355C28.4468 40.5176 28.3905 40.6032 28.3394 40.6919L27.0861 42.8628ZM31.1939 42.7445L29.8669 45.0431C29.7748 45.1193 29.6971 45.2114 29.6375 45.315C29.5547 45.454 29.421 45.5552 29.2647 45.5971C29.1084 45.6389 28.942 45.6181 28.8008 45.5391L28.6258 45.4381C28.4867 45.3554 28.3855 45.2217 28.3436 45.0654C28.3017 44.9092 28.3225 44.7427 28.4016 44.6016L30.0777 41.6962C30.1328 41.6032 30.2113 41.5263 30.3054 41.473C30.3995 41.4197 30.5059 41.392 30.6141 41.3925C30.7194 41.3922 30.823 41.4196 30.9144 41.4722L31.0894 41.5731C31.2291 41.6552 31.3308 41.7889 31.3728 41.9454C31.4147 42.1019 31.3935 42.2686 31.3136 42.4095C31.2537 42.5131 31.2129 42.6265 31.1931 42.7445H31.1939ZM34.3444 44.1587C34.3047 44.2277 34.2732 44.3012 34.2506 44.3775L33.0789 46.4062C32.9945 46.5522 32.9244 46.706 32.8695 46.8655C32.6127 47.2012 32.0149 47.3967 31.8295 47.2891L31.6545 47.1881C31.5148 47.106 31.413 46.9723 31.3711 46.8157C31.3292 46.6592 31.3506 46.4925 31.4306 46.3516L33.1078 43.4461C33.163 43.3531 33.2415 43.2761 33.3356 43.2228C33.4297 43.1695 33.5361 43.1418 33.6442 43.1423C33.7495 43.142 33.853 43.1695 33.9444 43.2219L34.1195 43.323C34.2593 43.4051 34.3611 43.5388 34.403 43.6953C34.4449 43.8519 34.4236 44.0186 34.3436 44.1595L34.3444 44.1587ZM35.2186 48.3477L35.0436 48.2466C34.9046 48.1639 34.8033 48.0301 34.7614 47.8739C34.7196 47.7176 34.7404 47.5512 34.8194 47.41L36.4969 44.5047C36.552 44.4116 36.6305 44.3346 36.7246 44.2813C36.8187 44.228 36.9251 44.2002 37.0333 44.2008C37.1385 44.2005 37.242 44.2279 37.3333 44.2803L37.5084 44.3816C37.6482 44.4636 37.75 44.5974 37.7919 44.7539C37.8338 44.9105 37.8125 45.0772 37.7325 45.2181L36.0553 48.1234C35.9725 48.2625 35.8387 48.3638 35.6824 48.4057C35.526 48.4476 35.3595 48.4268 35.2183 48.3477H35.2186ZM52.0364 42.5713C51.8292 42.8545 51.5181 43.0439 51.1713 43.098C50.8246 43.152 50.4706 43.0662 50.187 42.8594L46.2652 39.9952C46.1587 39.9162 46.0377 39.859 45.9091 39.827C45.7805 39.795 45.6468 39.7887 45.5158 39.8086C45.3847 39.8285 45.2589 39.8742 45.1456 39.9429C45.0323 40.0117 44.9337 40.1022 44.8555 40.2092C44.7773 40.3162 44.7211 40.4377 44.6901 40.5665C44.659 40.6954 44.6538 40.8291 44.6747 40.96C44.6956 41.0909 44.7422 41.2164 44.8118 41.3291C44.8814 41.4419 44.9727 41.5398 45.0803 41.6172L48.9294 44.4284C48.9814 45.0238 48.7911 45.4622 48.3588 45.7311C47.8481 46.0481 47.0913 46.057 46.6713 45.7502L43.3174 43.3005C43.1021 43.1458 42.8345 43.0824 42.5728 43.1242C42.311 43.166 42.0764 43.3096 41.9201 43.5236C41.7638 43.7376 41.6984 44.0047 41.7381 44.2668C41.7779 44.5288 41.9197 44.7645 42.1325 44.9225L45.4864 47.3722C45.5067 47.3878 45.5288 47.3997 45.5489 47.4141C45.4717 47.8641 45.2563 48.212 44.9366 48.3756C44.5378 48.5795 44.0072 48.4764 43.4814 48.0923L41.1889 46.418C40.9737 46.2633 40.7061 46.1999 40.4443 46.2417C40.1826 46.2835 39.948 46.4271 39.7917 46.6411C39.6353 46.8551 39.5699 47.1223 39.6097 47.3843C39.6495 47.6463 39.7912 47.882 40.0041 48.04L41.8188 49.3653C41.7263 49.7914 41.5531 50.1216 41.3514 50.2177C41.0675 50.3531 40.3644 50.2062 39.2438 49.3878L38.1177 48.5653L39.4702 46.2227C39.8165 45.6203 39.91 44.9054 39.7302 44.2342C39.5505 43.5631 39.1121 42.9906 38.5111 42.642L38.3358 42.5409C37.9833 42.3374 37.5882 42.2189 37.1819 42.1947C36.7756 42.1706 36.3693 42.2414 35.9952 42.4017C35.7721 42.0647 35.4734 41.7844 35.123 41.583L34.9477 41.4817C34.428 41.1811 33.8206 41.0688 33.2278 41.1639C33.0147 40.6027 32.6138 40.1327 32.0933 39.8336L31.9183 39.7327C31.5371 39.5121 31.1063 39.3916 30.6659 39.3827C30.5992 39.0069 30.451 38.6503 30.2319 38.3378C30.0128 38.0254 29.7279 37.7646 29.3974 37.5739L29.2225 37.4731C28.6203 37.1266 27.9052 37.033 27.2341 37.2128C26.563 37.3926 25.9905 37.8312 25.6422 38.4323L25.4989 38.6803C25.4699 38.6502 25.4434 38.6225 25.4208 38.5984C25.1294 38.2922 25.0522 38.2425 24.452 37.8561C24.1513 37.6628 23.8514 37.4684 23.5522 37.2727C23.4193 37.1856 23.2675 37.1314 23.1095 37.1145C21.9689 36.9922 21.0761 36.7345 20.4727 36.3598L28.9274 25.8286C29.6659 26.1186 30.3149 26.3873 30.9024 26.6308C31.8298 27.0388 32.7792 27.3951 33.7461 27.698C33.5727 27.9067 33.405 28.1239 33.2352 28.3459L33.1484 28.4595C32.7292 29.0064 31.9453 30.0138 31.402 30.6111C31.3011 30.722 31.2095 30.8175 31.1269 30.9039C30.7606 31.2866 30.4145 31.6481 30.2675 32.3031C30.0969 33.0658 30.2172 34.1723 30.87 34.9255C31.4288 35.5694 32.3984 35.9533 33.4656 35.9533H33.4744C34.3963 35.9514 35.1181 35.6348 35.9845 35.1244C36.1435 35.0302 36.3017 34.9347 36.4591 34.838C37.1677 34.4053 38.0495 33.8669 38.895 33.6341C41.9044 32.8059 46.4961 36.5236 49.5342 38.9839C50.3352 39.6325 51.0916 40.2452 51.7459 40.7231C52.0278 40.9312 52.2161 41.2421 52.27 41.5882C52.3239 41.9344 52.239 42.2878 52.0338 42.5717L52.0364 42.5713ZM54.0297 38.535C53.6484 38.7474 53.2407 38.9086 52.8172 39.0144C52.2272 38.5769 51.5338 38.0159 50.8016 37.4225C47.2434 34.5409 42.3711 30.5944 38.365 31.697C37.2472 32.0047 36.2316 32.6248 35.4155 33.1231C35.2583 33.2192 35.1088 33.3106 34.9684 33.3933C34.1794 33.858 33.8458 33.9434 33.4736 33.9442H33.4683C33.0117 33.9442 32.5586 33.8036 32.3902 33.6089C32.2291 33.4231 32.1728 32.9975 32.2302 32.7409C32.2505 32.65 32.2806 32.605 32.5797 32.2925C32.6734 32.1952 32.7759 32.0872 32.8899 31.9622C33.4827 31.3102 34.3066 30.2527 34.745 29.6809L34.8331 29.5656C35.3147 28.9355 35.6627 28.4802 36.1114 28.2566C39.2792 26.677 40.6936 26.4523 41.3205 26.5411C45.7406 27.1688 47.6455 26.6312 50.5872 25.5723L58.8784 35.9005L55.9555 36.9589C55.8181 37.0081 55.6932 37.0868 55.5895 37.1895C55.0506 37.7241 54.542 38.2289 54.0289 38.535H54.0297ZM61.4881 35.9412L51.1845 23.1063C51.1282 23.0343 51.1023 22.9432 51.1122 22.8524C51.1221 22.7616 51.1672 22.6782 51.2377 22.6202L53.7259 20.6227C53.7978 20.5662 53.8889 20.5402 53.9798 20.5502C54.0706 20.5601 54.1539 20.6053 54.2119 20.6759L64.5152 33.5112C64.5716 33.5831 64.5977 33.6742 64.5878 33.7651C64.5779 33.856 64.5328 33.9393 64.4622 33.9973L61.9739 35.9948C61.9019 36.0512 61.8107 36.0772 61.7198 36.0673C61.6289 36.0574 61.5455 36.0123 61.4874 35.9417L61.4881 35.9412ZM41.6055 56.8808C41.6119 57.1471 41.5123 57.405 41.3285 57.5979C41.1448 57.7908 40.8919 57.9027 40.6256 57.9092C40.4173 57.9142 40.2086 57.9168 39.9995 57.9169C39.7332 57.9169 39.4777 57.8111 39.2893 57.6227C39.101 57.4343 38.9952 57.1789 38.9952 56.9125C38.9952 56.6461 39.101 56.3907 39.2893 56.2023C39.4777 56.0139 39.7332 55.9081 39.9995 55.9081C40.1927 55.9081 40.3854 55.9058 40.5777 55.9011C40.7095 55.8978 40.8407 55.9206 40.9637 55.9681C41.0868 56.0156 41.1992 56.0869 41.2947 56.1778C41.3901 56.2688 41.4667 56.3778 41.5201 56.4984C41.5734 56.619 41.6024 56.7489 41.6055 56.8808ZM62.6041 53.3564C67.7243 47.7431 70.56 40.4178 70.5538 32.82C70.5538 15.9723 56.8472 2.26562 39.9995 2.26562C23.1519 2.26562 9.44532 15.9723 9.44532 32.82C9.43921 40.4177 12.2748 47.7429 17.3949 53.3563L11.4445 70.9045C11.4022 71.0295 11.3849 71.1615 11.3935 71.2931C11.4022 71.4248 11.4368 71.5534 11.4952 71.6717C11.5536 71.79 11.6347 71.8956 11.7339 71.9825C11.8331 72.0694 11.9485 72.136 12.0734 72.1783L12.1499 72.2042C12.3 72.255 12.4599 72.2696 12.6168 72.2468C12.7736 72.224 12.9228 72.1645 13.0522 72.073L23.7142 64.5291L27.5892 77.002C27.6364 77.1539 27.719 77.2924 27.8302 77.4062C27.9414 77.5199 28.078 77.6056 28.2288 77.6562L28.305 77.6819C28.557 77.7668 28.8325 77.7482 29.0708 77.6301C29.3091 77.5121 29.4908 77.3043 29.5759 77.0523L34.3892 62.8563C38.0974 63.5472 41.9013 63.5472 45.6095 62.8563L50.423 77.0522C50.5081 77.3042 50.6899 77.512 50.9283 77.6301C51.1667 77.7481 51.4422 77.7666 51.6942 77.6816L51.7705 77.6559C51.9211 77.6053 52.0576 77.5196 52.1686 77.4059C52.2797 77.2922 52.3622 77.1538 52.4094 77.002L56.2844 64.5291L66.9464 72.073C67.0759 72.1645 67.2252 72.2241 67.3821 72.2469C67.539 72.2697 67.6991 72.255 67.8492 72.2041L67.9256 72.1781C68.1778 72.0925 68.3857 71.9102 68.5035 71.6714C68.6213 71.4326 68.6394 71.1567 68.5539 70.9045L62.6041 53.3564ZM28.6308 73.5841L25.2222 62.6125C25.1751 62.4611 25.0929 62.323 24.9823 62.2095C24.8716 62.096 24.7356 62.0103 24.5855 61.9595C24.4354 61.9086 24.2753 61.8939 24.1185 61.9168C23.9616 61.9396 23.8124 61.9992 23.683 62.0908L14.3041 68.7267L18.97 54.9655C22.7428 58.5568 27.3714 61.1236 32.4158 62.4219L28.6308 73.5841ZM11.4539 32.82C11.4539 17.0798 24.2594 4.27438 39.9995 4.27438C55.7397 4.27438 68.5452 17.0798 68.5452 32.82C68.5452 48.5602 55.7397 61.3656 39.9995 61.3656C24.2594 61.3656 11.4539 48.5602 11.4539 32.82ZM56.3159 62.0908C56.1865 61.9992 56.0373 61.9396 55.8804 61.9168C55.7236 61.8939 55.5635 61.9086 55.4134 61.9595C55.2633 62.0103 55.1273 62.096 55.0167 62.2095C54.906 62.323 54.8238 62.4611 54.7767 62.6125L51.368 73.5839L47.5831 62.4219C52.6275 61.1238 57.2561 58.5572 61.0289 54.9661L65.6949 68.727L56.3159 62.0908Z" fill="#705CF6" stroke="#705CF6" stroke-width="0.5"/>
</svg>
