<svg width="24" height="24" viewBox="0 0 24 24" fill="none" xmlns="http://www.w3.org/2000/svg">
<g clip-path="url(#clip0_183_67960)">
<path d="M16.6276 12.75H7.37189C7.24036 12.75 7.13409 12.8584 7.13747 12.9899C7.16545 14.0748 7.23895 15.1113 7.35075 16.0913C7.36683 16.2323 7.503 16.3275 7.64053 16.2925C9.05559 15.932 10.5139 15.75 11.9998 15.75C13.4856 15.75 14.9439 15.932 16.359 16.2925C16.4965 16.3275 16.6327 16.2323 16.6488 16.0913C16.7606 15.1112 16.8341 14.0748 16.862 12.9899C16.8654 12.8584 16.7592 12.75 16.6276 12.75Z" fill="#007EFF"/>
<path d="M16.6488 7.90883C16.6327 7.76783 16.4965 7.67258 16.359 7.7076C14.9439 8.06816 13.4857 8.25017 11.9998 8.25017C10.5139 8.25017 9.0556 8.06816 7.64053 7.70764C7.50305 7.67263 7.36683 7.76788 7.35075 7.90888C7.23895 8.88894 7.16545 9.92539 7.13747 11.0103C7.13409 11.1418 7.24031 11.2502 7.37189 11.2502H16.6276C16.7591 11.2502 16.8654 11.1418 16.862 11.0103C16.8341 9.92535 16.7605 8.88889 16.6488 7.90883Z" fill="#007EFF"/>
<path d="M16.359 5.93062C15.939 3.6068 15.2953 1.701 14.5523 0.354188C14.5192 0.294188 14.4612 0.251859 14.394 0.238313C13.6142 0.0811875 12.8133 0 11.9997 0C11.1861 0 10.3852 0.0811875 9.60543 0.238359C9.53825 0.251906 9.48022 0.294234 9.44713 0.354234C8.70416 1.701 8.06043 3.6068 7.64043 5.93067C7.61891 6.04964 7.69208 6.16617 7.8088 6.19763C9.14568 6.55772 10.5507 6.75 11.9997 6.75C13.4488 6.75 14.8537 6.55772 16.1906 6.19758C16.3073 6.16617 16.3805 6.04959 16.359 5.93062Z" fill="#007EFF"/>
<path d="M16.9878 1.07978C16.7968 0.992447 16.5978 1.18313 16.6733 1.37907C16.6746 1.38254 16.676 1.38601 16.6773 1.38948C17.1335 2.5756 17.5041 3.92218 17.7814 5.37845C17.8091 5.52399 17.9641 5.60692 18.1011 5.55067C19.0237 5.17206 19.9036 4.7101 20.7317 4.1746C20.8543 4.09534 20.8763 3.92439 20.7769 3.81751C20.6816 3.71518 20.5844 3.61421 20.4851 3.51484C19.4561 2.48579 18.2729 1.66731 16.9878 1.07978Z" fill="#007EFF"/>
<path d="M18.5964 11.2499H23.7237C23.8611 11.2499 23.9688 11.1322 23.9575 10.9952C23.7918 8.9834 23.1298 7.07329 22.0304 5.40787C21.9585 5.29888 21.8124 5.2694 21.7035 5.34135C20.8079 5.93305 19.8584 6.44235 18.8603 6.86451C18.6555 6.95113 18.4496 7.03359 18.2425 7.1121C18.1409 7.15063 18.0787 7.25287 18.0923 7.36073C18.2399 8.53724 18.3313 9.76452 18.3625 11.0208C18.3656 11.1481 18.4691 11.2499 18.5964 11.2499Z" fill="#007EFF"/>
<path d="M7.64043 18.0694C8.06043 20.3932 8.70416 22.299 9.44713 23.6458C9.48022 23.7058 9.53825 23.7481 9.60543 23.7617C10.3852 23.9188 11.1861 24 11.9997 24C12.8133 24 13.6142 23.9188 14.394 23.7616C14.4612 23.7481 14.5192 23.7058 14.5523 23.6458C15.2953 22.299 15.939 20.3932 16.359 18.0693C16.3805 17.9504 16.3073 17.8338 16.1906 17.8024C14.8537 17.4423 13.4488 17.25 11.9997 17.25C10.5507 17.25 9.14568 17.4423 7.8088 17.8024C7.69208 17.8338 7.61891 17.9504 7.64043 18.0694Z" fill="#007EFF"/>
<path d="M5.13906 17.1354C5.34381 17.0488 5.54978 16.9663 5.75688 16.8878C5.8585 16.8493 5.92061 16.7471 5.90706 16.6392C5.7595 15.4627 5.6681 14.2354 5.63688 12.9791C5.63369 12.8518 5.53024 12.7501 5.40292 12.7501H0.275642C0.138205 12.7501 0.0305331 12.8678 0.04183 13.0047C0.207533 15.0166 0.869642 16.9267 1.96895 18.5921C2.04086 18.701 2.18692 18.7306 2.29586 18.6586C3.1915 18.0669 4.14091 17.5576 5.13906 17.1354Z" fill="#007EFF"/>
<path d="M20.7318 19.8251C19.9037 19.2896 19.0238 18.8276 18.1012 18.449C17.9642 18.3928 17.8092 18.4757 17.7815 18.6213C17.5042 20.0775 17.1336 21.4241 16.6774 22.6102C16.6761 22.6137 16.6747 22.6172 16.6734 22.6206C16.5979 22.8166 16.7969 23.0073 16.9879 22.9199C18.2729 22.3324 19.4562 21.5139 20.4852 20.4849C20.5846 20.3855 20.6817 20.2845 20.777 20.1822C20.8764 20.0753 20.8543 19.9044 20.7318 19.8251Z" fill="#007EFF"/>
<path d="M18.3625 12.979C18.3313 14.2353 18.2398 15.4626 18.0923 16.6391C18.0787 16.747 18.1409 16.8492 18.2425 16.8877C18.4496 16.9662 18.6555 17.0487 18.8603 17.1353C19.8584 17.5575 20.8079 18.0668 21.7035 18.6585C21.8124 18.7304 21.9584 18.7009 22.0304 18.592C23.1297 16.9266 23.7918 15.0165 23.9575 13.0046C23.9688 12.8676 23.8611 12.7499 23.7237 12.7499H18.5964C18.4691 12.75 18.3656 12.8517 18.3625 12.979Z" fill="#007EFF"/>
<path d="M3.26806 4.17453C4.0961 4.71003 4.97599 5.17203 5.89859 5.5506C6.03565 5.60685 6.19062 5.52392 6.21832 5.37838C6.49563 3.92211 6.86618 2.57553 7.32242 1.38941C7.32373 1.38594 7.32509 1.38247 7.3264 1.379C7.40192 1.18306 7.20293 0.992377 7.01196 1.0797C5.72693 1.66728 4.54367 2.48577 3.51462 3.51477C3.41525 3.61414 3.31807 3.71511 3.22282 3.81744C3.1234 3.92431 3.14548 4.09527 3.26806 4.17453Z" fill="#007EFF"/>
<path d="M5.63186 11.2501C5.65722 9.91397 5.7506 8.60888 5.90706 7.36097C5.92061 7.25311 5.8585 7.15088 5.75688 7.11235C5.54978 7.03383 5.34381 6.95138 5.13906 6.86476C4.14091 6.44255 3.1915 5.93325 2.29586 5.3416C2.18692 5.26965 2.04091 5.29918 1.96895 5.40811C0.869642 7.07354 0.207533 8.98364 0.04183 10.9955C0.0305331 11.1324 0.138205 11.2501 0.275642 11.2501H5.63186Z" fill="#007EFF"/>
<path d="M7.01192 22.9199C7.20289 23.0072 7.40188 22.8165 7.32636 22.6206C7.32505 22.6171 7.32369 22.6137 7.32238 22.6102C6.86619 21.4241 6.49559 20.0775 6.21828 18.6212C6.19058 18.4757 6.03561 18.3928 5.89855 18.449C4.97595 18.8276 4.09606 19.2896 3.26801 19.8251C3.14538 19.9043 3.12335 20.0753 3.22282 20.1822C3.31807 20.2845 3.41524 20.3855 3.51462 20.4848C4.54357 21.5139 5.72684 22.3324 7.01192 22.9199Z" fill="#007EFF"/>
</g>
<defs>
<clipPath id="clip0_183_67960">
<rect width="24" height="24" fill="white"/>
</clipPath>
</defs>
</svg>
