<svg width="80" height="80" viewBox="0 0 80 80" fill="none" xmlns="http://www.w3.org/2000/svg">
<g clip-path="url(#clip0_23_1218)">
<path d="M78.6667 48.3066C77.9303 48.3066 77.3333 48.9036 77.3333 49.64V63.3333C77.3333 64.8061 76.1394 66 74.6667 66H53.0667C52.3303 66 51.7333 66.5969 51.7333 67.3333C51.7333 68.0697 52.3303 68.6666 53.0667 68.6666H74.6667C77.6122 68.6666 80 66.2788 80 63.3333V49.64C80 48.9036 79.403 48.3066 78.6667 48.3066Z" fill="#5ECE3E"/>
<path d="M72 56.6666V60.6666H68C67.2636 60.6666 66.6667 61.2635 66.6667 61.9999C66.6667 62.7363 67.2636 63.3333 68 63.3333H73.3333C74.0697 63.3333 74.6667 62.7363 74.6667 61.9999V56.6666C74.6667 55.9302 74.0697 55.3333 73.3333 55.3333C72.5969 55.3333 72 55.9302 72 56.6666Z" fill="#5ECE3E"/>
<path d="M74.6667 3.33325H5.33333C2.38781 3.33325 0 5.72107 0 8.66659V63.3333C0 66.2788 2.38781 68.6666 5.33333 68.6666H18.88C19.6164 68.6666 20.2133 68.0696 20.2133 67.3333C20.2133 66.5969 19.6164 65.9999 18.88 65.9999H5.33333C3.86057 65.9999 2.66667 64.806 2.66667 63.3333V21.9999H77.3333V30.5466C77.3333 31.283 77.9303 31.8799 78.6667 31.8799C79.403 31.8799 80 31.283 80 30.5466V8.66659C80 5.72107 77.6122 3.33325 74.6667 3.33325ZM2.66667 19.3333V8.66659C2.66667 7.19383 3.86057 5.99992 5.33333 5.99992H74.6667C76.1394 5.99992 77.3333 7.19383 77.3333 8.66659V19.3333H2.66667Z" fill="#5ECE3E"/>
<path d="M9.33331 8.6665C7.12417 8.6665 5.33331 10.4574 5.33331 12.6665C5.33331 14.8756 7.12417 16.6665 9.33331 16.6665C11.5425 16.6665 13.3333 14.8756 13.3333 12.6665C13.3333 10.4574 11.5425 8.6665 9.33331 8.6665ZM9.33331 13.9998C8.59693 13.9998 7.99998 13.4029 7.99998 12.6665C7.99998 11.9301 8.59693 11.3332 9.33331 11.3332C10.0697 11.3332 10.6666 11.9301 10.6666 12.6665C10.6666 13.4029 10.0697 13.9998 9.33331 13.9998Z" fill="#5ECE3E"/>
<path d="M20 8.6665C17.7909 8.6665 16 10.4574 16 12.6665C16 14.8756 17.7909 16.6665 20 16.6665C22.2091 16.6665 24 14.8756 24 12.6665C24 10.4574 22.2091 8.6665 20 8.6665ZM20 13.9998C19.2636 13.9998 18.6667 13.4029 18.6667 12.6665C18.6667 11.9301 19.2636 11.3332 20 11.3332C20.7364 11.3332 21.3333 11.9301 21.3333 12.6665C21.3333 13.4029 20.7364 13.9998 20 13.9998Z" fill="#5ECE3E"/>
<path d="M30.6667 8.6665C28.4575 8.6665 26.6667 10.4574 26.6667 12.6665C26.6667 14.8756 28.4575 16.6665 30.6667 16.6665C32.8758 16.6665 34.6667 14.8756 34.6667 12.6665C34.6667 10.4574 32.8758 8.6665 30.6667 8.6665ZM30.6667 13.9998C29.9303 13.9998 29.3334 13.4029 29.3334 12.6665C29.3334 11.9301 29.9303 11.3332 30.6667 11.3332C31.4031 11.3332 32 11.9301 32 12.6665C32 13.4029 31.4031 13.9998 30.6667 13.9998Z" fill="#5ECE3E"/>
<path d="M8.00002 28.6667H36C36.7364 28.6667 37.3334 28.0697 37.3334 27.3333C37.3334 26.597 36.7364 26 36 26H8.00002C7.26364 26 6.66669 26.597 6.66669 27.3333C6.66669 28.0697 7.26364 28.6667 8.00002 28.6667Z" fill="#5ECE3E"/>
<path d="M8.00002 35.3332H36C36.7364 35.3332 37.3334 34.7362 37.3334 33.9998C37.3334 33.2635 36.7364 32.6665 36 32.6665H8.00002C7.26364 32.6665 6.66669 33.2635 6.66669 33.9998C6.66669 34.7362 7.26364 35.3332 8.00002 35.3332Z" fill="#5ECE3E"/>
<path d="M8.00002 41.9999H36C36.7364 41.9999 37.3334 41.403 37.3334 40.6666C37.3334 39.9302 36.7364 39.3333 36 39.3333H8.00002C7.26364 39.3333 6.66669 39.9302 6.66669 40.6666C6.66669 41.403 7.26364 41.9999 8.00002 41.9999Z" fill="#5ECE3E"/>
<path d="M8.00002 48.6667H36C36.7364 48.6667 37.3334 48.0697 37.3334 47.3333C37.3334 46.597 36.7364 46 36 46H8.00002C7.26364 46 6.66669 46.597 6.66669 47.3333C6.66669 48.0697 7.26364 48.6667 8.00002 48.6667Z" fill="#5ECE3E"/>
<path d="M8.00002 55.3332H30.16C30.8964 55.3332 31.4934 54.7362 31.4934 53.9998C31.4934 53.2635 30.8964 52.6665 30.16 52.6665H8.00002C7.26364 52.6665 6.66669 53.2635 6.66669 53.9998C6.66669 54.7362 7.26364 55.3332 8.00002 55.3332Z" fill="#5ECE3E"/>
<path d="M8.00002 61.9999H21.3334C22.0697 61.9999 22.6667 61.403 22.6667 60.6666C22.6667 59.9302 22.0697 59.3333 21.3334 59.3333H8.00002C7.26364 59.3333 6.66669 59.9302 6.66669 60.6666C6.66669 61.403 7.26364 61.9999 8.00002 61.9999Z" fill="#5ECE3E"/>
<path d="M44 28.6667H72C72.7364 28.6667 73.3333 28.0697 73.3333 27.3333C73.3333 26.597 72.7364 26 72 26H44C43.2636 26 42.6667 26.597 42.6667 27.3333C42.6667 28.0697 43.2636 28.6667 44 28.6667Z" fill="#5ECE3E"/>
<path d="M44 35.3332H58.6667C59.403 35.3332 60 34.7362 60 33.9998C60 33.2635 59.403 32.6665 58.6667 32.6665H44C43.2636 32.6665 42.6667 33.2635 42.6667 33.9998C42.6667 34.7362 43.2636 35.3332 44 35.3332Z" fill="#5ECE3E"/>
<path d="M44 41.9999H49.3333C50.0697 41.9999 50.6667 41.403 50.6667 40.6666C50.6667 39.9302 50.0697 39.3333 49.3333 39.3333H44C43.2636 39.3333 42.6667 39.9302 42.6667 40.6666C42.6667 41.403 43.2636 41.9999 44 41.9999Z" fill="#5ECE3E"/>
<path d="M20.2773 75.4267C20.7702 76.1473 21.5869 76.5784 22.46 76.5787C22.6752 76.5784 22.8896 76.5525 23.0987 76.5013L37.5333 73C37.853 72.9235 38.1556 72.7878 38.4253 72.6L64.5334 54.5413L70.016 50.7506L77.692 45.4413C80.1113 43.7639 80.7167 40.4448 79.0453 38.0213L76.0107 33.6346C74.3354 31.212 71.0134 30.6061 68.5907 32.2813L60.9147 37.5907L55.44 41.3813L29.3253 59.4426C29.0553 59.628 28.8224 59.8622 28.6387 60.1333L20.2667 72.408C19.6398 73.3178 19.6441 74.5213 20.2773 75.4267ZM55.8667 44.3333L61.9333 53.1067L37.8013 69.7906L31.7333 61.0187L55.8667 44.3333ZM61.3493 40.5413L67.4174 49.3146L64.12 51.5893L58.0534 42.816L61.3493 40.5413ZM70.1227 34.4733C70.7045 34.0709 71.4224 33.9162 72.1183 34.0433C72.8143 34.1703 73.4312 34.5687 73.8334 35.1507L76.8667 39.536C77.2695 40.1179 77.4244 40.8361 77.2974 41.5324C77.1703 42.2286 76.7717 42.8458 76.1893 43.248L69.6 47.7973L63.532 39.024L70.1227 34.4733ZM29.8867 63.0347L35.2627 70.808L29.708 72.1547L26.6667 67.756L29.8867 63.0347ZM25.0573 70.116L26.9333 72.828L22.4707 73.9093L25.0573 70.116Z" fill="#5ECE3E"/>
</g>
<defs>
<clipPath id="clip0_23_1218">
<rect width="80" height="80" fill="white"/>
</clipPath>
</defs>
</svg>
