<svg width="80" height="80" viewBox="0 0 80 80" fill="none" xmlns="http://www.w3.org/2000/svg">
<path d="M73.0182 1.21216H6.98182C4.24243 1.21216 2.02425 3.44246 2.02425 6.16973V73.8182C2.02425 76.5576 4.24243 78.7879 6.98182 78.7879H73.0182C75.7576 78.7879 77.9758 76.5576 77.9758 73.8304V6.16973C77.9758 3.44246 75.7576 1.21216 73.0182 1.21216ZM6.98182 3.56367H73.0182C74.4606 3.56367 75.6364 4.73943 75.6364 6.18186V14.6425H4.37576V6.16973C4.37576 4.73943 5.5394 3.56367 6.98182 3.56367ZM73.0182 76.4364H6.98182C5.5394 76.4364 4.36364 75.2607 4.36364 73.8182V16.994H75.6243V73.8304C75.6243 75.2607 74.4606 76.4364 73.0182 76.4364Z" fill="#FF7C22"/>
<path d="M65.1273 10.2788H67.9636C68.6182 10.2788 69.1394 9.75755 69.1394 9.103C69.1394 8.44846 68.6182 7.92725 67.9636 7.92725H65.1273C64.4727 7.92725 63.9515 8.44846 63.9515 9.103C63.9515 9.75755 64.4727 10.2788 65.1273 10.2788Z" fill="#FF7C22"/>
<path d="M57.6364 10.2788H60.4728C61.1273 10.2788 61.6485 9.75755 61.6485 9.103C61.6485 8.44846 61.1273 7.92725 60.4728 7.92725H57.6364C56.9818 7.92725 56.4606 8.44846 56.4606 9.103C56.4606 9.75755 56.9818 10.2788 57.6364 10.2788Z" fill="#FF7C22"/>
<path d="M50.1455 10.2788H52.9818C53.6364 10.2788 54.1576 9.75755 54.1576 9.103C54.1576 8.44846 53.6364 7.92725 52.9818 7.92725H50.1455C49.4909 7.92725 48.9697 8.44846 48.9697 9.103C48.9697 9.75755 49.4909 10.2788 50.1455 10.2788Z" fill="#FF7C22"/>
<path d="M12.2546 10.2788H31.6485C32.303 10.2788 32.8242 9.75755 32.8242 9.103C32.8242 8.44846 32.303 7.92725 31.6485 7.92725H12.2546C11.6 7.92725 11.0788 8.44846 11.0788 9.103C11.0788 9.75755 11.6 10.2788 12.2546 10.2788Z" fill="#FF7C22"/>
<path d="M12.2546 26.3757H22.3273C22.9818 26.3757 23.503 25.8545 23.503 25.1999C23.503 24.5454 22.9818 24.0242 22.3273 24.0242H12.2546C11.6 24.0242 11.0788 24.5454 11.0788 25.1999C11.0788 25.8545 11.6 26.3757 12.2546 26.3757Z" fill="#FF7C22"/>
<path d="M23.503 31.2849C23.503 30.6303 22.9818 30.1091 22.3273 30.1091H12.2546C11.6 30.1091 11.0788 30.6303 11.0788 31.2849C11.0788 31.9394 11.6 32.4606 12.2546 32.4606H22.3273C22.9818 32.4606 23.503 31.9394 23.503 31.2849Z" fill="#FF7C22"/>
<path d="M55.6606 19.4668C52.6788 19.4668 49.8788 20.6183 47.7818 22.7274L40.8242 29.6971C37.4182 33.1032 36.6061 38.2426 38.7273 42.485L36.2424 45.0183C34.7273 44.2426 33.0424 43.8183 31.3091 43.8183C28.3273 43.8183 25.5394 44.982 23.4424 47.091L16.4848 54.0486C14.3879 56.1335 13.2364 58.9214 13.2364 61.9032C13.2364 64.885 14.3879 67.6729 16.4848 69.7698C18.5697 71.8668 21.3697 73.0304 24.3515 73.0304C27.3333 73.0304 30.1212 71.8789 32.2182 69.782L39.1879 62.8123C41.2848 60.7032 42.4364 57.9032 42.4364 54.9335C42.4364 53.2729 42.0364 51.6486 41.3333 50.1698L43.903 47.5517C45.3697 48.2668 47.0061 48.6668 48.7151 48.6789C51.6727 48.6789 54.4727 47.5274 56.5818 45.4183L63.5394 38.4486C65.6485 36.3395 66.8121 33.5395 66.8121 30.5698C66.8121 27.6001 65.6485 24.8123 63.5394 22.7032C61.4303 20.6304 58.6424 19.4668 55.6606 19.4668ZM41.0061 43.5153L42.6667 41.8062L46.6545 37.7335C46.9091 37.4789 47.2364 37.3577 47.5636 37.3577C47.8788 37.3577 48.2061 37.4789 48.4485 37.7213C48.6909 37.9638 48.8242 38.2789 48.8364 38.6183C48.8364 38.9577 48.7151 39.2729 48.4727 39.5153L45.8182 42.2304L42.8 45.3092V45.3213L36.4848 51.7698L35.3454 52.9335L33.6727 54.6426C33.2 55.1274 32.3636 55.1395 31.8788 54.6668C31.6364 54.4244 31.503 54.1092 31.4909 53.7698C31.4909 53.4304 31.6121 53.1153 31.8545 52.8607L40.9818 43.5395C40.9939 43.5274 41.0061 43.5153 41.0061 43.5153ZM50.1091 36.0365C48.7394 34.7032 46.5939 34.6789 45.1758 35.9274C45.3576 35.5153 45.6121 35.1395 45.9394 34.8123L52.9091 27.8547C54.3636 26.388 56.9333 26.388 58.4 27.8547C59.1394 28.5941 59.5515 29.5638 59.5515 30.5941C59.5515 31.6365 59.1515 32.6183 58.4121 33.3456L51.4424 40.3153C51.0667 40.691 50.6303 40.9698 50.1576 41.1638L50.1697 41.1517C50.8485 40.4607 51.2121 39.5517 51.2 38.582C51.1879 37.6244 50.8 36.7153 50.1091 36.0365ZM30.2303 56.3274C30.9091 56.9941 31.8061 57.3577 32.7636 57.3577C33.4545 57.3577 34.1212 57.1517 34.6909 56.788C34.5091 57.1153 34.303 57.4304 34.0364 57.6971L27.0788 64.6547C26.3515 65.382 25.3818 65.782 24.3394 65.782C24.3394 65.782 24.3394 65.782 24.3273 65.782C23.2848 65.782 22.3151 65.3698 21.5879 64.6426C20.0727 63.1274 20.0727 60.6668 21.5879 59.1638L28.5576 52.2062C28.9939 51.7698 29.5394 51.4547 30.1212 51.2729C29.4788 51.9517 29.1273 52.8365 29.1394 53.782C29.1515 54.7517 29.5394 55.6486 30.2303 56.3274ZM39.5515 51.988C39.8909 52.9213 40.0727 53.9153 40.0727 54.9456C40.0727 57.285 39.1636 59.4911 37.503 61.1638L30.5454 68.1214C28.897 69.7698 26.6909 70.6789 24.3394 70.6789C21.9879 70.6789 19.7818 69.7698 18.1333 68.1092C16.4727 66.4486 15.5636 64.2426 15.5636 61.9032C15.5636 59.5638 16.4727 57.3577 18.1333 55.7092L25.103 48.7395C26.7515 47.0789 28.9576 46.1577 31.3091 46.1577C32.4242 46.1577 33.503 46.3638 34.5091 46.7638L32.497 48.8123C32.1091 48.7395 31.7091 48.691 31.297 48.691C29.6364 48.691 28.0727 49.3456 26.897 50.5214L19.9394 57.4789C17.5151 59.9032 17.5151 63.8547 19.9394 66.2789C21.1151 67.4547 22.6788 68.1092 24.3394 68.1092H24.3515C26.0121 68.1092 27.5758 67.4668 28.7515 66.291L35.7091 59.3335C36.8848 58.1577 37.5394 56.5941 37.5394 54.9214C37.5394 54.6304 37.5151 54.3638 37.4788 54.085L38.8606 52.6789L39.5515 51.988ZM61.8667 36.8123L54.9091 43.782C53.2364 45.4426 51.0303 46.3517 48.703 46.3517C47.6242 46.3395 46.5939 46.1577 45.6364 45.7941L47.6727 43.7213C49.6606 44.0607 51.697 43.4062 53.1151 41.988L60.0848 35.0183C61.2606 33.8426 61.9151 32.2668 61.9151 30.6062C61.9151 28.9456 61.2606 27.382 60.0727 26.2062C58.897 25.0304 57.3333 24.3759 55.6727 24.3759C54 24.3759 52.4364 25.0304 51.2606 26.2062L44.2909 33.1759C42.8727 34.6062 42.2424 36.6304 42.5576 38.6062L41.1636 40.0001L40.497 40.6789C39.2727 37.5032 40 33.8426 42.497 31.3577L49.4545 24.388C51.1151 22.7274 53.3212 21.8183 55.6727 21.8183C58.0121 21.8183 60.2182 22.7274 61.8788 24.388C63.5394 26.0486 64.4606 28.2547 64.4606 30.5941C64.4485 32.9335 63.5273 35.1395 61.8667 36.8123Z" fill="#FF7C22"/>
</svg>
