<svg width="468" height="387" viewBox="0 0 468 387" fill="none" xmlns="http://www.w3.org/2000/svg">
<path d="M463.941 343.292C463.941 355.886 365.687 366.095 244.484 366.095C123.281 366.095 25.0273 355.886 25.0273 343.292C25.0273 330.699 123.281 320.49 244.484 320.49C365.687 320.49 463.941 330.699 463.941 343.292Z" fill="#D9E4F5"/>
<path d="M128.542 74.6878C128.542 75.5879 128.119 76.409 127.431 77.0027C126.751 77.6008 125.805 77.9679 124.768 77.9679H43.985C41.91 77.9679 40.21 76.4924 40.21 74.6878C40.21 73.7869 40.633 72.9666 41.321 72.3729C42.001 71.7749 42.947 71.4077 43.984 71.4077H47.802C49.31 68.3663 52.793 66.2406 56.846 66.2406C59.574 66.2406 62.041 67.2049 63.828 68.7604C66.208 65.2572 70.597 62.9041 75.622 62.9041C77.004 62.9041 78.333 63.0855 79.588 63.4144C82.216 59.124 87.412 56.2041 93.4 56.2041C100.592 56.2041 106.642 60.419 108.468 66.1538C109.793 65.5792 111.288 65.2494 112.874 65.2494C117.359 65.2494 121.142 67.8481 122.332 71.4086H124.764C126.842 71.4077 128.542 72.8833 128.542 74.6878Z" fill="#D9E4F5"/>
<path d="M407.402 80.5802C407.402 81.4803 406.979 82.3014 406.291 82.896C405.611 83.494 404.665 83.8603 403.628 83.8603H322.845C320.77 83.8603 319.07 82.3847 319.07 80.5802C319.07 79.6801 319.493 78.859 320.181 78.2653C320.861 77.6672 321.807 77.3001 322.844 77.3001H326.662C328.17 74.2587 331.653 72.1321 335.706 72.1321C338.434 72.1321 340.901 73.0964 342.689 74.6518C345.069 71.1487 349.458 68.7956 354.483 68.7956C355.865 68.7956 357.194 68.977 358.449 69.3059C361.077 65.0164 366.273 62.0947 372.261 62.0947C379.453 62.0947 385.503 66.3097 387.329 72.0444C388.654 71.469 390.149 71.14 391.736 71.14C396.221 71.14 400.004 73.7387 401.194 77.2992H403.626C405.702 77.3001 407.402 78.7756 407.402 80.5802Z" fill="#D9E4F5"/>
<path d="M268.024 94.1007C268.024 95.0008 267.601 95.8219 266.913 96.4165C266.233 97.0145 265.287 97.3808 264.25 97.3808H183.468C181.393 97.3808 179.693 95.9052 179.693 94.1007C179.693 93.2006 180.116 92.3795 180.805 91.7858C181.485 91.1877 182.431 90.8206 183.468 90.8206H187.286C188.794 87.7792 192.277 85.6526 196.33 85.6526C199.058 85.6526 201.525 86.6169 203.313 88.1724C205.693 84.6692 210.082 82.3161 215.107 82.3161C216.489 82.3161 217.818 82.4975 219.073 82.8265C221.701 78.536 226.897 75.6152 232.886 75.6152C240.078 75.6152 246.128 79.8302 247.954 85.5649C249.279 84.9895 250.774 84.6605 252.361 84.6605C256.846 84.6605 260.629 87.2592 261.819 90.8197H264.251C266.324 90.8206 268.024 92.2962 268.024 94.1007Z" fill="#D9E4F5"/>
<path d="M441.588 246.183C433.054 257.899 445.554 256.304 439.346 265.106C433.687 273.128 421.15 268.852 426.049 284.782C427.121 288.267 424.851 291.452 421.062 293.598C414.828 297.127 407.643 296.398 402.493 293.16C402.075 292.899 401.67 292.62 401.281 292.324C397.212 289.247 394.779 284.474 395.798 279.071C396.625 274.688 398.912 270.087 404.374 267.363C417.189 260.971 405.428 246.632 416.891 243.659C430.714 240.071 430.056 235.503 438.456 227.526C447.359 219.07 453.154 230.306 441.588 246.183Z" fill="#C7D9ED"/>
<path d="M435.292 241.927C435.056 242.263 415.45 270.125 402.494 293.16C402.076 292.9 401.671 292.62 401.282 292.324C414.284 269.268 433.767 241.578 434.005 241.242C434.223 240.933 434.688 240.836 435.044 241.026C435.398 241.215 435.509 241.618 435.292 241.927Z" fill="#B4CAE3"/>
<path d="M452.709 277.542C437.74 289.74 453.89 291.248 442.898 300.47C432.877 308.875 418.858 300.047 419.046 321.245C419.087 325.882 415.079 329.213 409.568 330.825C400.499 333.476 391.825 330.559 386.616 325.089C386.192 324.648 385.791 324.187 385.417 323.71C381.493 318.743 380.236 312.122 383.509 305.681C386.164 300.456 390.718 295.369 398.527 293.504C416.85 289.13 407.531 267.994 422.902 267.496C441.44 266.894 442.316 261.024 455.731 253.442C469.951 245.406 472.996 261.012 452.709 277.542Z" fill="#D9E4F5"/>
<path d="M446.449 270.484C446.03 270.836 411.288 300.038 386.615 325.09C386.191 324.649 385.79 324.188 385.416 323.711C410.155 298.645 444.679 269.623 445.1 269.272C445.486 268.948 446.101 268.958 446.474 269.293C446.846 269.627 446.835 270.161 446.449 270.484Z" fill="#C7D9ED"/>
<path d="M44.195 148.11C53.485 159.384 40.901 158.41 47.677 166.89C53.854 174.62 66.09 169.728 62.245 185.876C61.404 189.407 63.88 192.476 67.803 194.43C74.258 197.645 81.384 196.561 86.313 193.074C86.713 192.793 87.1 192.494 87.469 192.18C91.329 188.907 93.445 184.021 92.071 178.677C90.957 174.342 88.372 169.862 82.74 167.413C69.526 161.666 80.325 146.768 68.685 144.367C54.649 141.469 55.005 136.876 46.095 129.329C36.651 121.327 31.604 132.831 44.195 148.11Z" fill="#C7D9ED"/>
<path d="M50.2013 143.548C50.4593 143.872 71.8653 170.717 86.3143 193.072C86.7143 192.792 87.1013 192.493 87.4703 192.178C72.9733 169.804 51.7023 143.123 51.4433 142.8C51.2053 142.502 50.7343 142.428 50.3923 142.635C50.0483 142.842 49.9633 143.251 50.2013 143.548Z" fill="#B4CAE3"/>
<path d="M36.194 184.143C52.331 195.162 36.393 197.887 48.27 206.241C59.096 213.855 72.176 204.001 74.117 225.133C74.542 229.756 78.869 232.77 84.521 233.959C93.822 235.914 102.169 232.352 106.81 226.509C107.188 226.038 107.541 225.548 107.866 225.045C111.276 219.8 111.864 213.109 107.956 206.941C104.786 201.937 99.739 197.212 91.772 195.946C73.08 192.975 80.24 171.214 64.877 171.881C46.35 172.684 44.887 166.902 30.762 160.365C15.79 153.433 14.324 169.21 36.194 184.143Z" fill="#D9E4F5"/>
<path d="M41.7199 176.637C42.1719 176.956 79.7149 203.417 106.81 226.507C107.188 226.036 107.541 225.546 107.866 225.043C80.7039 201.944 43.3959 175.645 42.9419 175.327C42.5249 175.033 41.9139 175.09 41.5759 175.452C41.2379 175.814 41.3029 176.345 41.7199 176.637Z" fill="#C7D9ED"/>
<path d="M366.998 109.907C357.708 121.181 370.292 120.207 363.516 128.687C357.339 136.417 345.103 131.526 348.947 147.673C349.788 151.205 347.312 154.273 343.389 156.228C336.933 159.443 329.807 158.358 324.879 154.871C324.479 154.591 324.092 154.291 323.723 153.977C319.863 150.704 317.748 145.818 319.121 140.475C320.235 136.139 322.82 131.659 328.452 129.21C341.666 123.463 330.868 108.565 342.507 106.164C356.543 103.267 356.187 98.6733 365.097 91.1262C374.542 83.1234 379.589 94.6285 366.998 109.907Z" fill="#C7D9ED"/>
<path d="M360.992 105.346C360.734 105.669 339.328 132.514 324.879 154.87C324.479 154.59 324.092 154.29 323.723 153.976C338.22 131.601 359.491 104.921 359.75 104.597C359.988 104.3 360.459 104.226 360.801 104.433C361.145 104.639 361.23 105.048 360.992 105.346Z" fill="#B4CAE3"/>
<path d="M396.94 125.251C380.803 136.27 396.741 138.995 384.864 147.349C374.038 154.963 360.958 145.109 359.017 166.241C358.592 170.864 354.265 173.878 348.613 175.067C339.312 177.022 330.965 173.46 326.324 167.617C325.946 167.146 325.593 166.657 325.268 166.153C321.858 160.908 321.27 154.217 325.178 148.049C328.348 143.045 333.395 138.32 341.362 137.054C360.054 134.083 352.894 112.323 368.257 112.989C386.784 113.792 388.247 108.01 402.372 101.474C417.344 94.5419 418.81 110.318 396.94 125.251Z" fill="#D9E4F5"/>
<path d="M391.414 117.747C390.962 118.065 353.419 144.527 326.324 167.617C325.946 167.145 325.593 166.656 325.268 166.152C352.43 143.054 389.738 116.755 390.192 116.436C390.609 116.143 391.22 116.199 391.558 116.561C391.895 116.922 391.83 117.453 391.414 117.747Z" fill="#C7D9ED"/>
<path d="M162.587 137.784C156.273 134.031 140.461 143.288 132.192 154.528L139.527 136.691C142.182 134.692 146.829 131.888 154.093 129.654C165.388 126.179 176.709 120.735 170.384 116.976C164.456 113.453 150.157 121.397 141.587 131.682L151.007 108.777C152.76 107.607 155.427 106.186 159.238 105.013C166.357 102.823 173.491 99.3932 169.505 97.0236C166.046 94.9673 158.061 99.1085 152.61 104.88L155.663 97.4558C157.059 95.2989 159.045 92.2176 162.175 89.4062C169.427 82.8937 174.91 75.567 169.317 74.5055C163.719 73.4431 154.557 86.205 153.115 97.7353L151.544 101.555C152.764 93.1689 149.291 83.0152 144.446 82.6558C139.632 82.2982 142.651 88.875 146.563 94.483C149.541 98.7517 150.363 102.139 150.583 103.891L143.162 121.935C145.05 108.648 139.549 92.6272 131.883 92.0587C124.245 91.4919 129.035 101.927 135.242 110.825C139.933 117.549 141.254 122.896 141.615 125.695L132.717 147.332C134.295 134.204 128.884 118.27 121.338 118.218C115.52 118.178 117.301 125.308 124.25 135.373C128.972 142.213 130.483 148.355 130.966 151.589L126.775 161.781C127.477 162.213 128.208 162.438 128.933 162.45L130.601 158.394C132.957 156.416 137.864 153.055 146.296 150.461C157.591 146.986 168.912 141.543 162.587 137.784Z" fill="#D9E4F5"/>
<path d="M82.5929 326.487H86.0929L85.9699 326.394C84.6999 323.772 82.8689 318.583 83.1389 310.822C83.5009 300.425 81.7589 289.294 75.4299 293.048C69.1119 296.796 73.3209 312.943 82.3939 323.706L65.8999 311.307C64.7159 308.435 63.3889 303.66 63.6219 296.973C63.9839 286.577 62.2419 275.446 55.9129 279.2C49.9819 282.719 53.3289 297.165 61.2679 307.825L40.0869 291.904C39.4659 290.062 38.9059 287.389 39.0289 283.881C39.2569 277.328 38.1589 270.313 34.1699 272.679C30.7079 274.733 32.2609 282.693 36.4829 289.195L29.6179 284.034C27.8079 282.123 25.2189 279.399 23.3349 275.849C18.9699 267.623 13.0899 260.531 9.92393 264.671C6.75393 268.815 17.1379 280.852 28.9959 286.197L32.5289 288.852C23.9659 284.825 11.8039 283.955 9.66193 287.744C7.53393 291.509 15.6899 291.45 23.1289 290.318C28.7919 289.456 32.7259 290.018 34.6879 290.475L51.3729 303.017C37.7909 296.675 18.5939 295.319 15.2049 301.314C11.8279 307.288 24.7689 307.194 36.5729 305.397C45.4929 304.04 51.7139 304.909 54.8499 305.631L74.8589 320.671C61.3339 314.637 42.2639 313.239 39.4739 319.325C37.3229 324.017 45.6239 325.16 58.9499 323.186C68.0059 321.844 75.1489 322.849 78.7969 323.63L82.5929 326.487Z" fill="#D9E4F5"/>
<path d="M431.226 117.255C428.59 117.255 426.445 115.393 426.445 113.105C426.445 110.817 428.59 108.955 431.226 108.955C433.863 108.955 436.007 110.817 436.007 113.105C436.007 115.393 433.862 117.255 431.226 117.255ZM431.226 115.953C433.035 115.953 434.507 114.675 434.507 113.105C434.507 111.535 433.035 110.257 431.226 110.257C429.417 110.257 427.945 111.535 427.945 113.105C427.945 114.675 429.417 115.953 431.226 115.953Z" fill="#007EFF"/>
<path d="M436.091 138.348C433.454 138.348 431.31 136.486 431.31 134.198C431.31 131.91 433.455 130.048 436.091 130.048C438.728 130.048 440.872 131.91 440.872 134.198C440.872 136.486 438.728 138.348 436.091 138.348ZM436.091 137.046C437.9 137.046 439.372 135.768 439.372 134.198C439.372 132.628 437.9 131.35 436.091 131.35C434.281 131.35 432.81 132.628 432.81 134.198C432.81 135.768 434.282 137.046 436.091 137.046Z" fill="#0060E6"/>
<path d="M450.634 144.192C450.634 143.833 450.298 143.541 449.884 143.541H446.576C446.162 143.541 445.826 143.833 445.826 144.192C445.826 144.551 446.162 144.843 446.576 144.843H449.884C450.298 144.843 450.634 144.551 450.634 144.192Z" fill="#007EFF"/>
<path d="M456.422 144.192C456.422 143.833 456.086 143.541 455.672 143.541H452.365C451.951 143.541 451.615 143.833 451.615 144.192C451.615 144.551 451.951 144.843 452.365 144.843H455.672C456.086 144.843 456.422 144.551 456.422 144.192Z" fill="#007EFF"/>
<path d="M451.875 148.222V145.643C451.875 145.284 451.539 144.992 451.125 144.992C450.711 144.992 450.375 145.284 450.375 145.643V148.222C450.375 148.581 450.711 148.873 451.125 148.873C451.539 148.873 451.875 148.581 451.875 148.222Z" fill="#007EFF"/>
<path d="M451.875 142.741V140.163C451.875 139.803 451.539 139.512 451.125 139.512C450.711 139.512 450.375 139.803 450.375 140.163V142.741C450.375 143.101 450.711 143.392 451.125 143.392C451.539 143.392 451.875 143.101 451.875 142.741Z" fill="#007EFF"/>
<path d="M445.242 122.026C445.242 121.667 444.906 121.375 444.492 121.375H441.184C440.77 121.375 440.434 121.667 440.434 122.026C440.434 122.385 440.77 122.677 441.184 122.677H444.492C444.906 122.677 445.242 122.385 445.242 122.026Z" fill="#0060E6"/>
<path d="M451.03 122.026C451.03 121.667 450.694 121.375 450.28 121.375H446.973C446.559 121.375 446.223 121.667 446.223 122.026C446.223 122.385 446.559 122.677 446.973 122.677H450.28C450.694 122.677 451.03 122.385 451.03 122.026Z" fill="#0060E6"/>
<path d="M446.481 126.055V123.476C446.481 123.117 446.145 122.825 445.731 122.825C445.317 122.825 444.981 123.117 444.981 123.476V126.055C444.981 126.414 445.317 126.706 445.731 126.706C446.145 126.706 446.481 126.414 446.481 126.055Z" fill="#0060E6"/>
<path d="M446.481 120.574V117.996C446.481 117.636 446.145 117.345 445.731 117.345C445.317 117.345 444.981 117.636 444.981 117.996V120.574C444.981 120.934 445.317 121.225 445.731 121.225C446.145 121.225 446.481 120.934 446.481 120.574Z" fill="#0060E6"/>
<path d="M34.9097 252.651C34.9097 254.939 32.7647 256.801 30.1287 256.801C27.4927 256.801 25.3477 254.939 25.3477 252.651C25.3477 250.363 27.4927 248.501 30.1287 248.501C32.7647 248.5 34.9097 250.362 34.9097 252.651ZM26.8467 252.651C26.8467 254.221 28.3187 255.499 30.1277 255.499C31.9367 255.499 33.4087 254.221 33.4087 252.651C33.4087 251.081 31.9367 249.803 30.1277 249.803C28.3187 249.802 26.8467 251.08 26.8467 252.651Z" fill="#007EFF"/>
<path d="M39.7729 231.558C39.7729 233.846 37.6279 235.708 34.9919 235.708C32.3559 235.708 30.2109 233.846 30.2109 231.558C30.2109 229.27 32.3559 227.408 34.9919 227.408C37.6289 227.407 39.7729 229.269 39.7729 231.558ZM31.7109 231.558C31.7109 233.128 33.1829 234.406 34.9919 234.406C36.8009 234.406 38.2729 233.128 38.2729 231.558C38.2729 229.988 36.8009 228.71 34.9919 228.71C33.1829 228.709 31.7109 229.987 31.7109 231.558Z" fill="#0060E6"/>
<path d="M49.5365 221.563C49.5365 221.922 49.2005 222.214 48.7865 222.214H45.4785C45.0645 222.214 44.7285 221.922 44.7285 221.563C44.7285 221.204 45.0645 220.912 45.4785 220.912H48.7865C49.2005 220.912 49.5365 221.204 49.5365 221.563Z" fill="#007EFF"/>
<path d="M55.3246 221.563C55.3246 221.922 54.9886 222.214 54.5746 222.214H51.2676C50.8536 222.214 50.5176 221.922 50.5176 221.563C50.5176 221.204 50.8536 220.912 51.2676 220.912H54.5746C54.9886 220.912 55.3246 221.204 55.3246 221.563Z" fill="#007EFF"/>
<path d="M50.7764 217.533V220.112C50.7764 220.471 50.4404 220.763 50.0264 220.763C49.6124 220.763 49.2764 220.471 49.2764 220.112V217.533C49.2764 217.173 49.6124 216.882 50.0264 216.882C50.4414 216.882 50.7764 217.173 50.7764 217.533Z" fill="#007EFF"/>
<path d="M50.7764 223.013V225.592C50.7764 225.951 50.4404 226.243 50.0264 226.243C49.6124 226.243 49.2764 225.951 49.2764 225.592V223.013C49.2764 222.654 49.6124 222.362 50.0264 222.362C50.4414 222.362 50.7764 222.654 50.7764 223.013Z" fill="#007EFF"/>
<path d="M44.1429 243.73C44.1429 244.089 43.8069 244.381 43.3929 244.381H40.0859C39.6719 244.381 39.3359 244.089 39.3359 243.73C39.3359 243.371 39.6719 243.079 40.0859 243.079H43.3929C43.8079 243.078 44.1429 243.37 44.1429 243.73Z" fill="#0060E6"/>
<path d="M49.932 243.73C49.932 244.089 49.596 244.381 49.182 244.381H45.875C45.461 244.381 45.125 244.089 45.125 243.73C45.125 243.371 45.461 243.079 45.875 243.079H49.182C49.596 243.078 49.932 243.37 49.932 243.73Z" fill="#0060E6"/>
<path d="M45.3838 239.7V242.279C45.3838 242.638 45.0478 242.93 44.6338 242.93C44.2198 242.93 43.8838 242.638 43.8838 242.279V239.7C43.8838 239.34 44.2198 239.049 44.6338 239.049C45.0478 239.049 45.3838 239.34 45.3838 239.7Z" fill="#0060E6"/>
<path d="M45.3838 245.18V247.759C45.3838 248.118 45.0478 248.41 44.6338 248.41C44.2198 248.41 43.8838 248.118 43.8838 247.759V245.18C43.8838 244.821 44.2198 244.529 44.6338 244.529C45.0478 244.529 45.3838 244.821 45.3838 245.18Z" fill="#0060E6"/>
<path d="M268.455 105.697L268.292 110.642L273.631 110.775C273.861 111.954 274.32 113.102 274.988 114.182L271.205 117.282L275.119 120.88L278.74 117.913C280.159 118.807 281.744 119.425 283.395 119.752L283.241 124.387L288.939 124.528L289.097 119.752C290.219 119.533 291.309 119.183 292.345 118.699L295.917 121.983L300.062 118.586L296.644 115.443C297.674 114.211 298.385 112.836 298.762 111.403L303.429 111.52L303.593 106.573L298.761 106.453C298.44 105.21 297.877 104.007 297.058 102.901L300.68 99.9331L296.766 96.3354L292.982 99.4358C291.582 98.6885 290.052 98.1954 288.474 97.9576L288.629 93.2948L282.931 93.1533L282.763 98.2076C281.572 98.4992 280.422 98.9436 279.348 99.5417L275.93 96.3978L271.785 99.7951L275.356 103.079C274.74 103.948 274.275 104.874 273.958 105.834L268.455 105.697ZM282.681 105.611C284.776 103.894 288.089 103.976 290.067 105.796C292.045 107.614 291.95 110.49 289.855 112.206C287.76 113.923 284.447 113.841 282.469 112.022C280.491 110.203 280.586 107.327 282.681 105.611Z" fill="#007EFF"/>
<path d="M287.153 116.057C291.763 115.627 295.098 112.035 294.602 108.033C294.106 104.032 289.968 101.137 285.358 101.568C280.748 101.998 277.413 105.59 277.909 109.591C278.405 113.592 282.543 116.487 287.153 116.057ZM282.681 105.611C284.776 103.894 288.089 103.976 290.067 105.796C292.045 107.614 291.95 110.49 289.855 112.207C287.76 113.924 284.447 113.841 282.469 112.023C280.491 110.203 280.586 107.328 282.681 105.611Z" fill="#0060E6"/>
<path d="M305.95 107.806L305.855 110.678L308.955 110.755C309.088 111.44 309.355 112.107 309.743 112.733L307.546 114.533L309.819 116.623L311.922 114.9C312.746 115.419 313.666 115.777 314.625 115.967L314.536 118.659L317.845 118.741L317.937 115.967C318.588 115.841 319.222 115.638 319.823 115.356L321.897 117.263L324.304 115.29L322.319 113.466C322.917 112.751 323.33 111.952 323.549 111.12L326.259 111.187L326.354 108.315L323.548 108.245C323.361 107.524 323.035 106.825 322.559 106.183L324.662 104.46L322.39 102.37L320.193 104.171C319.38 103.737 318.492 103.45 317.575 103.312L317.665 100.605L314.356 100.522L314.258 103.458C313.567 103.627 312.899 103.885 312.275 104.233L310.29 102.408L307.883 104.381L309.957 106.288C309.599 106.793 309.329 107.33 309.145 107.887L305.95 107.806ZM314.211 107.755C315.428 106.758 317.352 106.807 318.5 107.862C319.648 108.918 319.593 110.588 318.377 111.585C317.16 112.582 315.236 112.534 314.088 111.478C312.939 110.423 312.994 108.753 314.211 107.755Z" fill="#007EFF"/>
<path d="M316.808 113.822C319.485 113.572 321.422 111.486 321.134 109.162C320.846 106.839 318.443 105.157 315.766 105.407C313.089 105.657 311.152 107.743 311.44 110.067C311.728 112.39 314.131 114.071 316.808 113.822ZM314.211 107.755C315.428 106.758 317.352 106.807 318.5 107.862C319.648 108.918 319.593 110.588 318.377 111.585C317.16 112.582 315.236 112.534 314.088 111.478C312.939 110.423 312.994 108.753 314.211 107.755Z" fill="#0060E6"/>
<path d="M41.4885 217.65L41.4785 217.664H41.4955L41.4885 217.65Z" fill="#0060E6"/>
<path d="M41.48 217.663L41.416 217.739L41.436 217.663H41.48Z" fill="#0060E6"/>
<path d="M409.697 134.132V347.949C409.697 349.93 407.845 351.536 405.562 351.536H68.4973C67.4353 351.536 66.4713 351.19 65.7363 350.619C64.8953 349.962 64.3633 349.009 64.3633 347.948V134.132C64.3633 132.15 66.2133 130.543 68.4963 130.543H405.56C406.921 130.543 408.131 131.116 408.885 131.998C409.395 132.593 409.697 133.332 409.697 134.132Z" fill="#3B3E7D"/>
<path d="M409.697 134.132V347.949C409.697 349.931 407.845 351.536 405.562 351.536H68.4973C67.4353 351.536 66.4713 351.19 65.7363 350.62L408.887 131.997C409.395 132.593 409.697 133.332 409.697 134.132Z" fill="#18285D"/>
<path d="M399.878 143.019V339.06C399.878 341.241 397.838 343.012 395.323 343.012H78.7366C76.2216 343.012 74.1836 341.241 74.1836 339.06V143.019C74.1836 140.836 76.2216 139.065 78.7366 139.065H395.323C397.838 139.065 399.878 140.836 399.878 143.019Z" fill="white"/>
<path d="M399.878 143.019V156.773H74.1836V143.019C74.1836 140.836 76.2216 139.065 78.7366 139.065H395.323C397.838 139.065 399.878 140.836 399.878 143.019Z" fill="#D9E4F5"/>
<path d="M129.39 148.383C129.39 149.681 130.603 150.733 132.098 150.733H369.502C370.998 150.733 372.21 149.68 372.21 148.383C372.21 147.084 370.998 146.032 369.502 146.032H132.098C130.603 146.032 129.39 147.084 129.39 148.383Z" fill="white"/>
<path d="M92.2898 148.382V150.124C92.2898 150.623 91.6668 150.936 91.1688 150.686L89.4318 149.815L87.6938 148.944C87.1958 148.694 87.1958 148.07 87.6938 147.82L89.4318 146.95L91.1688 146.079C91.6668 145.829 92.2898 146.142 92.2898 146.641V148.382Z" fill="#3B3E7D"/>
<path d="M101.332 148.382V150.124C101.332 150.623 101.955 150.936 102.453 150.686L104.191 149.815L105.929 148.944C106.427 148.694 106.427 148.07 105.929 147.82L104.191 146.95L102.454 146.079C101.956 145.829 101.333 146.142 101.333 146.641L101.332 148.382Z" fill="#3B3E7D"/>
<path d="M382.959 172.023V286.126C382.959 290.184 379.168 293.475 374.492 293.475H107.559C102.883 293.475 99.0918 290.183 99.0918 286.126V172.023C99.0918 167.964 102.884 164.674 107.559 164.674H374.492C379.168 164.674 382.959 167.965 382.959 172.023Z" fill="#D9E4F5"/>
<path d="M382.959 172.023V177.379H99.0918V172.023C99.0918 167.964 102.884 164.674 107.559 164.674H374.492C379.168 164.674 382.959 167.965 382.959 172.023Z" fill="#B4CAE3"/>
<path d="M355.691 170.902C355.691 172.278 354.406 173.393 352.821 173.393C351.236 173.393 349.951 172.278 349.951 170.902C349.951 169.526 351.236 168.411 352.821 168.411C354.406 168.411 355.691 169.526 355.691 170.902Z" fill="#3B3E7D"/>
<path d="M364.876 170.902C364.876 172.278 363.591 173.393 362.006 173.393C360.421 173.393 359.136 172.278 359.136 170.902C359.136 169.526 360.421 168.411 362.006 168.411C363.591 168.41 364.876 169.526 364.876 170.902Z" fill="#0060E6"/>
<path d="M374.06 170.902C374.06 172.278 372.775 173.393 371.19 173.393C369.605 173.393 368.32 172.278 368.32 170.902C368.32 169.526 369.605 168.411 371.19 168.411C372.775 168.41 374.06 169.526 374.06 170.902Z" fill="#007EFF"/>
<path d="M176.388 184.64H106.787V227.876H176.388V184.64Z" fill="#007EFF"/>
<path d="M176.387 216.436L173.004 211.49L161.794 195.104L139.375 227.876H176.387V216.436Z" fill="#18285D"/>
<path d="M134.735 227.876H106.787L120.761 208.33L134.735 188.785L148.709 208.33L162.683 227.876H134.735Z" fill="#3B3E7D"/>
<path d="M125.676 201.457L134.736 207.344L143.796 201.457L134.736 188.785L125.676 201.457Z" fill="white"/>
<path d="M154.164 206.258L161.794 211.49L169.425 206.258L161.794 195.104L154.164 206.258Z" fill="white"/>
<path d="M369.14 240.345H299.539V283.582H369.14V240.345Z" fill="#007EFF"/>
<path d="M369.138 272.141L365.755 267.195L354.546 250.809L332.127 283.582H369.138V272.141Z" fill="#18285D"/>
<path d="M327.487 283.582H299.539L313.513 264.036L327.487 244.491L341.46 264.036L355.434 283.582H327.487Z" fill="#3B3E7D"/>
<path d="M318.428 257.163L327.488 263.049L336.547 257.163L327.488 244.491L318.428 257.163Z" fill="white"/>
<path d="M346.915 261.963L354.546 267.195L362.176 261.963L354.546 250.809L346.915 261.963Z" fill="white"/>
<path d="M173.231 238.397H109.944C108.2 238.397 106.787 237.17 106.787 235.657C106.787 234.143 108.201 232.917 109.944 232.917H173.231C174.975 232.917 176.388 234.143 176.388 235.657C176.388 237.17 174.975 238.397 173.231 238.397Z" fill="#B4CAE3"/>
<path d="M173.231 249.76H109.944C108.2 249.76 106.787 248.533 106.787 247.02C106.787 245.506 108.201 244.279 109.944 244.279H173.231C174.975 244.279 176.388 245.506 176.388 247.02C176.388 248.533 174.975 249.76 173.231 249.76Z" fill="#B4CAE3"/>
<path d="M173.231 261.122H109.944C108.2 261.122 106.787 259.896 106.787 258.382C106.787 256.868 108.201 255.642 109.944 255.642H173.231C174.975 255.642 176.388 256.868 176.388 258.382C176.388 259.896 174.975 261.122 173.231 261.122Z" fill="#B4CAE3"/>
<path d="M173.231 272.485H109.944C108.2 272.485 106.787 271.259 106.787 269.745C106.787 268.231 108.201 267.005 109.944 267.005H173.231C174.975 267.005 176.388 268.231 176.388 269.745C176.388 271.259 174.975 272.485 173.231 272.485Z" fill="#B4CAE3"/>
<path d="M173.231 283.848H109.944C108.2 283.848 106.787 282.621 106.787 281.107C106.787 279.594 108.201 278.367 109.944 278.367H173.231C174.975 278.367 176.388 279.594 176.388 281.107C176.388 282.62 174.975 283.848 173.231 283.848Z" fill="#B4CAE3"/>
<path d="M188.434 187.38C188.434 188.894 189.847 190.12 191.591 190.12H283.862C285.606 190.12 287.019 188.894 287.019 187.38C287.019 185.866 285.606 184.64 283.862 184.64H191.591C189.848 184.64 188.434 185.866 188.434 187.38Z" fill="#B4CAE3"/>
<path d="M188.434 199.096C188.434 200.609 189.847 201.836 191.591 201.836H283.862C285.606 201.836 287.019 200.609 287.019 199.096C287.019 197.583 285.606 196.355 283.862 196.355H191.591C189.848 196.355 188.434 197.582 188.434 199.096Z" fill="#B4CAE3"/>
<path d="M188.434 210.812C188.434 212.325 189.847 213.552 191.591 213.552H283.862C285.606 213.552 287.019 212.325 287.019 210.812C287.019 209.298 285.606 208.071 283.862 208.071H191.591C189.848 208.071 188.434 209.298 188.434 210.812Z" fill="#B4CAE3"/>
<path d="M188.434 222.527C188.434 224.041 189.847 225.268 191.591 225.268H283.862C285.606 225.268 287.019 224.041 287.019 222.527C287.019 221.014 285.606 219.787 283.862 219.787H191.591C189.848 219.787 188.434 221.014 188.434 222.527Z" fill="#B4CAE3"/>
<path d="M188.434 234.243C188.434 235.757 189.847 236.983 191.591 236.983H283.862C285.606 236.983 287.019 235.757 287.019 234.243C287.019 232.73 285.606 231.503 283.862 231.503H191.591C189.848 231.503 188.434 232.73 188.434 234.243Z" fill="#B4CAE3"/>
<path d="M188.434 245.959C188.434 247.473 189.847 248.699 191.591 248.699H283.862C285.606 248.699 287.019 247.473 287.019 245.959C287.019 244.445 285.606 243.219 283.862 243.219H191.591C189.848 243.219 188.434 244.445 188.434 245.959Z" fill="#B4CAE3"/>
<path d="M188.434 257.676C188.434 259.19 189.847 260.416 191.591 260.416H283.862C285.606 260.416 287.019 259.19 287.019 257.676C287.019 256.163 285.606 254.936 283.862 254.936H191.591C189.848 254.936 188.434 256.162 188.434 257.676Z" fill="#B4CAE3"/>
<path d="M188.434 269.392C188.434 270.905 189.847 272.132 191.591 272.132H283.862C285.606 272.132 287.019 270.905 287.019 269.392C287.019 267.878 285.606 266.651 283.862 266.651H191.591C189.848 266.651 188.434 267.878 188.434 269.392Z" fill="#B4CAE3"/>
<path d="M188.434 281.107C188.434 282.621 189.847 283.848 191.591 283.848H283.862C285.606 283.848 287.019 282.621 287.019 281.107C287.019 279.595 285.606 278.367 283.862 278.367H191.591C189.848 278.367 188.434 279.594 188.434 281.107Z" fill="#B4CAE3"/>
<path d="M330.43 187.38C330.43 188.894 331.843 190.12 333.587 190.12H365.042C366.785 190.12 368.199 188.894 368.199 187.38C368.199 185.866 366.785 184.64 365.042 184.64H333.587C331.843 184.64 330.43 185.866 330.43 187.38Z" fill="#B4CAE3"/>
<path d="M330.43 199.096C330.43 200.609 331.843 201.836 333.587 201.836H365.042C366.785 201.836 368.199 200.609 368.199 199.096C368.199 197.582 366.785 196.355 365.042 196.355H333.587C331.843 196.355 330.43 197.582 330.43 199.096Z" fill="#B4CAE3"/>
<path d="M330.43 210.812C330.43 212.324 331.843 213.552 333.587 213.552H365.042C366.785 213.552 368.199 212.325 368.199 210.812C368.199 209.298 366.785 208.071 365.042 208.071H333.587C331.843 208.071 330.43 209.298 330.43 210.812Z" fill="#B4CAE3"/>
<path d="M330.43 222.527C330.43 224.041 331.843 225.268 333.587 225.268H365.042C366.785 225.268 368.199 224.041 368.199 222.527C368.199 221.014 366.785 219.787 365.042 219.787H333.587C331.843 219.787 330.43 221.014 330.43 222.527Z" fill="#B4CAE3"/>
<path d="M330.43 234.243C330.43 235.756 331.843 236.983 333.587 236.983H365.042C366.785 236.983 368.199 235.757 368.199 234.243C368.199 232.729 366.785 231.503 365.042 231.503H333.587C331.843 231.503 330.43 232.73 330.43 234.243Z" fill="#B4CAE3"/>
<path d="M312.328 206.841C319.391 206.841 325.117 201.871 325.117 195.74C325.117 189.61 319.391 184.64 312.328 184.64C305.265 184.64 299.539 189.61 299.539 195.74C299.539 201.871 305.265 206.841 312.328 206.841Z" fill="#B4CAE3"/>
<path d="M312.328 235.754C319.391 235.754 325.117 230.784 325.117 224.653C325.117 218.523 319.391 213.553 312.328 213.553C305.265 213.553 299.539 218.523 299.539 224.653C299.539 230.784 305.265 235.754 312.328 235.754Z" fill="#B4CAE3"/>
<path d="M239.796 0V116.407C239.796 116.996 240.347 117.475 241.026 117.475C241.705 117.475 242.256 116.996 242.256 116.407V0H239.796Z" fill="#007EFF"/>
<path d="M252.411 148.101C252.317 153.255 247.494 157.577 241.562 157.812C235.041 158.071 229.64 153.547 229.64 147.943C229.64 147.558 229.677 147.185 229.729 146.819C231.581 147.956 233.439 149.113 235.372 150.148C236.454 152.234 239.027 153.617 241.912 153.27C244.549 152.954 246.706 151.135 247.141 148.857C247.714 145.858 245.4 143.204 242.23 142.659C240.082 142.656 238.342 141.143 238.342 139.278V138.115H242.23C247.998 138.64 252.504 142.933 252.411 148.101Z" fill="#18285D"/>
<path d="M241.025 166.235C240.346 166.235 239.795 165.757 239.795 165.168V153.322C239.795 152.733 240.346 152.255 241.025 152.255C241.704 152.255 242.255 152.733 242.255 153.322V165.168C242.254 165.757 241.704 166.235 241.025 166.235Z" fill="#00A0FF"/>
<path d="M247.783 132.65H234.453V121.673C234.453 119.393 236.583 117.545 239.209 117.545H243.027C245.654 117.545 247.783 119.393 247.783 121.673V132.65Z" fill="#0060E6"/>
<path d="M247.783 132.65C249.307 136.391 246.274 138.918 244.347 138.918H238.341C235.493 138.918 233.485 135.785 234.453 132.65H247.783Z" fill="#007EFF"/>
<path d="M148.366 380.205C148.366 383.581 115.153 386.319 74.183 386.319C33.213 386.319 0 383.581 0 380.205C0 376.828 33.213 374.091 74.183 374.091C115.154 374.091 148.366 376.828 148.366 380.205Z" fill="#D9E4F5"/>
<path d="M12.5156 380.204H128.567V259.624L17.7566 374.759L12.5156 380.204ZM111.158 365.094H49.7396L111.158 301.279V365.094Z" fill="#007EFF"/>
<path d="M126.974 283.028H121.058V284.213H126.974V283.028Z" fill="#3B3E7D"/>
<path d="M126.974 289.887H121.058V291.072H126.974V289.887Z" fill="#3B3E7D"/>
<path d="M126.974 296.747H121.058V297.932H126.974V296.747Z" fill="#3B3E7D"/>
<path d="M126.974 303.607H121.058V304.792H126.974V303.607Z" fill="#3B3E7D"/>
<path d="M126.974 310.467H121.058V311.652H126.974V310.467Z" fill="#3B3E7D"/>
<path d="M126.974 317.326H121.058V318.511H126.974V317.326Z" fill="#3B3E7D"/>
<path d="M126.974 324.187H121.058V325.371H126.974V324.187Z" fill="#3B3E7D"/>
<path d="M126.974 331.045H121.058V332.23H126.974V331.045Z" fill="#3B3E7D"/>
<path d="M126.974 337.905H121.058V339.09H126.974V337.905Z" fill="#3B3E7D"/>
<path d="M126.974 344.766H121.058V345.95H126.974V344.766Z" fill="#3B3E7D"/>
<path d="M126.974 351.624H121.058V352.809H126.974V351.624Z" fill="#3B3E7D"/>
<path d="M126.974 358.484H121.058V359.669H126.974V358.484Z" fill="#3B3E7D"/>
<path d="M126.974 365.345H121.058V366.53H126.974V365.345Z" fill="#3B3E7D"/>
<path d="M126.974 372.204H121.058V373.389H126.974V372.204Z" fill="#3B3E7D"/>
<path d="M12.5156 380.205H128.567V374.76H17.7566L12.5156 380.205Z" fill="#0060E6"/>
<path d="M432.062 379.777C432.062 381.696 414.664 383.253 393.202 383.253C371.74 383.253 354.342 381.696 354.342 379.777C354.342 377.857 371.74 376.302 393.202 376.302C414.664 376.302 432.062 377.857 432.062 379.777Z" fill="#D9E4F5"/>
<path d="M365.328 365.16L364.929 371.405L370.767 371.516L371.481 364.955L365.328 365.16Z" fill="#FB9A83"/>
<path d="M367.245 370.527C367.245 370.527 370.25 369.936 371.072 369.978C371.894 370.019 377.171 375.549 379.012 375.925C382.352 376.607 382.157 381.168 380.099 381.327C374.148 381.787 364.111 379.282 364.111 379.282C364.111 379.282 363.433 373.4 363.919 371.577C364.406 369.753 365.567 371.012 367.245 370.527Z" fill="#007EFF"/>
<path d="M371.931 375.684C371.824 375.7 371.711 375.681 371.616 375.621C371.433 375.505 371.393 375.283 371.526 375.124C371.57 375.071 372.633 373.816 373.898 373.409C375.581 372.866 376.722 373.767 376.77 373.807C376.936 373.94 376.945 374.166 376.79 374.31C376.636 374.454 376.376 374.462 376.21 374.327C376.179 374.303 375.382 373.692 374.184 374.076C373.153 374.408 372.2 375.531 372.19 375.543C372.125 375.621 372.031 375.668 371.931 375.684Z" fill="#FCFBFF"/>
<path d="M370.842 374.569C370.736 374.585 370.622 374.566 370.527 374.506C370.344 374.391 370.303 374.168 370.437 374.009C370.481 373.956 371.544 372.701 372.809 372.294C374.493 371.75 375.633 372.652 375.681 372.691C375.847 372.825 375.856 373.051 375.701 373.195C375.547 373.339 375.287 373.347 375.121 373.212C375.09 373.188 374.293 372.577 373.095 372.961C372.06 373.295 371.111 374.416 371.101 374.427C371.036 374.505 370.943 374.553 370.842 374.569Z" fill="#FCFBFF"/>
<path d="M373.474 376.654C373.368 376.67 373.254 376.651 373.159 376.591C372.976 376.476 372.935 376.253 373.069 376.093C373.114 376.04 374.176 374.786 375.441 374.378C377.125 373.834 378.265 374.737 378.313 374.776C378.479 374.909 378.488 375.135 378.333 375.279C378.179 375.423 377.919 375.431 377.753 375.296C377.722 375.272 376.924 374.661 375.727 375.046C374.692 375.379 373.743 376.5 373.733 376.512C373.668 376.591 373.574 376.638 373.474 376.654Z" fill="#FCFBFF"/>
<path d="M386.795 289.057C386.795 289.057 386.674 290.524 386.453 292.956C386.396 293.6 386.332 294.311 386.26 295.085C385.504 303.248 384.043 318.009 382.445 328.48C380.206 343.16 373.154 367.284 373.154 367.284L365.874 367.067L365.154 367.042L363.428 366.992C363.428 366.992 364.64 351.731 366.187 338.48C367.207 329.741 367.813 309.064 368.105 296.006C368.255 289.272 368.326 284.562 368.326 284.562L386.795 289.057Z" fill="#3B3E7D"/>
<path d="M386.794 289.057C386.794 289.057 386.673 290.524 386.452 292.956C386.395 293.6 386.331 294.311 386.259 295.085C382.901 295.63 373.667 296.007 368.106 296.007C368.256 289.273 368.327 284.563 368.327 284.563L386.794 289.057Z" fill="#18285D"/>
<path d="M372.25 292.85C372.243 293.351 371.573 340.925 365.876 367.067L365.156 367.042C370.86 340.98 371.53 293.339 371.538 292.844L372.25 292.85Z" fill="#18285D"/>
<path d="M410.983 366.36L410.744 371.993L404.81 371.721L404.676 365.738L410.983 366.36Z" fill="#FB9A83"/>
<path d="M409.231 371.734C409.231 371.734 410.524 370.272 411.53 370.349C412.536 370.425 420.212 375.885 422.865 376.361C425.519 376.838 424.973 378.532 424.47 379.395C423.968 380.257 403.248 378.795 403.248 378.795C403.248 378.795 402.77 373.429 403.475 371.799C404.181 370.168 407.143 372.095 409.231 371.734Z" fill="#007EFF"/>
<path d="M413.461 375.53C413.367 375.554 413.262 375.544 413.17 375.497C412.993 375.406 412.934 375.208 413.038 375.055C413.073 375.003 413.906 373.788 415.009 373.324C416.475 372.704 417.598 373.433 417.645 373.465C417.809 373.573 417.839 373.776 417.714 373.918C417.589 374.06 417.355 374.087 417.191 373.978C417.16 373.958 416.379 373.466 415.334 373.906C414.436 374.284 413.687 375.372 413.68 375.383C413.63 375.458 413.55 375.509 413.461 375.53Z" fill="#FCFBFF"/>
<path d="M412.365 374.605C412.271 374.628 412.166 374.619 412.074 374.573C411.897 374.481 411.837 374.284 411.942 374.129C411.977 374.078 412.81 372.863 413.912 372.398C415.379 371.779 416.501 372.508 416.548 372.539C416.711 372.647 416.742 372.85 416.617 372.993C416.492 373.134 416.258 373.162 416.094 373.053C416.063 373.033 415.281 372.542 414.237 372.981C413.335 373.361 412.591 374.447 412.583 374.458C412.534 374.532 412.454 374.583 412.365 374.605Z" fill="#FCFBFF"/>
<path d="M414.954 376.288C414.859 376.312 414.754 376.303 414.663 376.256C414.486 376.165 414.426 375.967 414.531 375.814C414.566 375.762 415.399 374.547 416.501 374.083C417.968 373.463 419.09 374.192 419.137 374.223C419.3 374.332 419.331 374.535 419.206 374.677C419.081 374.818 418.847 374.846 418.683 374.736C418.652 374.717 417.87 374.225 416.826 374.664C415.924 375.045 415.179 376.13 415.172 376.142C415.123 376.216 415.043 376.267 414.954 376.288Z" fill="#FCFBFF"/>
<path d="M412.063 367.829L406.031 367.439L405.312 367.396L403.847 367.3C403.847 367.3 400.142 336.693 398.99 328.54C397.988 321.457 393.31 305.542 390.274 295.641C389.413 292.83 388.684 290.503 388.204 289C387.838 287.818 387.621 287.146 387.621 287.146L407.784 285.452C407.784 285.452 407.84 285.837 407.933 286.528C408.129 287.945 408.506 290.657 408.962 294.068C410.221 303.35 412.136 317.795 412.878 325.148C414.781 344.081 412.063 367.829 412.063 367.829Z" fill="#3B3E7D"/>
<path d="M408.962 294.068L390.274 295.64C389.413 292.83 388.684 290.503 388.204 289L407.933 286.528C408.13 287.944 408.507 290.657 408.962 294.068Z" fill="#18285D"/>
<path d="M406.032 367.439L405.313 367.396C404.963 357.931 403.893 334.292 401.708 324.271C398.962 311.639 392.648 293.245 392.583 293.059L393.27 292.882C393.335 293.068 399.659 311.494 402.409 324.157C404.608 334.242 405.687 357.994 406.032 367.439Z" fill="#18285D"/>
<path d="M411.049 286.803C396.029 290.956 380.761 291.746 365.241 289.206C364.942 285.539 364.159 273.5 363.566 260.813C363.546 260.392 363.526 259.971 363.507 259.55C363.493 259.213 363.478 258.875 363.462 258.536C363.45 258.293 363.439 258.047 363.429 257.802C363.423 257.691 363.419 257.579 363.415 257.468C363.399 257.137 363.388 256.799 363.373 256.469C363.359 256.193 363.344 255.916 363.334 255.64C363.333 255.602 363.33 255.563 363.33 255.526C363.329 255.491 363.327 255.458 363.326 255.423C363.311 255.132 363.302 254.84 363.289 254.553C363.287 254.496 363.283 254.44 363.281 254.384C363.269 254.035 363.252 253.686 363.241 253.339C363.23 253.099 363.22 252.863 363.209 252.627C363.206 252.531 363.203 252.436 363.198 252.34C363.183 252.073 363.173 251.805 363.166 251.541C363.162 251.461 363.16 251.38 363.158 251.3C363.15 251.056 363.142 250.812 363.134 250.566C363.13 250.463 363.129 250.358 363.125 250.254C363.113 249.905 363.095 249.558 363.091 249.215C363.075 248.878 363.064 248.546 363.056 248.215C363.046 247.994 363.038 247.774 363.03 247.554C363.013 247.075 363 246.6 362.989 246.13C362.668 235.262 362.706 226.345 363.604 225.124C365.689 222.296 375.776 217.744 378.82 215.638L378.85 216.073C378.85 216.073 380.999 218.254 383.229 217.966C385.254 217.71 386.669 215.583 386.906 215.197C388.557 216.083 392.318 217.455 395.976 218.94C399.633 220.419 403.184 222.001 404.415 223.298C405.469 224.416 406.647 233.111 407.72 243.784L407.722 243.819C407.741 244.018 407.762 244.217 407.782 244.416L407.784 244.446C407.795 244.599 407.813 244.753 407.831 244.913C407.84 245.01 407.848 245.105 407.859 245.204C407.88 245.422 407.904 245.643 407.923 245.864C407.953 246.193 407.989 246.524 408.019 246.86C408.048 247.202 408.08 247.549 408.117 247.896C408.126 247.999 408.135 248.103 408.146 248.206C408.168 248.451 408.191 248.694 408.217 248.938C408.224 249.017 408.23 249.097 408.237 249.177C408.261 249.44 408.285 249.708 408.309 249.975L408.334 250.261C408.354 250.496 408.376 250.732 408.398 250.971C408.427 251.318 408.459 251.666 408.49 252.014C408.494 252.068 408.5 252.125 408.505 252.181C408.529 252.468 408.554 252.759 408.58 253.049C408.582 253.084 408.586 253.116 408.589 253.151C408.592 253.188 408.596 253.227 408.599 253.265C408.625 253.541 408.648 253.817 408.673 254.093C408.703 254.421 408.733 254.752 408.757 255.09C408.767 255.201 408.776 255.313 408.786 255.424C408.809 255.669 408.829 255.913 408.85 256.156C408.879 256.492 408.908 256.83 408.935 257.169C408.97 257.589 409.004 258.009 409.039 258.429C410.074 271.054 410.849 283.098 411.049 286.803Z" fill="#00A0FF"/>
<path d="M408.144 248.204L363.133 250.565C363.129 250.461 363.128 250.357 363.124 250.253C363.112 249.904 363.094 249.557 363.09 249.214C363.074 248.876 363.063 248.545 363.055 248.214C363.045 247.993 363.037 247.772 363.029 247.553L407.857 245.202C407.878 245.42 407.902 245.64 407.921 245.862C407.951 246.191 407.987 246.521 408.017 246.858C408.046 247.2 408.078 247.547 408.115 247.894C408.124 247.998 408.133 248.101 408.144 248.204Z" fill="#007EFF"/>
<path d="M408.598 253.265L363.332 255.639C363.331 255.6 363.328 255.561 363.328 255.524C363.327 255.489 363.325 255.456 363.324 255.422C363.309 255.131 363.3 254.838 363.287 254.551C363.285 254.495 363.281 254.438 363.279 254.383C363.267 254.034 363.25 253.685 363.239 253.338C363.228 253.097 363.218 252.862 363.207 252.626L408.332 250.26C408.352 250.495 408.374 250.73 408.396 250.97C408.425 251.316 408.457 251.664 408.488 252.012C408.492 252.067 408.498 252.123 408.503 252.18C408.527 252.466 408.552 252.758 408.578 253.048C408.58 253.082 408.584 253.115 408.587 253.149C408.591 253.188 408.595 253.227 408.598 253.265Z" fill="#007EFF"/>
<path d="M409.037 258.429L363.565 260.813C363.545 260.392 363.525 259.971 363.506 259.55C363.492 259.213 363.477 258.875 363.461 258.536C363.449 258.293 363.438 258.047 363.428 257.802L408.784 255.424C408.807 255.669 408.827 255.912 408.848 256.156C408.877 256.492 408.906 256.83 408.933 257.168C408.968 257.589 409.003 258.009 409.037 258.429Z" fill="#007EFF"/>
<path d="M402.731 238.484C404.151 239.956 406.31 243.345 407.283 244.912C407.416 245.127 407.526 245.309 407.61 245.445C407.72 245.625 407.782 245.73 407.787 245.736C407.819 245.79 407.865 245.832 407.921 245.86C407.891 245.541 407.86 245.224 407.828 244.908C407.814 244.752 407.797 244.595 407.782 244.441L407.78 244.416C407.581 244.097 407.346 243.722 407.083 243.31C405.982 241.591 404.42 239.277 403.275 238.09C403.15 237.958 402.925 237.943 402.775 238.051C402.624 238.161 402.607 238.355 402.731 238.484Z" fill="#007EFF"/>
<path d="M372.627 228.072C372.631 228.072 372.636 228.072 372.639 228.071C378.702 227.585 383.236 225.145 385.972 223.185C388.936 221.061 390.447 219.078 390.51 218.995C390.617 218.853 390.57 218.662 390.407 218.569C390.243 218.476 390.023 218.515 389.916 218.657C389.857 218.736 383.824 226.555 372.574 227.458C372.379 227.474 372.234 227.624 372.252 227.793C372.27 227.958 372.437 228.081 372.627 228.072Z" fill="#007EFF"/>
<path d="M398.833 280.16C399.018 280.151 399.165 280.018 399.166 279.855C399.167 279.685 399.008 279.546 398.812 279.545C388.807 279.501 382.557 275.429 379.076 272.021C375.291 268.316 373.861 264.568 373.847 264.531C373.786 264.369 373.586 264.28 373.399 264.333C373.213 264.385 373.111 264.558 373.171 264.721C373.23 264.878 374.652 268.61 378.525 272.411C382.103 275.921 388.527 280.116 398.808 280.162C398.816 280.161 398.825 280.161 398.833 280.16Z" fill="#007EFF"/>
<path d="M390.383 275.01C390.539 275.002 390.676 274.904 390.709 274.764C390.749 274.597 390.625 274.435 390.433 274.4C381.631 272.822 379.523 266.632 379.503 266.57C379.45 266.407 379.253 266.311 379.066 266.358C378.878 266.404 378.768 266.573 378.82 266.737C378.842 266.805 379.375 268.421 381.059 270.256C382.608 271.945 385.468 274.139 390.29 275.004C390.321 275.009 390.353 275.011 390.383 275.01Z" fill="#007EFF"/>
<path d="M367.361 239.331C366.157 240.939 364.482 244.529 363.734 246.188C363.633 246.415 363.548 246.606 363.484 246.751C363.399 246.94 363.352 247.052 363.349 247.059C363.299 247.177 363.174 247.252 363.038 247.259H363.031C363.024 247.102 363.018 246.945 363.013 246.789C362.908 246.795 362.804 246.801 362.703 246.802C362.745 246.71 362.844 246.482 362.987 246.162C363.167 245.759 363.416 245.206 363.711 244.577C364.565 242.754 365.796 240.293 366.766 238.996C366.873 238.853 367.093 238.813 367.257 238.906C367.421 238.998 367.466 239.189 367.361 239.331Z" fill="#007EFF"/>
<path d="M370.576 199.81C370.969 205.458 375.246 209.14 381.752 208.799C388.259 208.458 392.502 204.035 392.109 198.387C391.716 192.739 387.565 188.663 381.059 189.004C373.255 189.413 370.183 194.162 370.576 199.81Z" fill="#021147"/>
<path d="M372.208 202.165C372.208 202.165 370.255 200.168 369.031 201.968C367.807 203.768 370.063 208.778 373.267 207.359L372.208 202.165Z" fill="#FF6D6B"/>
<path d="M372.438 205.817C372.316 205.823 372.2 205.76 372.158 205.655C371.538 204.104 369.611 203.563 369.592 203.558C369.445 203.518 369.363 203.383 369.409 203.255C369.455 203.127 369.611 203.056 369.757 203.096C369.847 203.12 371.971 203.711 372.685 205.496C372.735 205.622 372.658 205.76 372.513 205.804C372.488 205.812 372.463 205.816 372.438 205.817Z" fill="#ED495C"/>
<path d="M370.483 205.122C370.431 205.125 370.378 205.115 370.33 205.092C370.196 205.027 370.148 204.879 370.224 204.762C370.236 204.743 370.539 204.285 371.217 203.978C371.352 203.916 371.522 203.962 371.593 204.08C371.664 204.198 371.611 204.345 371.475 204.406C370.951 204.644 370.712 204.997 370.71 205C370.661 205.074 370.574 205.118 370.483 205.122Z" fill="#ED495C"/>
<path d="M390.837 201.188C390.837 201.188 392.499 199 393.964 200.66C395.429 202.32 393.884 207.529 390.506 206.454L390.837 201.188Z" fill="#FF6D6B"/>
<path d="M391.115 204.838C391.236 204.832 391.343 204.756 391.37 204.648C391.77 203.044 393.609 202.305 393.627 202.298C393.767 202.243 393.83 202.1 393.766 201.979C393.703 201.857 393.538 201.802 393.398 201.857C393.312 201.891 391.286 202.698 390.825 204.546C390.792 204.676 390.888 204.806 391.038 204.833C391.064 204.837 391.09 204.839 391.115 204.838Z" fill="#ED495C"/>
<path d="M392.959 203.943C393.01 203.94 393.062 203.925 393.107 203.897C393.231 203.818 393.258 203.667 393.167 203.559C393.152 203.541 392.788 203.118 392.072 202.884C391.929 202.836 391.767 202.9 391.713 203.026C391.659 203.151 391.731 203.29 391.875 203.337C392.428 203.519 392.714 203.843 392.717 203.847C392.775 203.913 392.868 203.948 392.959 203.943Z" fill="#ED495C"/>
<path d="M386.639 211.007L386.993 216.088C386.993 216.088 385.427 218.767 383.079 219.067C380.733 219.369 378.469 217.072 378.469 217.072L378.103 211.812L386.639 211.007Z" fill="#FB9A83"/>
<path d="M386.639 211.007L386.796 213.261C385.318 214.87 382.531 215.399 378.33 215.084L378.102 211.812L386.639 211.007Z" fill="#FF6D6B"/>
<path d="M371.241 202.12C371.285 202.413 371.334 202.709 371.389 203.009C371.529 203.76 371.701 204.532 371.915 205.297C371.923 205.325 371.929 205.35 371.936 205.375C372.983 209.081 375.007 212.671 378.898 213.653C387.713 215.874 390.346 209.291 391.318 205.483C391.425 205.06 391.516 204.592 391.59 204.093C391.593 204.074 391.595 204.053 391.6 204.029C391.681 203.469 391.744 202.873 391.789 202.26C391.824 201.806 391.848 201.346 391.865 200.884C391.913 199.759 391.916 198.632 391.901 197.633C391.868 195.351 390.152 193.34 387.64 192.652C384.019 191.656 378.581 191.003 373.664 193.776C371.847 194.799 370.787 196.575 370.876 198.453C370.925 199.489 371.032 200.759 371.241 202.12Z" fill="#FB9A83"/>
<path d="M378.126 202.258C378.164 202.8 377.872 203.257 377.475 203.277C377.078 203.298 376.725 202.876 376.687 202.333C376.649 201.791 376.941 201.334 377.338 201.313C377.735 201.292 378.088 201.715 378.126 202.258Z" fill="#021147"/>
<path d="M386.948 201.795C386.986 202.337 386.694 202.794 386.297 202.815C385.9 202.835 385.547 202.413 385.509 201.87C385.471 201.328 385.763 200.871 386.16 200.85C386.558 200.83 386.91 201.252 386.948 201.795Z" fill="#021147"/>
<path d="M387.96 198.389C387.96 198.389 385.636 197.729 383.934 198.477L384.168 199.311C384.168 199.311 386.72 198.988 388.044 199.375C388.136 199.043 388.13 198.714 387.96 198.389Z" fill="#021147"/>
<path d="M374.499 199.094C374.499 199.094 376.715 198.197 378.508 198.76L378.392 199.612C378.392 199.612 375.814 199.559 374.553 200.081C374.414 199.763 374.374 199.435 374.499 199.094Z" fill="#021147"/>
<path d="M382.122 206.218C381.66 206.292 381.168 206.21 381.092 206.196C380.941 206.168 380.845 206.041 380.877 205.91C380.908 205.78 381.056 205.696 381.206 205.723C381.472 205.771 382.095 205.812 382.324 205.637C382.368 205.603 382.425 205.541 382.412 205.394C382.335 204.548 381.483 201.806 381.474 201.778C381.434 201.649 381.522 201.516 381.67 201.481C381.819 201.446 381.971 201.523 382.012 201.651C382.048 201.766 382.887 204.464 382.968 205.356C382.998 205.691 382.835 205.891 382.693 206C382.536 206.119 382.332 206.185 382.122 206.218Z" fill="#FF6D6B"/>
<path d="M378.42 207.866C378.716 208.847 379.599 210.633 382.144 210.499C384.695 210.366 385.294 208.659 385.46 207.496L378.42 207.866Z" fill="#FCFBFF"/>
<path d="M391.854 201.177L390.594 201.243C390.657 200.137 390.104 198.834 389.663 197.97C388.662 196.009 390.434 195.029 388.881 194.102C387.329 193.173 383.669 193.798 381.098 193.861C378.511 193.924 374.364 194.173 373.371 194.428C372.375 194.682 373.03 196.108 373.478 197.215C373.929 198.32 372.406 199.651 372.217 200.831C372.163 201.17 372.214 201.666 372.313 202.202L371.262 202.258C371.038 200.845 370.928 199.525 370.876 198.453C370.787 196.576 371.847 194.8 373.663 193.776C378.581 191.003 384.019 191.656 387.639 192.651C390.152 193.34 391.869 195.351 391.902 197.634C391.918 198.718 391.912 199.954 391.854 201.177Z" fill="#021147"/>
<path d="M382.949 202.388C382.839 200.803 384.235 199.435 386.062 199.338C387.889 199.243 389.465 200.455 389.576 202.04C389.686 203.626 388.29 204.995 386.463 205.09C384.635 205.187 383.059 203.974 382.949 202.388ZM383.465 202.361C383.558 203.7 384.889 204.723 386.431 204.643C387.973 204.562 389.152 203.407 389.059 202.068C388.966 200.73 387.635 199.706 386.093 199.787C384.551 199.868 383.372 201.023 383.465 202.361Z" fill="#FCFBFF"/>
<path d="M373.891 202.863C373.781 201.277 375.177 199.908 377.004 199.813C378.831 199.717 380.408 200.929 380.518 202.515C380.628 204.101 379.232 205.47 377.405 205.565C375.578 205.661 374.002 204.45 373.891 202.863ZM374.408 202.836C374.501 204.175 375.832 205.198 377.374 205.117C378.916 205.036 380.095 203.881 380.002 202.543C379.909 201.204 378.578 200.181 377.036 200.262C375.494 200.342 374.315 201.498 374.408 202.836Z" fill="#FCFBFF"/>
<path d="M388.951 201.143C389.017 201.14 389.081 201.115 389.128 201.069C389.142 201.055 390.559 199.708 392.562 200.004C392.703 200.025 392.837 199.943 392.861 199.82C392.885 199.698 392.79 199.582 392.649 199.561C390.359 199.222 388.807 200.705 388.742 200.768C388.647 200.861 388.656 201.003 388.763 201.085C388.817 201.129 388.885 201.147 388.951 201.143Z" fill="#FCFBFF"/>
<path d="M374.326 201.911C374.41 201.907 374.491 201.867 374.535 201.798C374.606 201.69 374.563 201.553 374.438 201.492C374.335 201.44 371.899 200.25 369.924 200.641C369.785 200.669 369.697 200.789 369.729 200.91C369.761 201.031 369.898 201.106 370.039 201.079C371.817 200.729 374.158 201.871 374.182 201.882C374.228 201.904 374.277 201.914 374.326 201.911Z" fill="#FCFBFF"/>
<path d="M380.292 201.879C380.297 201.872 380.861 201.12 381.668 201.077C382.467 201.036 383.072 201.726 383.077 201.733L383.492 201.465C383.461 201.428 382.716 200.572 381.635 200.629C380.561 200.685 379.883 201.6 379.854 201.639L380.292 201.879Z" fill="#FCFBFF"/>
<path d="M366.188 283.857L363.258 287.329C363.258 287.329 361.561 286.407 359.258 284.804C359.251 284.798 359.251 284.798 359.244 284.792C355.736 282.36 350.823 278.356 348.313 273.646C345.176 267.76 346.096 262.995 346.096 262.995C346.51 259.505 349.205 252.411 351.351 247.145C352.135 245.233 352.848 243.568 353.347 242.398L359.9 243.704L362.702 245.201L361.625 247.671L354.395 264.319C355.03 269.202 357.882 274.004 360.627 277.619C363.465 281.369 366.188 283.857 366.188 283.857Z" fill="#FB9A83"/>
<path d="M366.189 283.857L363.259 287.329C363.259 287.329 361.562 286.407 359.259 284.804C359.252 284.798 359.252 284.798 359.245 284.792C358.739 282.168 359.045 278.461 360.628 277.619C363.466 281.37 366.189 283.857 366.189 283.857Z" fill="#FF6D6B"/>
<path d="M364.624 279.851C365.214 279.885 368.358 280.02 368.018 279.086C367.643 278.056 364.557 276.85 364.557 276.85C364.557 276.85 364.539 276.797 364.569 276.729L364.536 276.509L364.4 274.295C363.804 274.299 363.256 274.4 362.96 274.479C361.608 274.843 361.793 277.527 361.793 277.527C361.793 277.527 360.087 278.056 360.15 279.141C360.212 280.225 361.586 280.387 361.586 280.387C361.586 280.387 359.709 281.201 360.148 282.122C360.587 283.043 362.009 283.314 362.009 283.314C362.009 283.314 360.399 284.236 360.961 284.886C361.523 285.536 362.835 285.862 362.835 285.862C362.835 285.862 361.712 287.181 362.853 287.901C363.994 288.62 365.673 288.464 366.752 288.138C367.831 287.813 367.644 286.62 365.52 285.753C365.52 285.753 367.394 285.915 368.33 284.561C369.111 283.43 367.118 282.943 365.419 282.748C366.755 282.826 369.059 282.793 369.455 281.688C369.973 280.238 365.346 279.895 364.624 279.851Z" fill="#FB9A83"/>
<path d="M362.703 245.201L361.626 247.67C359.451 247.788 355.558 247.844 351.351 247.144C352.135 245.232 352.848 243.568 353.347 242.397L359.9 243.703L362.703 245.201Z" fill="#FF6D6B"/>
<path d="M363.604 225.124C363.604 225.124 355.628 232.07 349.805 244.183C354.369 245.464 358.689 246.371 362.701 246.804C363.23 245.996 365.323 240.816 366.899 237.079L363.604 225.124Z" fill="#00A0FF"/>
<path d="M426.25 264.51C426.208 264.532 426.166 264.555 426.125 264.578C423.757 265.92 420.571 265.104 419.42 262.86L412.863 252.28L410.831 248.641L409.537 246.325L408.371 244.235L407.306 242.329C407.166 241.718 407.028 241.075 406.893 240.411L410.149 233.057L411.617 232.137C411.617 232.137 413.405 235.473 415.857 239.568C416.231 240.191 416.619 240.831 417.02 241.482C417.224 241.816 417.433 242.148 417.642 242.484C418.131 243.265 418.633 244.051 419.142 244.828C419.678 245.643 420.212 246.455 420.726 247.243C421.09 247.798 421.447 248.34 421.789 248.868C421.998 249.184 422.202 249.498 422.399 249.801C424.015 252.275 425.289 254.246 425.768 255.023L426.609 254.97C426.612 254.967 430.331 262.132 426.25 264.51Z" fill="#FB9A83"/>
<path d="M417.644 242.483L410.831 248.64L409.537 246.324L408.371 244.234L415.858 239.567C416.232 240.191 416.62 240.831 417.021 241.482C417.226 241.815 417.435 242.148 417.644 242.483Z" fill="#FF6D6B"/>
<path d="M422.329 258.154C422.329 258.154 421.457 249.553 423.237 247.467C425.018 245.382 426.81 244.441 428.786 244.245C430.761 244.05 432.646 244.021 432.647 244.738C432.647 244.738 437.057 243.556 439.248 244.308C441.439 245.06 433.61 246.992 431.249 247.354C428.888 247.717 427.836 249.031 427.952 250.269C428.069 251.508 428.109 259.807 428.109 259.807L422.329 258.154Z" fill="#FB9A83"/>
<path d="M421.67 258.062C421.689 258.062 421.705 258.06 421.724 258.058C421.893 258.037 422.023 257.912 422.024 257.76C422.052 254.13 422.212 251.373 422.368 249.746C422.171 249.442 422.02 249.141 421.814 248.824C421.653 250.261 421.357 253.355 421.322 257.755C421.321 257.922 421.476 258.06 421.67 258.062Z" fill="#FF6D6B"/>
<path d="M417.987 247.216L447.93 243.483C449.056 243.342 449.838 242.436 449.676 241.459L449.673 241.443C449.511 240.466 448.467 239.787 447.341 239.928L417.398 243.661C416.272 243.801 415.49 244.708 415.652 245.685L415.654 245.701C415.817 246.678 416.861 247.357 417.987 247.216Z" fill="#18285D"/>
<path d="M449.962 243.23L452.917 221.646C453.083 220.433 451.88 219.414 450.487 219.588L436.416 221.342C435.467 221.46 434.724 222.112 434.598 222.938L431.157 245.574L449.962 243.23Z" fill="#3B3E7D"/>
<path d="M434.598 222.937L431.186 245.387L429.578 245.588L432.99 223.137C433.117 222.312 433.859 221.659 434.808 221.54L436.416 221.34C435.466 221.459 434.725 222.111 434.598 222.937Z" fill="#18285D"/>
<path d="M440.059 233.625C439.92 235.042 441.088 236.031 442.668 235.834C444.248 235.637 445.641 234.329 445.779 232.913C445.918 231.496 444.75 230.508 443.17 230.705C441.591 230.901 440.198 232.209 440.059 233.625Z" fill="#586199"/>
<path d="M418.76 240.358L417.021 241.482L409.537 246.324L408.625 246.913C408.19 245.872 407.742 244.25 407.307 242.328C407.167 241.718 407.029 241.074 406.894 240.41C405.384 233.022 404.112 223.012 404.112 223.012C404.112 223.012 411.05 228.661 418.76 240.358Z" fill="#00A0FF"/>
<path d="M195.625 383.611C217.086 383.611 234.485 382.055 234.485 380.136C234.485 378.216 217.086 376.66 195.625 376.66C174.163 376.66 156.765 378.216 156.765 380.136C156.765 382.055 174.163 383.611 195.625 383.611Z" fill="#D9E4F5"/>
<path d="M176.624 368.072L176.622 374.299L181.757 374.209L182.094 367.61L176.624 368.072Z" fill="#FB9A83"/>
<path d="M178.016 373.735C178.016 373.735 176.847 372.306 175.888 372.348C174.929 372.389 167.415 377.342 164.874 377.714C162.334 378.086 162.783 379.712 163.226 380.547C163.668 381.382 183.414 380.626 183.414 380.626C183.414 380.626 184.086 375.542 183.482 373.972C182.878 372.402 179.985 374.142 178.016 373.735Z" fill="#007EFF"/>
<path d="M173.844 377.212C173.933 377.238 174.033 377.232 174.122 377.191C174.294 377.11 174.358 376.923 174.265 376.774C174.234 376.724 173.491 375.544 172.463 375.069C171.095 374.436 169.999 375.094 169.953 375.122C169.793 375.22 169.755 375.412 169.869 375.551C169.982 375.69 170.203 375.723 170.363 375.624C170.393 375.607 171.156 375.163 172.13 375.613C172.968 376 173.635 377.056 173.641 377.067C173.686 377.139 173.76 377.189 173.844 377.212Z" fill="#FCFBFF"/>
<path d="M174.922 376.367C175.011 376.392 175.111 376.386 175.2 376.345C175.372 376.264 175.436 376.078 175.343 375.928C175.312 375.878 174.569 374.698 173.541 374.224C172.172 373.59 171.077 374.248 171.031 374.277C170.871 374.375 170.834 374.567 170.947 374.705C171.06 374.844 171.281 374.877 171.441 374.778C171.471 374.761 172.234 374.317 173.208 374.767C174.049 375.156 174.713 376.211 174.719 376.221C174.765 376.293 174.839 376.343 174.922 376.367Z" fill="#FCFBFF"/>
<path d="M172.394 377.887C172.483 377.912 172.583 377.907 172.672 377.866C172.844 377.785 172.908 377.598 172.815 377.449C172.784 377.399 172.041 376.219 171.013 375.744C169.644 375.111 168.549 375.769 168.503 375.797C168.343 375.895 168.306 376.087 168.419 376.226C168.532 376.364 168.753 376.398 168.913 376.299C168.943 376.281 169.706 375.838 170.68 376.288C171.522 376.676 172.185 377.731 172.191 377.741C172.236 377.813 172.31 377.864 172.394 377.887Z" fill="#FCFBFF"/>
<path d="M175.575 369.208L180.802 368.822L181.425 368.779L182.695 368.684C182.695 368.684 184.418 334.994 185.02 326.02C185.545 318.225 188.833 300.726 190.989 289.841C191.6 286.751 192.12 284.193 192.464 282.54C192.725 281.241 192.88 280.502 192.88 280.502L175.26 278.492C175.26 278.492 175.23 278.915 175.183 279.677C175.082 281.236 174.887 284.222 174.658 287.975C174.017 298.191 173.06 314.09 172.775 322.185C172.047 343.029 175.575 369.208 175.575 369.208Z" fill="#3B3E7D"/>
<path d="M174.657 287.975L190.987 289.841C191.598 286.751 192.118 284.193 192.462 282.54L175.181 279.677C175.081 281.235 174.886 284.221 174.657 287.975Z" fill="#18285D"/>
<path d="M180.801 368.821L181.424 368.779C181.265 358.355 181.037 332.322 182.447 321.298C184.216 307.403 188.807 287.185 188.854 286.981L188.248 286.781C188.201 286.986 183.603 307.239 181.832 321.169C180.413 332.262 180.638 358.419 180.801 368.821Z" fill="#18285D"/>
<path d="M217.935 366.074L220.026 372.031L224.907 370.644L223.012 364.247L217.935 366.074Z" fill="#FB9A83"/>
<path d="M221.412 371.149C221.412 371.149 219.741 370.166 218.859 370.496C217.978 370.826 212.936 377.749 210.706 378.87C208.476 379.989 209.553 381.376 210.304 382.025C211.055 382.673 229.247 375.965 229.247 375.965C229.247 375.965 227.826 370.999 226.627 369.712C225.428 368.424 223.42 370.933 221.412 371.149Z" fill="#007EFF"/>
<path d="M218.905 375.674C218.998 375.671 219.09 375.635 219.156 375.569C219.285 375.441 219.269 375.247 219.122 375.135C219.073 375.098 217.901 374.218 216.747 374.086C215.211 373.908 214.449 374.857 214.417 374.898C214.307 375.039 214.349 375.23 214.511 375.325C214.673 375.421 214.893 375.384 215.003 375.244C215.024 375.218 215.56 374.571 216.653 374.696C217.594 374.803 218.645 375.591 218.655 375.599C218.728 375.653 218.817 375.678 218.905 375.674Z" fill="#FCFBFF"/>
<path d="M219.575 374.554C219.668 374.55 219.76 374.515 219.826 374.449C219.955 374.321 219.94 374.127 219.792 374.015C219.743 373.978 218.571 373.098 217.417 372.966C215.879 372.788 215.119 373.737 215.087 373.778C214.977 373.919 215.019 374.11 215.181 374.205C215.343 374.301 215.563 374.264 215.673 374.123C215.694 374.097 216.23 373.451 217.324 373.576C218.269 373.684 219.316 374.471 219.326 374.478C219.397 374.533 219.487 374.557 219.575 374.554Z" fill="#FCFBFF"/>
<path d="M217.82 376.747C217.913 376.744 218.005 376.708 218.071 376.642C218.2 376.514 218.185 376.32 218.037 376.208C217.988 376.171 216.816 375.292 215.661 375.159C214.123 374.981 213.363 375.931 213.331 375.971C213.221 376.112 213.263 376.303 213.425 376.398C213.587 376.494 213.808 376.457 213.917 376.317C213.938 376.291 214.474 375.644 215.568 375.769C216.513 375.878 217.56 376.664 217.57 376.672C217.642 376.726 217.732 376.751 217.82 376.747Z" fill="#FCFBFF"/>
<path d="M217.409 367.378L222.322 365.781L222.909 365.595L224.102 365.207C224.102 365.207 215.287 332.362 213.077 323.581C211.158 315.951 208.885 298.333 207.577 287.345C207.204 284.226 206.91 281.642 206.728 279.97C206.575 278.658 206.495 277.91 206.495 277.91L188.904 280.102C188.904 280.102 189.006 280.516 189.198 281.261C189.585 282.786 190.326 285.706 191.272 289.374C193.831 299.361 197.852 314.894 200.094 322.755C205.874 342.995 217.409 367.378 217.409 367.378Z" fill="#3B3E7D"/>
<path d="M191.271 289.373L207.576 287.344C207.203 284.225 206.909 281.64 206.727 279.969L189.197 281.259C189.584 282.784 190.325 285.704 191.271 289.373Z" fill="#18285D"/>
<path d="M222.322 365.782L222.909 365.595C219.515 355.595 211.203 330.582 209.132 319.636C206.516 305.841 204.65 285.299 204.632 285.091L203.986 285.041C204.004 285.249 205.873 305.827 208.499 319.655C210.582 330.669 218.931 355.803 222.322 365.782Z" fill="#18285D"/>
<path d="M185.802 242.663C180.976 249.483 167.269 255.824 167.269 255.824C162.062 255.086 158.722 253.876 155.394 252.46C156.246 250.422 156.552 248.377 156.942 245.719C161.794 246.679 165.963 247.127 165.963 247.127C175.849 242.645 186.634 221.753 186.634 221.753C190.225 227.463 185.802 242.663 185.802 242.663Z" fill="#007EFF"/>
<path d="M187.379 215.621C187.367 216.474 187.329 217.435 187.283 218.461C188.769 218.797 190.304 219.019 191.805 219.242C195.96 219.86 200.194 220.116 204.387 219.634C207.456 219.281 210.516 218.636 213.075 217.057C214.23 216.344 215.19 215.474 215.972 214.497C215.314 213.436 214.643 212.058 214.53 208.732C214.428 205.737 214.247 201.6 214.247 201.6C213.737 192.625 203.317 190.976 203.317 190.976C190.776 188.772 186.467 197.814 186.125 202.882C186.102 203.227 186.092 203.578 186.098 203.93L186.096 203.959C185.934 206.071 187.436 211.432 187.379 215.621Z" fill="#021147"/>
<path d="M214.207 225.156C214.207 225.156 213.666 231.014 212.507 236.639C212.094 238.643 211.604 240.616 211.034 242.285C210.69 243.289 210.338 244.401 209.991 245.593C208.424 250.955 206.946 257.938 206.774 263.879C206.742 264.995 206.757 266.073 206.823 267.096C207.332 274.791 210.564 281.527 207.654 284.226C207.654 284.226 183.283 289.097 173.467 281.892C172.655 281.297 172.314 280.354 172.636 279.474C174.028 275.689 178.094 264.55 179.855 258.754C181.363 253.788 182.327 250.112 182.339 247.105C182.339 246.85 182.334 246.603 182.322 246.36C182.273 245.384 182.108 244.477 181.82 243.617C180.6 239.985 180.347 238.669 181.975 236.072C182.324 235.513 182.74 234.531 183.175 233.337C184.761 228.978 186.633 221.754 186.633 221.754L188.515 221.372L191.341 220.8L193.055 220.45L201.661 219.812C201.661 219.812 203.154 220.393 205.161 221.208C206.29 221.667 207.584 222.197 208.865 222.737C210.926 223.606 212.955 224.502 214.207 225.156Z" fill="#00A0FF"/>
<path d="M212.507 236.638C212.094 238.642 211.604 240.615 211.034 242.284C210.69 243.288 210.338 244.4 209.991 245.591C208.424 250.954 206.946 257.937 206.774 263.878L197.969 260.069L205.534 252.986L207.477 234.8L212.507 236.638Z" fill="#007EFF"/>
<path d="M182.32 246.359C182.334 246.602 182.339 246.851 182.338 247.103C186.338 250.464 193.32 255.138 201.656 255.622C201.82 255.631 201.964 255.523 201.975 255.379C201.986 255.237 201.861 255.112 201.696 255.103C193.225 254.611 186.164 249.682 182.32 246.359Z" fill="#007EFF"/>
<path d="M191.808 235.002C196.043 235.248 200.251 231.567 200.433 231.405C200.549 231.303 200.547 231.138 200.429 231.037C200.311 230.937 200.122 230.938 200.006 231.041C199.962 231.08 195.555 234.935 191.484 234.451C191.321 234.431 191.169 234.531 191.147 234.673C191.125 234.816 191.239 234.947 191.403 234.966C191.537 234.983 191.673 234.994 191.808 235.002Z" fill="#007EFF"/>
<path d="M198.846 272.762C198.996 272.771 199.132 272.68 199.16 272.549C199.19 272.408 199.082 272.272 198.919 272.246C188.063 270.519 184.796 253.82 184.765 253.651C184.738 253.51 184.584 253.414 184.421 253.437C184.258 253.461 184.147 253.594 184.174 253.736C184.306 254.439 187.545 270.965 198.812 272.758C198.823 272.76 198.835 272.761 198.846 272.762Z" fill="#007EFF"/>
<path d="M194.872 267.536C194.972 267.542 195.073 267.504 195.136 267.428C195.232 267.311 195.201 267.148 195.066 267.065C189.487 263.614 188.975 258.974 188.971 258.928C188.957 258.784 188.814 258.677 188.648 258.691C188.483 258.703 188.361 258.828 188.374 258.971C188.393 259.17 188.903 263.892 194.719 267.489C194.765 267.517 194.818 267.533 194.872 267.536Z" fill="#007EFF"/>
<path d="M190.349 204.793C190.349 204.793 188.695 202.7 187.224 204.266C185.753 205.832 187.28 210.796 190.662 209.802L190.349 204.793Z" fill="#FF6D6B"/>
<path d="M189.215 209.379C189.193 209.667 188.906 209.885 188.574 209.866C188.242 209.847 187.991 209.598 188.013 209.309C188.035 209.021 188.322 208.803 188.654 208.822C188.986 208.842 189.237 209.091 189.215 209.379Z" fill="white"/>
<path d="M190.058 208.261C189.937 208.254 189.83 208.181 189.803 208.078C189.408 206.549 187.572 205.833 187.554 205.826C187.414 205.772 187.352 205.636 187.416 205.521C187.479 205.405 187.644 205.355 187.784 205.408C187.87 205.441 189.893 206.225 190.348 207.985C190.38 208.109 190.284 208.23 190.134 208.256C190.108 208.261 190.082 208.263 190.058 208.261Z" fill="#ED495C"/>
<path d="M188.215 207.395C188.164 207.392 188.112 207.376 188.068 207.35C187.944 207.273 187.918 207.129 188.009 207.028C188.024 207.01 188.389 206.611 189.106 206.394C189.249 206.35 189.411 206.411 189.464 206.531C189.518 206.65 189.445 206.783 189.301 206.826C188.747 206.994 188.46 207.3 188.458 207.304C188.399 207.369 188.307 207.401 188.215 207.395Z" fill="#ED495C"/>
<path d="M203.5 215.756L203.088 221.11C203.088 221.11 199.688 223.662 197.187 223.703C194.687 223.748 194.024 221.151 194.024 221.151L194.45 215.609L203.5 215.756Z" fill="#FB9A83"/>
<path d="M203.456 216.339L203.273 218.715C201.48 220.226 198.472 220.624 194.129 219.808L194.406 216.193L203.456 216.339Z" fill="#FF6D6B"/>
<path d="M189.088 206.995C189.123 207.575 189.172 208.165 189.246 208.754C189.736 212.672 192.236 217.019 195.746 217.927C203.324 219.889 206.923 214.828 208.451 211.03C208.62 210.608 208.403 210.1 208.55 209.598C208.898 208.407 209.565 207.069 209.796 205.726C209.956 204.794 210.089 203.874 210.199 203.043C210.505 200.697 209.101 198.443 206.711 197.456C203.268 196.029 197.971 194.751 192.684 197.047C190.731 197.895 189.416 199.597 189.224 201.533C189.079 203.012 188.972 204.951 189.088 206.995Z" fill="#FB9A83"/>
<path d="M198.248 210.535C198.391 210.543 198.525 210.461 198.559 210.335C198.597 210.196 198.498 210.056 198.337 210.022L197.322 209.813L198.988 206.626C199.056 206.495 198.99 206.341 198.839 206.282C198.688 206.223 198.511 206.28 198.443 206.411L196.477 210.173L198.199 210.528C198.215 210.533 198.231 210.534 198.248 210.535Z" fill="#FF6D6B"/>
<path d="M192.553 200.643C189.454 201.659 190.17 204.816 189.034 206.313C188.961 206.41 188.891 206.424 188.823 206.369C188.695 204.285 188.802 202.309 188.951 200.801C189.148 198.828 190.53 197.095 192.586 196.234C198.152 193.905 203.739 195.219 207.372 196.679C209.893 197.691 211.379 199.991 211.063 202.382C210.95 203.23 210.812 204.167 210.646 205.116C210.127 205.345 208.899 205.392 208.794 206.086C208.517 207.92 208.317 209.175 207.882 209.039C207.149 208.809 206.857 206.55 207.822 205.158C207.822 205.158 207.21 204.147 204.479 203.047C200.977 201.636 197.654 199.656 197.654 199.656C197.654 199.656 196.344 198.863 195.88 198.055C195.88 198.055 194.914 199.868 192.553 200.643Z" fill="#021147"/>
<path d="M195.08 206.007C195.036 206.578 194.661 207.022 194.242 206.998C193.823 206.974 193.52 206.49 193.564 205.919C193.608 205.348 193.983 204.904 194.402 204.929C194.82 204.952 195.124 205.436 195.08 206.007Z" fill="#021147"/>
<path d="M203.27 206.481C203.226 207.052 202.851 207.497 202.432 207.472C202.013 207.448 201.71 206.965 201.754 206.394C201.798 205.822 202.173 205.378 202.592 205.402C203.011 205.427 203.314 205.91 203.27 206.481Z" fill="#021147"/>
<path d="M192.488 203.13C193.105 203.063 194.351 202.964 195.66 203.08C196.005 203.11 196.264 203.353 196.198 203.589L196.196 203.595C196.143 203.783 195.898 203.898 195.624 203.864C194.734 203.754 192.393 203.63 191.283 203.848C191.263 203.709 191.38 203.57 191.543 203.452C191.791 203.273 192.128 203.17 192.488 203.13Z" fill="#021147"/>
<path d="M204.664 203.962C204.065 203.816 202.849 203.56 201.535 203.508C201.189 203.495 200.892 203.701 200.917 203.943L200.918 203.949C200.938 204.142 201.161 204.287 201.439 204.288C202.338 204.292 204.674 204.468 205.736 204.825C205.779 204.691 205.687 204.538 205.545 204.4C205.33 204.191 205.014 204.047 204.664 203.962Z" fill="#021147"/>
<path d="M194.814 211.888C194.965 212.81 195.573 214.526 198.054 214.67C200.541 214.814 201.355 213.325 201.676 212.285L194.814 211.888Z" fill="white"/>
<path d="M197.898 216.231C197.182 216.19 196.576 215.819 196.55 215.802C196.418 215.721 196.388 215.561 196.482 215.447C196.576 215.332 196.759 215.306 196.891 215.387C196.896 215.39 197.391 215.69 197.937 215.722C198.528 215.756 199.078 215.515 199.084 215.513C199.229 215.448 199.405 215.498 199.479 215.623C199.553 215.748 199.497 215.9 199.353 215.966C199.325 215.979 198.657 216.275 197.898 216.231Z" fill="#FF6D6B"/>
<path d="M208.883 205.851C208.883 205.851 211.155 203.76 212.272 205.428C213.389 207.096 211.273 211.708 208.326 210.381L208.883 205.851Z" fill="#FB9A83"/>
<path d="M210.227 210.599C210.205 210.887 209.918 211.105 209.586 211.085C209.254 211.066 209.003 210.816 209.025 210.529C209.047 210.241 209.334 210.023 209.666 210.042C209.998 210.06 210.249 210.31 210.227 210.599Z" fill="white"/>
<path d="M209.101 208.963C209.213 208.97 209.321 208.911 209.36 208.814C209.942 207.386 211.725 206.897 211.743 206.892C211.878 206.855 211.955 206.731 211.914 206.613C211.873 206.496 211.729 206.429 211.593 206.465C211.51 206.486 209.546 207.02 208.875 208.665C208.827 208.781 208.898 208.909 209.031 208.95C209.055 208.957 209.078 208.962 209.101 208.963Z" fill="#FF6D6B"/>
<path d="M210.911 208.332C210.959 208.335 211.008 208.326 211.053 208.304C211.177 208.244 211.222 208.109 211.153 208C211.141 207.983 210.866 207.558 210.242 207.27C210.117 207.212 209.961 207.254 209.894 207.363C209.828 207.473 209.875 207.607 210.001 207.665C210.483 207.887 210.701 208.214 210.703 208.217C210.747 208.286 210.827 208.327 210.911 208.332Z" fill="#FF6D6B"/>
<path d="M196.837 277.793H157.13C153.296 277.793 150.188 275.095 150.188 271.767V237.302C150.188 233.974 153.296 231.276 157.13 231.276H196.837C200.671 231.276 203.779 233.974 203.779 237.302V271.767C203.779 275.095 200.671 277.793 196.837 277.793Z" fill="#0060E6"/>
<path d="M194.509 277.793H154.803C150.969 277.793 147.861 275.095 147.861 271.767V237.302C147.861 233.974 150.969 231.276 154.803 231.276H194.509C198.343 231.276 201.451 233.974 201.451 237.302V271.767C201.451 275.095 198.343 277.793 194.509 277.793Z" fill="#007EFF"/>
<path d="M189.901 241.981C186.422 238.923 180.722 238.895 177.197 241.917L173.686 244.93C172.57 245.887 173.207 247.54 174.762 247.722C174.778 247.724 174.794 247.726 174.81 247.727C175.39 247.795 175.974 247.626 176.391 247.268L179.882 244.274C181.906 242.534 185.187 242.549 187.189 244.309C189.194 246.07 189.175 248.914 187.147 250.654L180.25 256.573C178.223 258.311 174.947 258.295 172.942 256.534C172.86 256.462 172.781 256.388 172.706 256.313C172.093 255.695 171.078 255.52 170.273 255.94L170.257 255.949L170.219 255.969C169.227 256.486 169.013 257.649 169.758 258.418C169.906 258.571 170.063 258.72 170.227 258.865C173.711 261.922 179.409 261.953 182.931 258.93L189.831 253.012C193.352 249.986 193.384 245.038 189.901 241.981Z" fill="white"/>
<path d="M171.443 263.552L168.427 266.139C166.371 267.901 162.959 267.943 160.962 266.129C159.021 264.366 159.06 261.563 161.066 259.842L167.965 253.922C169.99 252.182 173.268 252.2 175.27 253.959C175.616 254.262 175.902 254.598 176.127 254.956C176.604 255.712 177.697 256.005 178.59 255.624C178.602 255.619 178.614 255.613 178.626 255.608C179.601 255.187 179.978 254.154 179.45 253.328C179.062 252.72 178.573 252.148 177.984 251.629C174.5 248.572 168.803 248.545 165.28 251.565L158.383 257.484C154.861 260.508 154.826 265.454 158.309 268.511C161.791 271.57 167.491 271.598 171.013 268.575L174.13 265.9C175.287 264.907 174.557 263.193 172.933 263.093L172.881 263.089C172.349 263.056 171.824 263.225 171.443 263.552Z" fill="white"/>
<path d="M145.433 246.328C145.433 246.328 148.716 246.581 149.768 247.565C150.82 248.549 146.33 248.815 146.33 248.815C146.33 248.815 151.754 248.528 152.081 249.639C152.407 250.751 147.147 251.159 147.147 251.159C147.147 251.159 150.856 251.451 151.204 252.281C151.552 253.111 147.722 253.546 147.722 253.546C147.722 253.546 150.635 254.036 150.979 254.64C151.323 255.244 148.145 255.944 146.442 255.788C144.74 255.632 145.451 253.735 145.451 253.735C145.451 253.735 144.621 252.124 145.193 251.46C145.193 251.46 144.196 250.046 144.548 249.143C144.548 249.143 143.332 246.785 145.433 246.328Z" fill="#FB9A83"/>
<path d="M182.043 272.535L180.812 272.984C179.712 273.385 178.604 273.127 177.697 272.454C177.296 272.156 176.666 271.573 176.346 271.411C175.448 270.955 173.338 270.409 172.733 270.589C172.128 270.77 172.696 271.68 173.313 271.945C173.93 272.21 174.842 272.501 175.478 272.961C176.114 273.422 173.461 275.792 172.284 276.547C171.107 277.302 168.509 277.53 168.741 278.555C168.973 279.581 170.768 279.091 170.768 279.091C170.768 279.091 170.673 280.126 172.447 280.308C172.447 280.308 172.594 281.234 173.736 281.341C173.736 281.341 174.14 282.434 175.351 282.32C176.561 282.205 180.328 281.828 185.239 275.958L182.043 272.535Z" fill="#FB9A83"/>
<path d="M214.207 225.156C214.207 225.156 217.334 248.081 214.808 256.609C212.281 265.136 185.422 276.833 185.422 276.833L181.455 272.75C181.455 272.75 201.907 259.64 206.503 253.795L207.154 236.094C207.154 236.094 207.945 230.53 214.207 225.156Z" fill="#00A0FF"/>
<path d="M323.657 380.837C323.657 382.757 307.891 384.312 288.442 384.312C268.993 384.312 253.227 382.756 253.227 380.837C253.227 378.918 268.993 377.361 288.442 377.361C307.89 377.361 323.657 378.918 323.657 380.837Z" fill="#D9E4F5"/>
<path d="M317.073 290.45V375.425C317.073 378.414 314.284 380.837 310.841 380.837H266.043C262.6 380.837 259.811 378.414 259.811 375.425V290.45C259.811 287.462 262.6 285.041 266.043 285.041H310.841C314.284 285.04 317.073 287.462 317.073 290.45Z" fill="#3B3E7D"/>
<path d="M317.073 332.855V375.425C317.073 378.413 314.284 380.837 310.841 380.837H266.043C262.6 380.837 259.811 378.413 259.811 375.425V332.855H317.073Z" fill="#18285D"/>
<path d="M312.008 299.739V365.942C312.008 367.202 310.815 368.24 309.357 368.24H267.53C266.974 368.24 266.462 368.087 266.033 367.838C265.335 367.424 264.875 366.725 264.875 365.942V299.739C264.875 298.269 266.247 297.074 267.945 297.074H308.938C310.636 297.074 312.008 298.269 312.008 299.739Z" fill="#F9F9F9"/>
<path d="M312.008 299.739V303.277H264.875V299.739C264.875 298.269 266.247 297.074 267.945 297.074H308.938C310.636 297.074 312.008 298.269 312.008 299.739Z" fill="#D9E4F5"/>
<path d="M301.285 301.223H275.597C274.933 301.223 274.39 300.752 274.39 300.176C274.39 299.599 274.933 299.128 275.597 299.128H301.285C301.949 299.128 302.492 299.599 302.492 300.176C302.492 300.752 301.949 301.223 301.285 301.223Z" fill="#F9F9F9"/>
<path d="M288.441 376.492C290.182 376.492 291.593 375.267 291.593 373.756C291.593 372.245 290.182 371.021 288.441 371.021C286.7 371.021 285.289 372.245 285.289 373.756C285.289 375.267 286.7 376.492 288.441 376.492Z" fill="#586199"/>
<path d="M302.135 293.056H276.186C275.336 293.056 274.641 292.453 274.641 291.715C274.641 290.977 275.336 290.374 276.186 290.374H302.135C302.985 290.374 303.68 290.977 303.68 291.715C303.68 292.452 302.985 293.056 302.135 293.056Z" fill="#586199"/>
<path d="M308.933 310.493V360.661C308.933 362.523 307.194 364.031 305.05 364.031H271.835C269.69 364.031 267.951 362.522 267.951 360.661V310.493C267.951 308.631 269.69 307.122 271.835 307.122H305.05C307.194 307.123 308.933 308.632 308.933 310.493Z" fill="#D9E4F5"/>
<path d="M308.933 310.493V312.731H267.951V310.493C267.951 308.631 269.69 307.122 271.835 307.122H305.05C307.194 307.123 308.933 308.632 308.933 310.493Z" fill="#B4CAE3"/>
<path d="M304.4 326.977H272.485V346.802H304.4V326.977Z" fill="#007EFF"/>
<path d="M304.4 341.556L302.848 339.288L297.708 331.774L287.428 346.802H304.4V341.556Z" fill="#18285D"/>
<path d="M285.3 346.803H272.485L278.892 337.841L285.3 328.878L291.707 337.841L298.115 346.803H285.3Z" fill="#3B3E7D"/>
<path d="M281.146 334.688L285.301 337.388L289.455 334.688L285.301 328.878L281.146 334.688Z" fill="white"/>
<path d="M294.209 336.889L297.708 339.288L301.207 336.889L297.708 331.774L294.209 336.889Z" fill="white"/>
<path d="M303.155 318.94H273.729C273.042 318.94 272.485 318.457 272.485 317.86V317.708C272.485 317.111 273.042 316.628 273.729 316.628H303.155C303.842 316.628 304.4 317.111 304.4 317.708V317.86C304.399 318.457 303.842 318.94 303.155 318.94Z" fill="#B4CAE3"/>
<path d="M303.155 322.971H273.729C273.042 322.971 272.485 322.488 272.485 321.891V321.738C272.485 321.142 273.042 320.657 273.729 320.657H303.155C303.842 320.657 304.4 321.141 304.4 321.738V321.891C304.399 322.488 303.842 322.971 303.155 322.971Z" fill="#B4CAE3"/>
<path d="M303.155 352.815H273.729C273.042 352.815 272.485 352.332 272.485 351.735V351.583C272.485 350.986 273.042 350.503 273.729 350.503H303.155C303.842 350.503 304.4 350.986 304.4 351.583V351.735C304.399 352.332 303.842 352.815 303.155 352.815Z" fill="#B4CAE3"/>
<path d="M303.155 356.846H273.729C273.042 356.846 272.485 356.363 272.485 355.766V355.613C272.485 355.017 273.042 354.532 273.729 354.532H303.155C303.842 354.532 304.4 355.016 304.4 355.613V355.766C304.399 356.363 303.842 356.846 303.155 356.846Z" fill="#B4CAE3"/>
<path d="M60.1012 91.4239C59.9252 91.4161 59.7502 91.4014 59.5742 91.4014V96.8358H64.7112C63.1402 93.8178 60.8392 91.9656 60.1012 91.4239Z" fill="#007EFF"/>
<path d="M59.5742 107.812H65.4312C65.9142 106.432 66.1782 104.932 66.2132 103.354H59.5742V107.812Z" fill="#007EFF"/>
<path d="M62.8412 112.241C63.7372 111.235 64.4742 110.099 65.0282 108.841H59.5752V114.817C60.0222 114.589 61.4272 113.796 62.8412 112.241Z" fill="#007EFF"/>
<path d="M62.165 91.7139C62.824 92.3232 63.447 92.9863 64.018 93.7033C64.808 94.6789 65.476 95.7387 66.003 96.8358H70.385C68.505 94.2675 65.537 92.423 62.165 91.7139Z" fill="#007EFF"/>
<path d="M71.0614 97.8574H66.4424C67.0134 99.3061 67.3294 100.808 67.3904 102.324H72.4664C72.3434 100.762 71.8694 99.2601 71.0614 97.8574Z" fill="#007EFF"/>
<path d="M65.1942 97.8574H59.5742V102.324H66.2132C66.1432 100.8 65.8002 99.2983 65.1942 97.8574Z" fill="#007EFF"/>
<path d="M66.2927 108.842C65.6777 110.351 64.8177 111.716 63.7377 112.905C63.1927 113.507 62.6047 114.056 61.9727 114.544C65.7047 113.812 68.8747 111.762 70.7637 108.842H66.2927Z" fill="#007EFF"/>
<path d="M72.4921 103.354H67.3991C67.3641 104.916 67.1091 106.418 66.6611 107.812H71.3511C72.0701 106.402 72.4571 104.9 72.4921 103.354Z" fill="#007EFF"/>
<path d="M45.5137 102.324H50.7217C50.7837 100.808 51.0997 99.3052 51.6697 97.8574H46.9187C46.1027 99.2601 45.6287 100.762 45.5137 102.324Z" fill="#007EFF"/>
<path d="M56.184 114.573C55.534 114.077 54.928 113.521 54.375 112.904C53.295 111.715 52.434 110.35 51.819 108.841H47.209C49.115 111.769 52.426 113.879 56.184 114.573Z" fill="#007EFF"/>
<path d="M51.4513 107.812C51.0033 106.418 50.7483 104.916 50.7133 103.354H45.4883C45.5233 104.901 45.9013 106.403 46.6213 107.812H51.4513Z" fill="#007EFF"/>
<path d="M55.0434 94.3136C54.4114 95.106 53.8584 95.9523 53.4014 96.8368H58.3984V91.4023C58.2754 91.4023 58.1434 91.4102 58.0204 91.418C57.5104 91.7903 56.2814 92.7659 55.0434 94.3136Z" fill="#007EFF"/>
<path d="M58.3974 103.354H51.8994C51.9344 104.932 52.1984 106.433 52.6814 107.812H58.3984L58.3974 103.354Z" fill="#007EFF"/>
<path d="M58.397 114.748V108.841H53.084C54.709 112.515 57.501 114.261 58.397 114.748Z" fill="#007EFF"/>
<path d="M55.9919 91.6758C52.5409 92.3615 49.5109 94.2216 47.5879 96.8359H52.1099C52.6369 95.7379 53.3039 94.679 54.0949 93.7034C54.6749 92.9795 55.3069 92.3007 55.9919 91.6758Z" fill="#007EFF"/>
<path d="M58.3974 97.8574H52.9174C52.3114 99.3061 51.9694 100.8 51.8984 102.324H58.3964L58.3974 97.8574Z" fill="#007EFF"/>
<path d="M37.779 120.919H36.313C35.932 120.919 35.623 120.65 35.623 120.32V119.047C35.623 118.716 35.932 118.448 36.313 118.448C36.694 118.448 37.003 118.716 37.003 119.047V119.721H37.779C38.16 119.721 38.469 119.989 38.469 120.32C38.469 120.65 38.16 120.919 37.779 120.919Z" fill="#B4CAE3"/>
<path d="M77.4529 120.919H74.5329C74.1519 120.919 73.8429 120.65 73.8429 120.32C73.8429 119.989 74.1519 119.721 74.5329 119.721H77.4529C77.8339 119.721 78.1429 119.989 78.1429 120.32C78.1429 120.65 77.8339 120.919 77.4529 120.919ZM71.7849 120.919H68.8649C68.4839 120.919 68.1749 120.65 68.1749 120.32C68.1749 119.989 68.4839 119.721 68.8649 119.721H71.7849C72.1659 119.721 72.4749 119.989 72.4749 120.32C72.4749 120.65 72.1659 120.919 71.7849 120.919ZM66.1179 120.919H63.1979C62.8169 120.919 62.5079 120.65 62.5079 120.32C62.5079 119.989 62.8169 119.721 63.1979 119.721H66.1179C66.4989 119.721 66.8079 119.989 66.8079 120.32C66.8079 120.65 66.4989 120.919 66.1179 120.919ZM60.4499 120.919H57.5299C57.1489 120.919 56.8399 120.65 56.8399 120.32C56.8399 119.989 57.1489 119.721 57.5299 119.721H60.4499C60.8309 119.721 61.1399 119.989 61.1399 120.32C61.1399 120.65 60.8309 120.919 60.4499 120.919ZM54.7819 120.919H51.8619C51.4809 120.919 51.1719 120.65 51.1719 120.32C51.1719 119.989 51.4809 119.721 51.8619 119.721H54.7819C55.1629 119.721 55.4719 119.989 55.4719 120.32C55.4719 120.65 55.1629 120.919 54.7819 120.919ZM49.1149 120.919H46.1949C45.8139 120.919 45.5049 120.65 45.5049 120.32C45.5049 119.989 45.8139 119.721 46.1949 119.721H49.1149C49.4959 119.721 49.8049 119.989 49.8049 120.32C49.8049 120.65 49.4959 120.919 49.1149 120.919ZM43.4469 120.919H40.5269C40.1459 120.919 39.8369 120.65 39.8369 120.32C39.8369 119.989 40.1459 119.721 40.5269 119.721H43.4469C43.8279 119.721 44.1369 119.989 44.1369 120.32C44.1369 120.65 43.8279 120.919 43.4469 120.919Z" fill="#B4CAE3"/>
<path d="M81.6677 120.919H80.2017C79.8207 120.919 79.5117 120.65 79.5117 120.32C79.5117 119.989 79.8207 119.721 80.2017 119.721H80.9777V119.047C80.9777 118.716 81.2867 118.448 81.6677 118.448C82.0487 118.448 82.3577 118.716 82.3577 119.047V120.32C82.3577 120.65 82.0487 120.919 81.6677 120.919Z" fill="#B4CAE3"/>
<path d="M81.6666 117.351C81.2856 117.351 80.9766 117.083 80.9766 116.752V114.316C80.9766 113.985 81.2856 113.717 81.6666 113.717C82.0476 113.717 82.3566 113.985 82.3566 114.316V116.752C82.3566 117.083 82.0476 117.351 81.6666 117.351ZM81.6666 112.621C81.2856 112.621 80.9766 112.353 80.9766 112.022V109.585C80.9766 109.254 81.2856 108.986 81.6666 108.986C82.0476 108.986 82.3566 109.254 82.3566 109.585V112.022C82.3566 112.353 82.0476 112.621 81.6666 112.621ZM81.6666 107.89C81.2856 107.89 80.9766 107.622 80.9766 107.291V104.855C80.9766 104.524 81.2856 104.256 81.6666 104.256C82.0476 104.256 82.3566 104.524 82.3566 104.855V107.291C82.3566 107.623 82.0476 107.89 81.6666 107.89ZM81.6666 103.161C81.2856 103.161 80.9766 102.892 80.9766 102.562V100.124C80.9766 99.7937 81.2856 99.5255 81.6666 99.5255C82.0476 99.5255 82.3566 99.7937 82.3566 100.124V102.562C82.3566 102.892 82.0476 103.161 81.6666 103.161ZM81.6666 98.4301C81.2856 98.4301 80.9766 98.1619 80.9766 97.8312V95.3939C80.9766 95.0632 81.2856 94.795 81.6666 94.795C82.0476 94.795 82.3566 95.0632 82.3566 95.3939V97.8312C82.3566 98.1619 82.0476 98.4301 81.6666 98.4301ZM81.6666 93.6996C81.2856 93.6996 80.9766 93.4314 80.9766 93.1007V90.6634C80.9766 90.3327 81.2856 90.0645 81.6666 90.0645C82.0476 90.0645 82.3566 90.3327 82.3566 90.6634V93.1007C82.3566 93.4314 82.0476 93.6996 81.6666 93.6996Z" fill="#B4CAE3"/>
<path d="M81.6667 88.9693C81.2857 88.9693 80.9767 88.7011 80.9767 88.3704V87.6968H80.2007C79.8197 87.6968 79.5107 87.4286 79.5107 87.0979C79.5107 86.7672 79.8197 86.499 80.2007 86.499H81.6667C82.0477 86.499 82.3567 86.7672 82.3567 87.0979V88.3704C82.3567 88.7011 82.0477 88.9693 81.6667 88.9693Z" fill="#B4CAE3"/>
<path d="M77.4529 87.6968H74.5329C74.1519 87.6968 73.8429 87.4286 73.8429 87.0979C73.8429 86.7672 74.1519 86.499 74.5329 86.499H77.4529C77.8339 86.499 78.1429 86.7672 78.1429 87.0979C78.1429 87.4286 77.8339 87.6968 77.4529 87.6968ZM71.7849 87.6968H68.8649C68.4839 87.6968 68.1749 87.4286 68.1749 87.0979C68.1749 86.7672 68.4839 86.499 68.8649 86.499H71.7849C72.1659 86.499 72.4749 86.7672 72.4749 87.0979C72.4749 87.4286 72.1659 87.6968 71.7849 87.6968ZM66.1179 87.6968H63.1979C62.8169 87.6968 62.5079 87.4286 62.5079 87.0979C62.5079 86.7672 62.8169 86.499 63.1979 86.499H66.1179C66.4989 86.499 66.8079 86.7672 66.8079 87.0979C66.8079 87.4286 66.4989 87.6968 66.1179 87.6968ZM60.4499 87.6968H57.5299C57.1489 87.6968 56.8399 87.4286 56.8399 87.0979C56.8399 86.7672 57.1489 86.499 57.5299 86.499H60.4499C60.8309 86.499 61.1399 86.7672 61.1399 87.0979C61.1399 87.4286 60.8309 87.6968 60.4499 87.6968ZM54.7819 87.6968H51.8619C51.4809 87.6968 51.1719 87.4286 51.1719 87.0979C51.1719 86.7672 51.4809 86.499 51.8619 86.499H54.7819C55.1629 86.499 55.4719 86.7672 55.4719 87.0979C55.4719 87.4286 55.1629 87.6968 54.7819 87.6968ZM49.1149 87.6968H46.1949C45.8139 87.6968 45.5049 87.4286 45.5049 87.0979C45.5049 86.7672 45.8139 86.499 46.1949 86.499H49.1149C49.4959 86.499 49.8049 86.7672 49.8049 87.0979C49.8049 87.4286 49.4959 87.6968 49.1149 87.6968ZM43.4469 87.6968H40.5269C40.1459 87.6968 39.8369 87.4286 39.8369 87.0979C39.8369 86.7672 40.1459 86.499 40.5269 86.499H43.4469C43.8279 86.499 44.1369 86.7672 44.1369 87.0979C44.1369 87.4286 43.8279 87.6968 43.4469 87.6968Z" fill="#B4CAE3"/>
<path d="M36.313 88.9693C35.932 88.9693 35.623 88.7011 35.623 88.3704V87.0979C35.623 86.7672 35.932 86.499 36.313 86.499H37.779C38.16 86.499 38.469 86.7672 38.469 87.0979C38.469 87.4286 38.16 87.6968 37.779 87.6968H37.003V88.3704C37.003 88.7011 36.694 88.9693 36.313 88.9693Z" fill="#B4CAE3"/>
<path d="M36.313 117.351C35.932 117.351 35.623 117.083 35.623 116.752V114.316C35.623 113.985 35.932 113.717 36.313 113.717C36.694 113.717 37.003 113.985 37.003 114.316V116.752C37.003 117.083 36.694 117.351 36.313 117.351ZM36.313 112.621C35.932 112.621 35.623 112.353 35.623 112.022V109.585C35.623 109.254 35.932 108.986 36.313 108.986C36.694 108.986 37.003 109.254 37.003 109.585V112.022C37.003 112.353 36.694 112.621 36.313 112.621ZM36.313 107.89C35.932 107.89 35.623 107.622 35.623 107.291V104.855C35.623 104.524 35.932 104.256 36.313 104.256C36.694 104.256 37.003 104.524 37.003 104.855V107.291C37.003 107.623 36.694 107.89 36.313 107.89ZM36.313 103.161C35.932 103.161 35.623 102.892 35.623 102.562V100.124C35.623 99.7937 35.932 99.5255 36.313 99.5255C36.694 99.5255 37.003 99.7937 37.003 100.124V102.562C37.003 102.892 36.694 103.161 36.313 103.161ZM36.313 98.4301C35.932 98.4301 35.623 98.1619 35.623 97.8312V95.3939C35.623 95.0632 35.932 94.795 36.313 94.795C36.694 94.795 37.003 95.0632 37.003 95.3939V97.8312C37.003 98.1619 36.694 98.4301 36.313 98.4301ZM36.313 93.6996C35.932 93.6996 35.623 93.4314 35.623 93.1007V90.6634C35.623 90.3327 35.932 90.0645 36.313 90.0645C36.694 90.0645 37.003 90.3327 37.003 90.6634V93.1007C37.003 93.4314 36.694 93.6996 36.313 93.6996Z" fill="#B4CAE3"/>
<path d="M101.222 129.127C100.841 129.127 100.532 128.858 100.532 128.528V125.982C100.532 125.651 100.841 125.383 101.222 125.383C101.603 125.383 101.912 125.651 101.912 125.982V128.528C101.912 128.858 101.603 129.127 101.222 129.127ZM101.222 124.184C100.841 124.184 100.532 123.916 100.532 123.585V121.04C100.532 120.709 100.841 120.441 101.222 120.441C101.603 120.441 101.912 120.709 101.912 121.04V123.585C101.912 123.916 101.603 124.184 101.222 124.184ZM101.222 119.243C100.841 119.243 100.532 118.975 100.532 118.644V116.098C100.532 115.767 100.841 115.499 101.222 115.499C101.603 115.499 101.912 115.767 101.912 116.098V118.644C101.912 118.975 101.603 119.243 101.222 119.243ZM101.222 114.301C100.841 114.301 100.532 114.032 100.532 113.702V111.156C100.532 110.825 100.841 110.557 101.222 110.557C101.603 110.557 101.912 110.825 101.912 111.156V113.702C101.912 114.032 101.603 114.301 101.222 114.301ZM101.222 109.359C100.841 109.359 100.532 109.091 100.532 108.76V106.214C100.532 105.884 100.841 105.616 101.222 105.616C101.603 105.616 101.912 105.884 101.912 106.214V108.76C101.912 109.091 101.603 109.359 101.222 109.359ZM98.8545 106.472H95.9215C95.5405 106.472 95.2315 106.204 95.2315 105.873C95.2315 105.543 95.5405 105.274 95.9215 105.274H98.8545C99.2355 105.274 99.5445 105.543 99.5445 105.873C99.5445 106.204 99.2355 106.472 98.8545 106.472ZM93.1615 106.472H90.2285C89.8475 106.472 89.5385 106.204 89.5385 105.873C89.5385 105.543 89.8475 105.274 90.2285 105.274H93.1615C93.5425 105.274 93.8515 105.543 93.8515 105.873C93.8515 106.204 93.5425 106.472 93.1615 106.472ZM87.4675 106.472H84.5345C84.1535 106.472 83.8445 106.204 83.8445 105.873C83.8445 105.543 84.1535 105.274 84.5345 105.274H87.4675C87.8485 105.274 88.1575 105.543 88.1575 105.873C88.1575 106.204 87.8485 106.472 87.4675 106.472ZM81.7745 106.472H81.7115C81.3305 106.472 81.0215 106.204 81.0215 105.873C81.0215 105.543 81.3305 105.274 81.7115 105.274H81.7745C82.1555 105.274 82.4645 105.543 82.4645 105.873C82.4645 106.204 82.1555 106.472 81.7745 106.472Z" fill="#B4CAE3"/>
<path d="M464.713 203.107H466.179C466.56 203.107 466.869 202.839 466.869 202.508V201.236C466.869 200.905 466.56 200.637 466.179 200.637C465.798 200.637 465.489 200.905 465.489 201.236V201.909H464.713C464.332 201.909 464.023 202.177 464.023 202.508C464.023 202.838 464.332 203.107 464.713 203.107Z" fill="#B4CAE3"/>
<path d="M424.351 202.507C424.351 202.176 424.66 201.908 425.041 201.908H427.961C428.342 201.908 428.651 202.176 428.651 202.507C428.651 202.838 428.342 203.106 427.961 203.106H425.041C424.66 203.107 424.351 202.838 424.351 202.507ZM430.018 202.507C430.018 202.176 430.327 201.908 430.708 201.908H433.628C434.009 201.908 434.318 202.176 434.318 202.507C434.318 202.838 434.009 203.106 433.628 203.106H430.708C430.327 203.107 430.018 202.838 430.018 202.507ZM435.686 202.507C435.686 202.176 435.995 201.908 436.376 201.908H439.296C439.677 201.908 439.986 202.176 439.986 202.507C439.986 202.838 439.677 203.106 439.296 203.106H436.376C435.995 203.107 435.686 202.838 435.686 202.507ZM441.354 202.507C441.354 202.176 441.663 201.908 442.044 201.908H444.964C445.345 201.908 445.654 202.176 445.654 202.507C445.654 202.838 445.345 203.106 444.964 203.106H442.044C441.663 203.107 441.354 202.838 441.354 202.507ZM447.021 202.507C447.021 202.176 447.33 201.908 447.711 201.908H450.631C451.012 201.908 451.321 202.176 451.321 202.507C451.321 202.838 451.012 203.106 450.631 203.106H447.711C447.33 203.107 447.021 202.838 447.021 202.507ZM452.689 202.507C452.689 202.176 452.998 201.908 453.379 201.908H456.299C456.68 201.908 456.989 202.176 456.989 202.507C456.989 202.838 456.68 203.106 456.299 203.106H453.379C452.998 203.107 452.689 202.838 452.689 202.507ZM458.357 202.507C458.357 202.176 458.666 201.908 459.047 201.908H461.967C462.348 201.908 462.657 202.176 462.657 202.507C462.657 202.838 462.348 203.106 461.967 203.106H459.047C458.666 203.107 458.357 202.838 458.357 202.507Z" fill="#B4CAE3"/>
<path d="M420.826 203.107H422.293C422.674 203.107 422.983 202.839 422.983 202.508C422.983 202.177 422.674 201.909 422.293 201.909H421.517V201.236C421.517 200.905 421.208 200.637 420.827 200.637C420.446 200.637 420.137 200.905 420.137 201.236V202.508C420.136 202.838 420.445 203.107 420.826 203.107Z" fill="#B4CAE3"/>
<path d="M420.136 198.941V196.504C420.136 196.174 420.445 195.905 420.826 195.905C421.207 195.905 421.516 196.174 421.516 196.504V198.941C421.516 199.272 421.207 199.54 420.826 199.54C420.445 199.54 420.136 199.272 420.136 198.941ZM420.136 194.211V191.774C420.136 191.443 420.445 191.175 420.826 191.175C421.207 191.175 421.516 191.443 421.516 191.774V194.211C421.516 194.542 421.207 194.81 420.826 194.81C420.445 194.81 420.136 194.542 420.136 194.211ZM420.136 189.481V187.044C420.136 186.714 420.445 186.445 420.826 186.445C421.207 186.445 421.516 186.714 421.516 187.044V189.481C421.516 189.811 421.207 190.08 420.826 190.08C420.445 190.08 420.136 189.811 420.136 189.481ZM420.136 184.75V182.313C420.136 181.982 420.445 181.714 420.826 181.714C421.207 181.714 421.516 181.982 421.516 182.313V184.75C421.516 185.081 421.207 185.349 420.826 185.349C420.445 185.349 420.136 185.081 420.136 184.75ZM420.136 180.02V177.582C420.136 177.252 420.445 176.983 420.826 176.983C421.207 176.983 421.516 177.252 421.516 177.582V180.02C421.516 180.35 421.207 180.619 420.826 180.619C420.445 180.619 420.136 180.35 420.136 180.02ZM420.136 175.289V172.852C420.136 172.521 420.445 172.253 420.826 172.253C421.207 172.253 421.516 172.521 421.516 172.852V175.289C421.516 175.62 421.207 175.888 420.826 175.888C420.445 175.888 420.136 175.62 420.136 175.289Z" fill="#B4CAE3"/>
<path d="M420.826 171.158C421.207 171.158 421.516 170.89 421.516 170.559V169.885H422.292C422.673 169.885 422.982 169.617 422.982 169.286C422.982 168.956 422.673 168.688 422.292 168.688H420.825C420.444 168.688 420.135 168.956 420.135 169.286V170.559C420.136 170.89 420.445 171.158 420.826 171.158Z" fill="#B4CAE3"/>
<path d="M424.351 169.286C424.351 168.956 424.66 168.688 425.041 168.688H427.961C428.342 168.688 428.651 168.956 428.651 169.286C428.651 169.617 428.342 169.885 427.961 169.885H425.041C424.66 169.885 424.351 169.617 424.351 169.286ZM430.018 169.286C430.018 168.956 430.327 168.688 430.708 168.688H433.628C434.009 168.688 434.318 168.956 434.318 169.286C434.318 169.617 434.009 169.885 433.628 169.885H430.708C430.327 169.885 430.018 169.617 430.018 169.286ZM435.686 169.286C435.686 168.956 435.995 168.688 436.376 168.688H439.296C439.677 168.688 439.986 168.956 439.986 169.286C439.986 169.617 439.677 169.885 439.296 169.885H436.376C435.995 169.885 435.686 169.617 435.686 169.286ZM441.354 169.286C441.354 168.956 441.663 168.688 442.044 168.688H444.964C445.345 168.688 445.654 168.956 445.654 169.286C445.654 169.617 445.345 169.885 444.964 169.885H442.044C441.663 169.885 441.354 169.617 441.354 169.286ZM447.021 169.286C447.021 168.956 447.33 168.688 447.711 168.688H450.631C451.012 168.688 451.321 168.956 451.321 169.286C451.321 169.617 451.012 169.885 450.631 169.885H447.711C447.33 169.885 447.021 169.617 447.021 169.286ZM452.689 169.286C452.689 168.956 452.998 168.688 453.379 168.688H456.299C456.68 168.688 456.989 168.956 456.989 169.286C456.989 169.617 456.68 169.885 456.299 169.885H453.379C452.998 169.885 452.689 169.617 452.689 169.286ZM458.357 169.286C458.357 168.956 458.666 168.688 459.047 168.688H461.967C462.348 168.688 462.657 168.956 462.657 169.286C462.657 169.617 462.348 169.885 461.967 169.885H459.047C458.666 169.885 458.357 169.617 458.357 169.286Z" fill="#B4CAE3"/>
<path d="M466.18 171.158C466.561 171.158 466.87 170.89 466.87 170.559V169.286C466.87 168.956 466.561 168.688 466.18 168.688H464.714C464.333 168.688 464.024 168.956 464.024 169.286C464.024 169.617 464.333 169.885 464.714 169.885H465.49V170.559C465.49 170.89 465.799 171.158 466.18 171.158Z" fill="#B4CAE3"/>
<path d="M465.49 198.941V196.504C465.49 196.174 465.799 195.905 466.18 195.905C466.561 195.905 466.87 196.174 466.87 196.504V198.941C466.87 199.272 466.561 199.54 466.18 199.54C465.799 199.54 465.49 199.272 465.49 198.941ZM465.49 194.211V191.774C465.49 191.443 465.799 191.175 466.18 191.175C466.561 191.175 466.87 191.443 466.87 191.774V194.211C466.87 194.542 466.561 194.81 466.18 194.81C465.799 194.81 465.49 194.542 465.49 194.211ZM465.49 189.481V187.044C465.49 186.714 465.799 186.445 466.18 186.445C466.561 186.445 466.87 186.714 466.87 187.044V189.481C466.87 189.811 466.561 190.08 466.18 190.08C465.799 190.08 465.49 189.811 465.49 189.481ZM465.49 184.75V182.313C465.49 181.982 465.799 181.714 466.18 181.714C466.561 181.714 466.87 181.982 466.87 182.313V184.75C466.87 185.081 466.561 185.349 466.18 185.349C465.799 185.349 465.49 185.081 465.49 184.75ZM465.49 180.02V177.582C465.49 177.252 465.799 176.983 466.18 176.983C466.561 176.983 466.87 177.252 466.87 177.582V180.02C466.87 180.35 466.561 180.619 466.18 180.619C465.799 180.619 465.49 180.35 465.49 180.02ZM465.49 175.289V172.852C465.49 172.521 465.799 172.253 466.18 172.253C466.561 172.253 466.87 172.521 466.87 172.852V175.289C466.87 175.62 466.561 175.888 466.18 175.888C465.799 175.888 465.49 175.62 465.49 175.289Z" fill="#B4CAE3"/>
<path d="M417.959 187.463H415.026C414.645 187.463 414.336 187.731 414.336 188.062C414.336 188.392 414.645 188.661 415.026 188.661H417.959C418.34 188.661 418.649 188.392 418.649 188.062C418.649 187.731 418.34 187.463 417.959 187.463Z" fill="#B4CAE3"/>
<path d="M411.625 187.463H410.926V188.661H411.625C412.006 188.661 412.315 188.392 412.315 188.062C412.315 187.731 412.007 187.463 411.625 187.463Z" fill="#B4CAE3"/>
<path d="M420.781 187.463H420.718C420.337 187.463 420.028 187.731 420.028 188.062C420.028 188.392 420.337 188.661 420.718 188.661H420.781C421.162 188.661 421.471 188.392 421.471 188.062C421.471 187.731 421.162 187.463 420.781 187.463Z" fill="#B4CAE3"/>
<path d="M444.13 193.489C439.207 193.489 435.202 190.013 435.202 185.741C435.202 184.617 435.486 183.553 435.986 182.589L436.358 185.815C436.403 186.202 436.778 186.491 437.216 186.491C437.266 186.491 437.316 186.487 437.367 186.479C437.818 186.414 438.12 186.037 438.074 185.642L437.501 180.666C437.453 180.253 437.024 179.954 436.555 179.994L430.818 180.492C430.407 180.528 430.061 180.803 430.021 181.16C429.966 181.65 430.435 182.031 430.967 181.987L433.898 181.732C433.125 183.213 432.757 184.887 432.946 186.651C433.436 191.23 437.632 194.934 442.898 195.431C444.193 195.553 445.449 195.479 446.633 195.243C447.492 195.071 447.811 194.16 447.213 193.598C447.207 193.593 447.202 193.587 447.196 193.582C446.918 193.321 446.498 193.219 446.098 193.298C445.466 193.422 444.807 193.489 444.13 193.489Z" fill="#007EFF"/>
<path d="M458.872 188.158C458.686 187.692 458.075 187.514 457.612 187.751L454.561 189.316C455.071 188.208 455.36 187.004 455.36 185.739C455.36 180.364 450.322 175.99 444.129 175.99C443.512 175.99 442.908 176.036 442.319 176.122C441.42 176.253 441.068 177.218 441.704 177.786C441.71 177.791 441.716 177.797 441.722 177.803C441.985 178.038 442.364 178.143 442.737 178.09C443.19 178.026 443.655 177.991 444.129 177.991C449.052 177.991 453.056 181.467 453.056 185.74C453.056 186.734 452.834 187.682 452.438 188.555L450.866 186.248C450.616 185.881 450.061 185.766 449.645 186.005C449.254 186.229 449.165 186.698 449.404 187.047L452.326 191.336C452.487 191.572 452.775 191.704 453.071 191.704C453.22 191.704 453.372 191.67 453.51 191.6L458.472 189.053C458.827 188.87 459.007 188.496 458.872 188.158Z" fill="#007EFF"/>
</svg>
