<svg width="500" height="500" viewBox="0 0 500 500" fill="none" xmlns="http://www.w3.org/2000/svg">
<path d="M476.167 395.505C476.167 410.014 377.913 421.776 256.71 421.776C135.507 421.776 37.253 410.014 37.253 395.505C37.253 380.996 135.507 369.235 256.71 369.235C377.913 369.235 476.167 380.997 476.167 395.505Z" fill="#D9E4F5"/>
<path d="M140.767 86.048C140.767 87.0851 140.344 88.031 139.656 88.715C138.976 89.404 138.03 89.8271 136.993 89.8271H56.21C54.135 89.8271 52.435 88.1271 52.435 86.048C52.435 85.01 52.858 84.0651 53.546 83.3811C54.226 82.6921 55.172 82.2691 56.209 82.2691H60.027C61.535 78.7651 65.018 76.3161 69.071 76.3161C71.799 76.3161 74.266 77.4271 76.053 79.2191C78.433 75.1831 82.822 72.4721 87.847 72.4721C89.229 72.4721 90.558 72.6811 91.813 73.0601C94.441 68.1171 99.637 64.7531 105.625 64.7531C112.817 64.7531 118.867 69.6091 120.693 76.2161C122.018 75.5541 123.513 75.1741 125.099 75.1741C129.584 75.1741 133.367 78.168 134.557 82.2701H136.989C139.067 82.2691 140.767 83.969 140.767 86.048Z" fill="#D9E4F5"/>
<path d="M419.627 92.8361C419.627 93.8731 419.204 94.8191 418.516 95.5041C417.836 96.1931 416.89 96.6151 415.853 96.6151H335.07C332.995 96.6151 331.295 94.9151 331.295 92.8361C331.295 91.7991 331.718 90.8531 332.406 90.1691C333.086 89.4801 334.032 89.0571 335.069 89.0571H338.887C340.395 85.5531 343.878 83.1031 347.931 83.1031C350.659 83.1031 353.126 84.2141 354.914 86.0061C357.294 81.9701 361.683 79.2591 366.708 79.2591C368.09 79.2591 369.419 79.4681 370.674 79.8471C373.302 74.9051 378.498 71.5391 384.486 71.5391C391.678 71.5391 397.728 76.3951 399.554 83.0021C400.879 82.3391 402.374 81.9601 403.961 81.9601C408.446 81.9601 412.229 84.9541 413.419 89.0561H415.851C417.927 89.0571 419.627 90.7571 419.627 92.8361Z" fill="#D9E4F5"/>
<path d="M280.249 108.413C280.249 109.45 279.826 110.396 279.138 111.081C278.458 111.77 277.512 112.192 276.475 112.192H195.693C193.618 112.192 191.918 110.492 191.918 108.413C191.918 107.376 192.341 106.43 193.03 105.746C193.71 105.057 194.656 104.634 195.693 104.634H199.511C201.019 101.13 204.502 98.6801 208.555 98.6801C211.283 98.6801 213.75 99.7911 215.538 101.583C217.918 97.5471 222.307 94.8361 227.332 94.8361C228.714 94.8361 230.043 95.0451 231.298 95.4241C233.926 90.4811 239.122 87.1161 245.111 87.1161C252.303 87.1161 258.353 91.9721 260.179 98.5791C261.504 97.9161 262.999 97.5371 264.586 97.5371C269.071 97.5371 272.854 100.531 274.044 104.633H276.476C278.549 104.634 280.249 106.334 280.249 108.413Z" fill="#D9E4F5"/>
<path d="M453.814 283.626C445.28 297.123 457.78 295.286 451.572 305.426C445.913 314.669 433.376 309.742 438.275 328.095C439.347 332.11 437.077 335.78 433.288 338.252C427.054 342.318 419.869 341.478 414.719 337.747C414.301 337.447 413.896 337.125 413.507 336.784C409.438 333.239 407.005 327.74 408.024 321.516C408.851 316.466 411.138 311.165 416.6 308.027C429.415 300.663 417.654 284.143 429.117 280.717C442.94 276.584 442.282 271.321 450.682 262.131C459.585 252.389 465.38 265.334 453.814 283.626Z" fill="#C7D9ED"/>
<path d="M447.518 278.723C447.282 279.11 427.676 311.209 414.72 337.748C414.302 337.448 413.897 337.126 413.508 336.785C426.51 310.222 445.993 278.32 446.231 277.933C446.449 277.577 446.914 277.466 447.27 277.684C447.624 277.902 447.735 278.367 447.518 278.723Z" fill="#B4CAE3"/>
<path d="M464.934 319.754C449.965 333.807 466.115 335.545 455.123 346.169C445.102 355.852 431.083 345.682 431.271 370.104C431.312 375.446 427.304 379.284 421.793 381.141C412.724 384.195 404.05 380.835 398.841 374.533C398.417 374.025 398.016 373.494 397.642 372.944C393.718 367.221 392.461 359.593 395.734 352.173C398.389 346.153 402.943 340.292 410.752 338.144C429.075 333.104 419.756 308.754 435.127 308.18C453.665 307.487 454.541 300.724 467.956 291.989C482.176 282.73 485.221 300.71 464.934 319.754Z" fill="#D9E4F5"/>
<path d="M458.675 311.623C458.256 312.028 423.514 345.671 398.841 374.534C398.417 374.026 398.016 373.495 397.642 372.945C422.381 344.067 456.905 310.631 457.326 310.226C457.712 309.853 458.327 309.864 458.7 310.25C459.072 310.635 459.061 311.25 458.675 311.623Z" fill="#C7D9ED"/>
<path d="M56.42 170.636C65.71 183.625 53.126 182.503 59.902 192.273C66.079 201.178 78.315 195.543 74.47 214.146C73.629 218.215 76.105 221.75 80.028 224.002C86.483 227.706 93.609 226.457 98.538 222.439C98.938 222.116 99.325 221.771 99.694 221.409C103.554 217.638 105.67 212.009 104.296 205.853C103.182 200.858 100.597 195.697 94.965 192.875C81.751 186.254 92.55 169.09 80.91 166.324C66.874 162.986 67.23 157.694 58.32 148.999C48.876 139.78 43.829 153.034 56.42 170.636Z" fill="#C7D9ED"/>
<path d="M62.426 165.381C62.684 165.754 84.09 196.682 98.539 222.438C98.939 222.115 99.326 221.77 99.695 221.408C85.198 195.63 63.927 164.892 63.668 164.519C63.43 164.176 62.959 164.091 62.617 164.329C62.273 164.568 62.188 165.039 62.426 165.381Z" fill="#B4CAE3"/>
<path d="M48.419 212.15C64.556 224.845 48.618 227.984 60.495 237.609C71.321 246.381 84.401 235.028 86.342 259.374C86.767 264.7 91.094 268.173 96.746 269.543C106.047 271.795 114.394 267.691 119.035 260.96C119.413 260.417 119.766 259.853 120.091 259.273C123.501 253.23 124.089 245.521 120.181 238.415C117.011 232.65 111.964 227.207 103.997 225.748C85.305 222.325 92.465 197.254 77.102 198.023C58.575 198.948 57.112 192.287 42.987 184.756C28.015 176.769 26.549 194.946 48.419 212.15Z" fill="#D9E4F5"/>
<path d="M53.945 203.503C54.397 203.87 91.94 234.356 119.035 260.958C119.413 260.415 119.766 259.851 120.091 259.271C92.929 232.659 55.621 202.36 55.167 201.993C54.75 201.655 54.139 201.72 53.801 202.137C53.463 202.554 53.528 203.166 53.945 203.503Z" fill="#C7D9ED"/>
<path d="M379.223 126.623C369.933 139.612 382.517 138.49 375.741 148.26C369.564 157.165 357.328 151.53 361.172 170.133C362.013 174.202 359.537 177.737 355.614 179.989C349.158 183.693 342.032 182.444 337.104 178.426C336.704 178.103 336.317 177.758 335.948 177.396C332.088 173.625 329.973 167.996 331.346 161.84C332.46 156.845 335.045 151.684 340.677 148.862C353.891 142.241 343.093 125.077 354.732 122.311C368.768 118.973 368.412 113.681 377.322 104.986C386.767 95.766 391.814 109.021 379.223 126.623Z" fill="#C7D9ED"/>
<path d="M373.217 121.368C372.959 121.741 351.553 152.669 337.104 178.425C336.704 178.102 336.317 177.757 335.948 177.395C350.445 151.617 371.716 120.879 371.975 120.506C372.213 120.163 372.684 120.078 373.026 120.316C373.37 120.554 373.455 121.025 373.217 121.368Z" fill="#B4CAE3"/>
<path d="M409.165 144.301C393.028 156.996 408.966 160.135 397.089 169.76C386.263 178.532 373.183 167.179 371.242 191.525C370.817 196.851 366.49 200.324 360.838 201.694C351.537 203.946 343.19 199.842 338.549 193.111C338.171 192.568 337.818 192.004 337.493 191.424C334.083 185.381 333.495 177.672 337.403 170.566C340.573 164.801 345.62 159.358 353.587 157.899C372.279 154.476 365.119 129.406 380.482 130.174C399.009 131.099 400.472 124.438 414.597 116.907C429.569 108.921 431.035 127.097 409.165 144.301Z" fill="#D9E4F5"/>
<path d="M403.639 135.655C403.187 136.022 365.644 166.508 338.549 193.11C338.171 192.567 337.818 192.003 337.493 191.423C364.655 164.811 401.963 134.512 402.417 134.145C402.834 133.807 403.445 133.872 403.783 134.289C404.12 134.705 404.055 135.317 403.639 135.655Z" fill="#C7D9ED"/>
<path d="M174.812 158.74C168.498 154.416 152.686 165.081 144.417 178.03L151.752 157.481C154.407 155.178 159.054 151.947 166.318 149.373C177.613 145.37 188.934 139.098 182.609 134.767C176.681 130.708 162.382 139.86 153.812 151.71L163.232 125.321C164.985 123.973 167.652 122.336 171.463 120.985C178.582 118.462 185.716 114.51 181.73 111.78C178.271 109.411 170.286 114.182 164.835 120.831L167.888 112.278C169.284 109.793 171.27 106.243 174.4 103.004C181.652 95.5009 187.135 87.0599 181.542 85.8369C175.944 84.6129 166.782 99.3159 165.34 112.6L163.769 117.001C164.989 107.339 161.516 95.6409 156.671 95.2269C151.857 94.8149 154.876 102.392 158.788 108.853C161.766 113.771 162.588 117.673 162.808 119.692L155.387 140.48C157.275 125.173 151.774 106.715 144.108 106.06C136.47 105.407 141.26 117.429 147.467 127.68C152.158 135.427 153.479 141.588 153.84 144.812L144.942 169.74C146.52 154.615 141.109 136.258 133.563 136.198C127.745 136.152 129.526 144.366 136.475 155.962C141.197 163.842 142.708 170.919 143.191 174.645L139 186.387C139.702 186.884 140.433 187.144 141.158 187.157L142.826 182.485C145.182 180.206 150.089 176.333 158.521 173.345C169.816 169.342 181.137 163.071 174.812 158.74Z" fill="#D9E4F5"/>
<path d="M94.818 376.143H98.318L98.195 376.036C96.925 373.015 95.094 367.037 95.364 358.096C95.726 346.118 93.984 333.294 87.655 337.619C81.337 341.937 85.546 360.539 94.619 372.939L78.125 358.655C76.941 355.346 75.614 349.844 75.847 342.141C76.209 330.163 74.467 317.339 68.138 321.664C62.207 325.718 65.554 342.362 73.493 354.643L52.312 336.3C51.691 334.178 51.131 331.099 51.254 327.057C51.482 319.508 50.384 311.426 46.395 314.152C42.933 316.518 44.486 325.688 48.708 333.179L41.843 327.234C40.033 325.032 37.444 321.894 35.56 317.804C31.195 308.326 25.315 300.156 22.149 304.926C18.979 309.7 29.363 323.567 41.221 329.725L44.754 332.784C36.191 328.145 24.029 327.143 21.887 331.508C19.759 335.845 27.915 335.777 35.354 334.473C41.017 333.48 44.951 334.128 46.913 334.654L63.598 349.104C50.016 341.797 30.819 340.235 27.43 347.142C24.053 354.024 36.994 353.916 48.798 351.846C57.718 350.282 63.939 351.283 67.075 352.115L87.084 369.443C73.559 362.491 54.489 360.881 51.699 367.892C49.548 373.298 57.849 374.615 71.175 372.34C80.231 370.794 87.374 371.952 91.022 372.852L94.818 376.143Z" fill="#D9E4F5"/>
<path d="M443.452 135.088C440.816 135.088 438.671 132.943 438.671 130.307C438.671 127.671 440.816 125.526 443.452 125.526C446.089 125.526 448.233 127.671 448.233 130.307C448.233 132.943 446.088 135.088 443.452 135.088ZM443.452 133.588C445.261 133.588 446.733 132.116 446.733 130.307C446.733 128.498 445.261 127.026 443.452 127.026C441.643 127.026 440.171 128.498 440.171 130.307C440.171 132.116 441.643 133.588 443.452 133.588Z" fill="#00468E"/>
<path d="M448.316 159.389C445.679 159.389 443.535 157.244 443.535 154.608C443.535 151.972 445.68 149.827 448.316 149.827C450.953 149.827 453.097 151.972 453.097 154.608C453.097 157.244 450.953 159.389 448.316 159.389ZM448.316 157.889C450.125 157.889 451.597 156.417 451.597 154.608C451.597 152.799 450.125 151.327 448.316 151.327C446.506 151.327 445.035 152.799 445.035 154.608C445.035 156.417 446.507 157.889 448.316 157.889Z" fill="#0060E6"/>
<path d="M462.86 166.122C462.86 165.708 462.524 165.372 462.11 165.372H458.802C458.388 165.372 458.052 165.708 458.052 166.122C458.052 166.536 458.388 166.872 458.802 166.872H462.11C462.524 166.872 462.86 166.536 462.86 166.122Z" fill="#00468E"/>
<path d="M468.648 166.122C468.648 165.708 468.312 165.372 467.898 165.372H464.591C464.177 165.372 463.841 165.708 463.841 166.122C463.841 166.536 464.177 166.872 464.591 166.872H467.898C468.312 166.872 468.648 166.536 468.648 166.122Z" fill="#00468E"/>
<path d="M464.101 170.765V167.794C464.101 167.38 463.765 167.044 463.351 167.044C462.937 167.044 462.601 167.38 462.601 167.794V170.765C462.601 171.179 462.937 171.515 463.351 171.515C463.765 171.515 464.101 171.179 464.101 170.765Z" fill="#00468E"/>
<path d="M464.101 164.451V161.48C464.101 161.066 463.765 160.73 463.351 160.73C462.937 160.73 462.601 161.066 462.601 161.48V164.451C462.601 164.865 462.937 165.201 463.351 165.201C463.765 165.201 464.101 164.865 464.101 164.451Z" fill="#00468E"/>
<path d="M457.467 140.585C457.467 140.171 457.131 139.835 456.717 139.835H453.409C452.995 139.835 452.659 140.171 452.659 140.585C452.659 140.999 452.995 141.335 453.409 141.335H456.717C457.131 141.335 457.467 140.999 457.467 140.585Z" fill="#0060E6"/>
<path d="M463.255 140.585C463.255 140.171 462.919 139.835 462.505 139.835H459.198C458.784 139.835 458.448 140.171 458.448 140.585C458.448 140.999 458.784 141.335 459.198 141.335H462.505C462.919 141.335 463.255 140.999 463.255 140.585Z" fill="#0060E6"/>
<path d="M458.707 145.227V142.256C458.707 141.842 458.371 141.506 457.957 141.506C457.543 141.506 457.207 141.842 457.207 142.256V145.227C457.207 145.641 457.543 145.977 457.957 145.977C458.371 145.977 458.707 145.641 458.707 145.227Z" fill="#0060E6"/>
<path d="M458.707 138.913V135.942C458.707 135.528 458.371 135.192 457.957 135.192C457.543 135.192 457.207 135.528 457.207 135.942V138.913C457.207 139.327 457.543 139.663 457.957 139.663C458.371 139.663 458.707 139.327 458.707 138.913Z" fill="#0060E6"/>
<path d="M47.135 291.077C47.135 293.713 44.99 295.858 42.354 295.858C39.718 295.858 37.573 293.713 37.573 291.077C37.573 288.441 39.718 286.296 42.354 286.296C44.99 286.295 47.135 288.44 47.135 291.077ZM39.072 291.077C39.072 292.886 40.544 294.358 42.353 294.358C44.162 294.358 45.634 292.886 45.634 291.077C45.634 289.268 44.162 287.796 42.353 287.796C40.544 287.795 39.072 289.267 39.072 291.077Z" fill="#00468E"/>
<path d="M51.999 266.776C51.999 269.412 49.854 271.557 47.218 271.557C44.582 271.557 42.437 269.412 42.437 266.776C42.437 264.14 44.582 261.995 47.218 261.995C49.855 261.994 51.999 264.139 51.999 266.776ZM43.937 266.776C43.937 268.585 45.409 270.057 47.218 270.057C49.027 270.057 50.499 268.585 50.499 266.776C50.499 264.967 49.027 263.495 47.218 263.495C45.409 263.494 43.937 264.966 43.937 266.776Z" fill="#0060E6"/>
<path d="M61.762 255.261C61.762 255.675 61.426 256.011 61.012 256.011H57.704C57.29 256.011 56.954 255.675 56.954 255.261C56.954 254.847 57.29 254.511 57.704 254.511H61.012C61.426 254.511 61.762 254.847 61.762 255.261Z" fill="#00468E"/>
<path d="M67.55 255.261C67.55 255.675 67.214 256.011 66.8 256.011H63.493C63.079 256.011 62.743 255.675 62.743 255.261C62.743 254.847 63.079 254.511 63.493 254.511H66.8C67.214 254.511 67.55 254.847 67.55 255.261Z" fill="#00468E"/>
<path d="M63.002 250.618V253.589C63.002 254.003 62.666 254.339 62.252 254.339C61.838 254.339 61.502 254.003 61.502 253.589V250.618C61.502 250.204 61.838 249.868 62.252 249.868C62.667 249.868 63.002 250.204 63.002 250.618Z" fill="#00468E"/>
<path d="M63.002 256.932V259.903C63.002 260.317 62.666 260.653 62.252 260.653C61.838 260.653 61.502 260.317 61.502 259.903V256.932C61.502 256.518 61.838 256.182 62.252 256.182C62.667 256.182 63.002 256.518 63.002 256.932Z" fill="#00468E"/>
<path d="M56.368 280.799C56.368 281.213 56.032 281.549 55.618 281.549H52.311C51.897 281.549 51.561 281.213 51.561 280.799C51.561 280.385 51.897 280.049 52.311 280.049H55.618C56.033 280.048 56.368 280.384 56.368 280.799Z" fill="#0060E6"/>
<path d="M62.157 280.799C62.157 281.213 61.821 281.549 61.407 281.549H58.1C57.686 281.549 57.35 281.213 57.35 280.799C57.35 280.385 57.686 280.049 58.1 280.049H61.407C61.821 280.048 62.157 280.384 62.157 280.799Z" fill="#0060E6"/>
<path d="M57.609 276.156V279.127C57.609 279.541 57.273 279.877 56.859 279.877C56.445 279.877 56.109 279.541 56.109 279.127V276.156C56.109 275.742 56.445 275.406 56.859 275.406C57.273 275.406 57.609 275.742 57.609 276.156Z" fill="#0060E6"/>
<path d="M57.609 282.47V285.441C57.609 285.855 57.273 286.191 56.859 286.191C56.445 286.191 56.109 285.855 56.109 285.441V282.47C56.109 282.056 56.445 281.72 56.859 281.72C57.273 281.72 57.609 282.056 57.609 282.47Z" fill="#0060E6"/>
<path d="M280.68 121.772L280.517 127.47L285.856 127.623C286.086 128.981 286.545 130.304 287.213 131.548L283.43 135.12L287.344 139.265L290.965 135.847C292.384 136.877 293.969 137.588 295.62 137.965L295.466 143.305L301.164 143.468L301.322 137.965C302.444 137.713 303.534 137.31 304.57 136.752L308.142 140.536L312.287 136.622L308.869 133.001C309.899 131.582 310.61 129.997 310.987 128.346L315.654 128.481L315.818 122.782L310.986 122.643C310.665 121.212 310.102 119.826 309.283 118.551L312.905 115.132L308.991 110.987L305.207 114.559C303.807 113.698 302.277 113.13 300.699 112.856L300.854 107.484L295.156 107.321L294.988 113.144C293.797 113.48 292.647 113.992 291.573 114.681L288.155 111.059L284.01 114.973L287.581 118.756C286.965 119.758 286.5 120.824 286.183 121.93L280.68 121.772ZM294.906 121.673C297.001 119.695 300.314 119.79 302.292 121.886C304.27 123.981 304.175 127.294 302.08 129.272C299.985 131.25 296.672 131.155 294.694 129.06C292.716 126.964 292.811 123.651 294.906 121.673Z" fill="#00468E"/>
<path d="M299.378 133.708C303.988 133.213 307.323 129.074 306.827 124.464C306.331 119.854 302.193 116.519 297.583 117.015C292.973 117.511 289.638 121.649 290.134 126.259C290.63 130.868 294.768 134.203 299.378 133.708ZM294.906 121.673C297.001 119.695 300.314 119.79 302.292 121.886C304.27 123.981 304.175 127.294 302.08 129.272C299.985 131.25 296.672 131.155 294.694 129.06C292.716 126.964 292.811 123.651 294.906 121.673Z" fill="#0060E6"/>
<path d="M318.175 124.202L318.08 127.511L321.18 127.6C321.313 128.389 321.58 129.157 321.968 129.879L319.771 131.953L322.044 134.36L324.147 132.375C324.971 132.973 325.891 133.386 326.85 133.605L326.761 136.706L330.07 136.801L330.162 133.605C330.813 133.459 331.447 133.225 332.048 132.901L334.122 135.098L336.529 132.825L334.544 130.723C335.142 129.899 335.555 128.979 335.774 128.02L338.484 128.098L338.579 124.789L335.773 124.708C335.586 123.877 335.26 123.072 334.784 122.332L336.887 120.347L334.615 117.94L332.418 120.014C331.605 119.514 330.717 119.184 329.8 119.025L329.89 115.906L326.581 115.811L326.483 119.193C325.792 119.388 325.124 119.685 324.5 120.086L322.515 117.983L320.108 120.256L322.182 122.453C321.824 123.035 321.554 123.654 321.37 124.296L318.175 124.202ZM326.436 124.144C327.653 122.995 329.577 123.051 330.725 124.267C331.873 125.484 331.818 127.407 330.602 128.556C329.385 129.705 327.461 129.649 326.313 128.433C325.164 127.217 325.219 125.293 326.436 124.144Z" fill="#00468E"/>
<path d="M329.033 131.133C331.71 130.845 333.647 128.442 333.359 125.765C333.071 123.088 330.668 121.151 327.991 121.439C325.314 121.727 323.377 124.13 323.665 126.807C323.953 129.484 326.356 131.42 329.033 131.133ZM326.436 124.144C327.653 122.995 329.577 123.051 330.725 124.267C331.873 125.484 331.818 127.407 330.602 128.556C329.385 129.705 327.461 129.649 326.313 128.433C325.164 127.217 325.219 125.293 326.436 124.144Z" fill="#0060E6"/>
<path d="M53.714 250.754L53.704 250.769H53.721L53.714 250.754Z" fill="#0060E6"/>
<path d="M53.705 250.768L53.641 250.855L53.661 250.768H53.705Z" fill="#0060E6"/>
<path d="M421.922 154.533V400.87C421.922 403.153 420.07 405.003 417.787 405.003H80.722C79.66 405.003 78.696 404.604 77.961 403.947C77.12 403.19 76.588 402.092 76.588 400.869V154.533C76.588 152.25 78.438 150.398 80.721 150.398H417.785C419.146 150.398 420.356 151.058 421.11 152.074C421.62 152.76 421.922 153.611 421.922 154.533Z" fill="#3B3E7D"/>
<path d="M421.922 154.533V400.87C421.922 403.153 420.07 405.003 417.787 405.003H80.722C79.66 405.003 78.696 404.604 77.961 403.947L421.112 152.073C421.62 152.76 421.922 153.611 421.922 154.533Z" fill="#18285D"/>
<path d="M412.102 164.772V390.63C412.102 393.143 410.062 395.183 407.547 395.183H90.961C88.446 395.183 86.408 393.143 86.408 390.63V164.772C86.408 162.257 88.446 160.217 90.961 160.217H407.547C410.062 160.217 412.102 162.257 412.102 164.772Z" fill="white"/>
<path d="M412.102 164.772V180.618H86.408V164.772C86.408 162.257 88.446 160.217 90.961 160.217H407.547C410.062 160.217 412.102 162.257 412.102 164.772Z" fill="#D9E4F5"/>
<path d="M141.614 170.951C141.614 172.447 142.827 173.659 144.322 173.659H381.726C383.222 173.659 384.434 172.446 384.434 170.951C384.434 169.455 383.222 168.243 381.726 168.243H144.322C142.827 168.243 141.614 169.455 141.614 170.951Z" fill="white"/>
<path d="M104.514 170.951V172.958C104.514 173.533 103.891 173.893 103.393 173.605L101.656 172.602L99.918 171.599C99.42 171.311 99.42 170.592 99.918 170.304L101.656 169.301L103.393 168.298C103.891 168.01 104.514 168.37 104.514 168.945V170.951Z" fill="#3B3E7D"/>
<path d="M113.556 170.951V172.958C113.556 173.533 114.179 173.893 114.677 173.605L116.415 172.602L118.153 171.599C118.651 171.311 118.651 170.592 118.153 170.304L116.415 169.301L114.678 168.298C114.18 168.01 113.557 168.37 113.557 168.945L113.556 170.951Z" fill="#3B3E7D"/>
<path d="M395.184 198.187V329.644C395.184 334.32 391.393 338.111 386.717 338.111H119.784C115.108 338.111 111.317 334.319 111.317 329.644V198.187C111.317 193.511 115.109 189.72 119.784 189.72H386.717C391.393 189.72 395.184 193.512 395.184 198.187Z" fill="#D9E4F5"/>
<path d="M395.184 198.187V204.358H111.317V198.187C111.317 193.511 115.109 189.72 119.784 189.72H386.717C391.393 189.72 395.184 193.512 395.184 198.187Z" fill="#B4CAE3"/>
<path d="M367.917 196.896C367.917 198.481 366.632 199.766 365.047 199.766C363.462 199.766 362.177 198.481 362.177 196.896C362.177 195.311 363.462 194.026 365.047 194.026C366.632 194.026 367.917 195.311 367.917 196.896Z" fill="#3B3E7D"/>
<path d="M377.102 196.896C377.102 198.481 375.817 199.766 374.232 199.766C372.647 199.766 371.362 198.481 371.362 196.896C371.362 195.311 372.647 194.026 374.232 194.026C375.817 194.025 377.102 195.311 377.102 196.896Z" fill="#0060E6"/>
<path d="M386.286 196.896C386.286 198.481 385.001 199.766 383.416 199.766C381.831 199.766 380.546 198.481 380.546 196.896C380.546 195.311 381.831 194.026 383.416 194.026C385.001 194.025 386.286 195.311 386.286 196.896Z" fill="#007EFF"/>
<path d="M188.614 212.723H119.013V262.535H188.614V212.723Z" fill="#00468E"/>
<path d="M188.613 249.355L185.23 243.657L174.02 224.778L151.601 262.535H188.613V249.355Z" fill="#18285D"/>
<path d="M146.961 262.535H119.013L132.987 240.017L146.961 217.499L160.935 240.017L174.909 262.535H146.961Z" fill="#3B3E7D"/>
<path d="M137.901 232.098L146.961 238.88L156.021 232.098L146.961 217.499L137.901 232.098Z" fill="white"/>
<path d="M166.39 237.629L174.02 243.657L181.651 237.629L174.02 224.778L166.39 237.629Z" fill="white"/>
<path d="M381.365 276.9H311.764V326.713H381.365V276.9Z" fill="#007EFF"/>
<path d="M381.363 313.532L377.98 307.834L366.771 288.955L344.352 326.713H381.363V313.532Z" fill="#18285D"/>
<path d="M339.712 326.713H311.764L325.738 304.195L339.712 281.677L353.685 304.195L367.659 326.713H339.712Z" fill="#3B3E7D"/>
<path d="M330.652 296.276L339.712 303.057L348.771 296.276L339.712 281.677L330.652 296.276Z" fill="white"/>
<path d="M359.14 301.806L366.771 307.834L374.401 301.806L366.771 288.955L359.14 301.806Z" fill="white"/>
<path d="M185.457 274.657H122.17C120.426 274.657 119.013 273.243 119.013 271.5C119.013 269.756 120.427 268.343 122.17 268.343H185.457C187.201 268.343 188.614 269.756 188.614 271.5C188.614 273.243 187.201 274.657 185.457 274.657Z" fill="#B4CAE3"/>
<path d="M185.457 287.747H122.17C120.426 287.747 119.013 286.334 119.013 284.59C119.013 282.846 120.427 281.433 122.17 281.433H185.457C187.201 281.433 188.614 282.846 188.614 284.59C188.614 286.334 187.201 287.747 185.457 287.747Z" fill="#B4CAE3"/>
<path d="M185.457 300.838H122.17C120.426 300.838 119.013 299.425 119.013 297.681C119.013 295.937 120.427 294.524 122.17 294.524H185.457C187.201 294.524 188.614 295.937 188.614 297.681C188.614 299.425 187.201 300.838 185.457 300.838Z" fill="#B4CAE3"/>
<path d="M185.457 313.929H122.17C120.426 313.929 119.013 312.516 119.013 310.772C119.013 309.028 120.427 307.615 122.17 307.615H185.457C187.201 307.615 188.614 309.028 188.614 310.772C188.614 312.516 187.201 313.929 185.457 313.929Z" fill="#B4CAE3"/>
<path d="M185.457 327.02H122.17C120.426 327.02 119.013 325.607 119.013 323.863C119.013 322.119 120.427 320.706 122.17 320.706H185.457C187.201 320.706 188.614 322.119 188.614 323.863C188.614 325.606 187.201 327.02 185.457 327.02Z" fill="#B4CAE3"/>
<path d="M200.659 215.88C200.659 217.624 202.072 219.037 203.816 219.037H296.087C297.831 219.037 299.244 217.624 299.244 215.88C299.244 214.136 297.831 212.723 296.087 212.723H203.816C202.073 212.723 200.659 214.136 200.659 215.88Z" fill="#B4CAE3"/>
<path d="M200.659 229.378C200.659 231.122 202.072 232.535 203.816 232.535H296.087C297.831 232.535 299.244 231.122 299.244 229.378C299.244 227.635 297.831 226.221 296.087 226.221H203.816C202.073 226.221 200.659 227.634 200.659 229.378Z" fill="#B4CAE3"/>
<path d="M200.659 242.876C200.659 244.62 202.072 246.033 203.816 246.033H296.087C297.831 246.033 299.244 244.62 299.244 242.876C299.244 241.132 297.831 239.719 296.087 239.719H203.816C202.073 239.719 200.659 241.132 200.659 242.876Z" fill="#B4CAE3"/>
<path d="M200.659 256.373C200.659 258.117 202.072 259.53 203.816 259.53H296.087C297.831 259.53 299.244 258.117 299.244 256.373C299.244 254.629 297.831 253.216 296.087 253.216H203.816C202.073 253.216 200.659 254.63 200.659 256.373Z" fill="#B4CAE3"/>
<path d="M200.659 269.871C200.659 271.615 202.072 273.028 203.816 273.028H296.087C297.831 273.028 299.244 271.615 299.244 269.871C299.244 268.128 297.831 266.714 296.087 266.714H203.816C202.073 266.714 200.659 268.128 200.659 269.871Z" fill="#B4CAE3"/>
<path d="M200.659 283.369C200.659 285.113 202.072 286.526 203.816 286.526H296.087C297.831 286.526 299.244 285.113 299.244 283.369C299.244 281.625 297.831 280.212 296.087 280.212H203.816C202.073 280.212 200.659 281.625 200.659 283.369Z" fill="#B4CAE3"/>
<path d="M200.659 296.867C200.659 298.611 202.072 300.024 203.816 300.024H296.087C297.831 300.024 299.244 298.611 299.244 296.867C299.244 295.124 297.831 293.71 296.087 293.71H203.816C202.073 293.71 200.659 295.123 200.659 296.867Z" fill="#B4CAE3"/>
<path d="M200.659 310.365C200.659 312.109 202.072 313.522 203.816 313.522H296.087C297.831 313.522 299.244 312.109 299.244 310.365C299.244 308.621 297.831 307.208 296.087 307.208H203.816C202.073 307.208 200.659 308.621 200.659 310.365Z" fill="#B4CAE3"/>
<path d="M200.659 323.863C200.659 325.607 202.072 327.02 203.816 327.02H296.087C297.831 327.02 299.244 325.607 299.244 323.863C299.244 322.12 297.831 320.706 296.087 320.706H203.816C202.073 320.706 200.659 322.119 200.659 323.863Z" fill="#B4CAE3"/>
<path d="M342.655 215.88C342.655 217.624 344.068 219.037 345.812 219.037H377.267C379.01 219.037 380.424 217.624 380.424 215.88C380.424 214.136 379.01 212.723 377.267 212.723H345.812C344.068 212.723 342.655 214.136 342.655 215.88Z" fill="#B4CAE3"/>
<path d="M342.655 229.378C342.655 231.122 344.068 232.535 345.812 232.535H377.267C379.01 232.535 380.424 231.122 380.424 229.378C380.424 227.634 379.01 226.221 377.267 226.221H345.812C344.068 226.221 342.655 227.634 342.655 229.378Z" fill="#B4CAE3"/>
<path d="M342.655 242.876C342.655 244.619 344.068 246.033 345.812 246.033H377.267C379.01 246.033 380.424 244.62 380.424 242.876C380.424 241.132 379.01 239.719 377.267 239.719H345.812C344.068 239.719 342.655 241.132 342.655 242.876Z" fill="#B4CAE3"/>
<path d="M342.655 256.373C342.655 258.117 344.068 259.53 345.812 259.53H377.267C379.01 259.53 380.424 258.117 380.424 256.373C380.424 254.629 379.01 253.216 377.267 253.216H345.812C344.068 253.216 342.655 254.63 342.655 256.373Z" fill="#B4CAE3"/>
<path d="M342.655 269.871C342.655 271.614 344.068 273.028 345.812 273.028H377.267C379.01 273.028 380.424 271.615 380.424 269.871C380.424 268.127 379.01 266.714 377.267 266.714H345.812C344.068 266.714 342.655 268.128 342.655 269.871Z" fill="#B4CAE3"/>
<path d="M324.553 238.301C331.616 238.301 337.342 232.575 337.342 225.512C337.342 218.449 331.616 212.723 324.553 212.723C317.49 212.723 311.764 218.449 311.764 225.512C311.764 232.575 317.49 238.301 324.553 238.301Z" fill="#B4CAE3"/>
<path d="M324.553 271.611C331.616 271.611 337.342 265.885 337.342 258.822C337.342 251.759 331.616 246.033 324.553 246.033C317.49 246.033 311.764 251.759 311.764 258.822C311.764 265.885 317.49 271.611 324.553 271.611Z" fill="#B4CAE3"/>
<path d="M252.021 0V134.112C252.021 134.791 252.572 135.342 253.251 135.342C253.93 135.342 254.481 134.791 254.481 134.112V0H252.021Z" fill="#007EFF"/>
<path d="M264.636 170.627C264.542 176.565 259.719 181.544 253.787 181.815C247.266 182.113 241.865 176.901 241.865 170.445C241.865 170.001 241.902 169.571 241.954 169.149C243.806 170.46 245.664 171.793 247.597 172.985C248.679 175.388 251.252 176.981 254.137 176.582C256.774 176.218 258.931 174.122 259.366 171.497C259.939 168.042 257.625 164.985 254.455 164.357C252.307 164.353 250.567 162.61 250.567 160.462V159.122H254.455C260.223 159.727 264.729 164.673 264.636 170.627Z" fill="#18285D"/>
<path d="M253.251 191.519C252.572 191.519 252.021 190.968 252.021 190.289V176.642C252.021 175.963 252.572 175.412 253.251 175.412C253.93 175.412 254.481 175.963 254.481 176.642V190.289C254.48 190.968 253.93 191.519 253.251 191.519Z" fill="#00A0FF"/>
<path d="M260.008 152.826H246.678V140.179C246.678 137.552 248.808 135.423 251.434 135.423H255.252C257.879 135.423 260.008 137.552 260.008 140.179V152.826Z" fill="#0060E6"/>
<path d="M260.008 152.826C261.532 157.135 258.499 160.047 256.572 160.047H250.566C247.718 160.047 245.71 156.437 246.678 152.826H260.008Z" fill="#007EFF"/>
<path d="M160.591 438.032C160.591 441.922 127.378 445.076 86.408 445.076C45.438 445.076 12.225 441.922 12.225 438.032C12.225 434.142 45.438 430.988 86.408 430.988C127.379 430.988 160.591 434.142 160.591 438.032Z" fill="#D9E4F5"/>
<path d="M24.741 438.032H140.792V299.112L29.982 431.759L24.741 438.032ZM123.383 420.624H61.965L123.383 347.102V420.624Z" fill="#00468E"/>
<path d="M139.199 326.076H133.283V327.441H139.199V326.076Z" fill="#3B3E7D"/>
<path d="M139.199 333.978H133.283V335.343H139.199V333.978Z" fill="#3B3E7D"/>
<path d="M139.199 341.881H133.283V343.246H139.199V341.881Z" fill="#3B3E7D"/>
<path d="M139.199 349.785H133.283V351.15H139.199V349.785Z" fill="#3B3E7D"/>
<path d="M139.199 357.688H133.283V359.053H139.199V357.688Z" fill="#3B3E7D"/>
<path d="M139.199 365.59H133.283V366.955H139.199V365.59Z" fill="#3B3E7D"/>
<path d="M139.199 373.494H133.283V374.859H139.199V373.494Z" fill="#3B3E7D"/>
<path d="M139.199 381.396H133.283V382.761H139.199V381.396Z" fill="#3B3E7D"/>
<path d="M139.199 389.299H133.283V390.664H139.199V389.299Z" fill="#3B3E7D"/>
<path d="M139.199 397.203H133.283V398.568H139.199V397.203Z" fill="#3B3E7D"/>
<path d="M139.199 405.105H133.283V406.47H139.199V405.105Z" fill="#3B3E7D"/>
<path d="M139.199 413.009H133.283V414.374H139.199V413.009Z" fill="#3B3E7D"/>
<path d="M139.199 420.912H133.283V422.277H139.199V420.912Z" fill="#3B3E7D"/>
<path d="M139.199 428.815H133.283V430.18H139.199V428.815Z" fill="#3B3E7D"/>
<path d="M24.741 438.032H140.792V431.759H29.982L24.741 438.032Z" fill="#0060E6"/>
<path d="M444.286 437.539C444.286 439.75 426.888 441.543 405.426 441.543C383.964 441.543 366.566 439.75 366.566 437.539C366.566 435.327 383.964 433.535 405.426 433.535C426.888 433.535 444.286 435.327 444.286 437.539Z" fill="#D9E4F5"/>
<path d="M377.552 420.699L377.153 427.894L382.991 428.022L383.705 420.463L377.552 420.699Z" fill="#FB9A83"/>
<path d="M379.469 426.883C379.469 426.883 382.474 426.202 383.296 426.25C384.118 426.298 389.395 432.669 391.236 433.102C394.576 433.888 394.381 439.142 392.323 439.326C386.372 439.856 376.335 436.97 376.335 436.97C376.335 436.97 375.657 430.193 376.143 428.092C376.63 425.991 377.791 427.442 379.469 426.883Z" fill="#00468E"/>
<path d="M384.155 432.824C384.048 432.843 383.935 432.821 383.84 432.752C383.657 432.618 383.617 432.362 383.75 432.179C383.794 432.118 384.857 430.672 386.122 430.203C387.805 429.577 388.946 430.616 388.994 430.661C389.16 430.815 389.169 431.075 389.014 431.241C388.86 431.407 388.6 431.416 388.434 431.261C388.403 431.233 387.606 430.529 386.408 430.972C385.377 431.354 384.424 432.648 384.414 432.661C384.349 432.751 384.255 432.806 384.155 432.824Z" fill="#FCFBFF"/>
<path d="M383.067 431.539C382.961 431.558 382.847 431.536 382.752 431.467C382.569 431.334 382.528 431.077 382.662 430.894C382.706 430.833 383.769 429.387 385.034 428.918C386.718 428.292 387.858 429.331 387.906 429.376C388.072 429.53 388.081 429.79 387.926 429.956C387.772 430.122 387.512 430.131 387.346 429.976C387.315 429.948 386.518 429.244 385.32 429.687C384.285 430.071 383.336 431.363 383.326 431.376C383.261 431.466 383.168 431.521 383.067 431.539Z" fill="#FCFBFF"/>
<path d="M385.699 433.941C385.593 433.96 385.479 433.938 385.384 433.869C385.201 433.736 385.16 433.479 385.294 433.295C385.339 433.234 386.401 431.789 387.666 431.319C389.35 430.692 390.49 431.732 390.538 431.777C390.704 431.931 390.713 432.191 390.558 432.357C390.404 432.523 390.144 432.532 389.978 432.377C389.947 432.349 389.149 431.645 387.952 432.088C386.917 432.472 385.968 433.764 385.958 433.777C385.893 433.868 385.799 433.923 385.699 433.941Z" fill="#FCFBFF"/>
<path d="M399.019 333.021C399.019 333.021 398.898 334.711 398.677 337.513C398.62 338.255 398.556 339.074 398.484 339.966C397.728 349.371 396.267 366.376 394.669 378.44C392.43 395.353 385.378 423.146 385.378 423.146L378.098 422.896L377.378 422.867L375.652 422.81C375.652 422.81 376.864 405.227 378.411 389.961C379.431 379.893 380.037 356.071 380.329 341.027C380.479 333.269 380.55 327.843 380.55 327.843L399.019 333.021Z" fill="#3B3E7D"/>
<path d="M399.019 333.021C399.019 333.021 398.898 334.711 398.677 337.513C398.62 338.255 398.556 339.074 398.484 339.966C395.126 340.594 385.892 341.028 380.331 341.028C380.481 333.27 380.552 327.844 380.552 327.844L399.019 333.021Z" fill="#18285D"/>
<path d="M384.474 337.391C384.467 337.968 383.797 392.778 378.1 422.896L377.38 422.867C383.084 392.842 383.754 337.954 383.762 337.384L384.474 337.391Z" fill="#18285D"/>
<path d="M423.208 422.081L422.969 428.571L417.035 428.258L416.901 421.365L423.208 422.081Z" fill="#FB9A83"/>
<path d="M421.456 428.273C421.456 428.273 422.749 426.589 423.755 426.677C424.761 426.765 432.437 433.055 435.09 433.604C437.744 434.153 437.198 436.105 436.695 437.099C436.193 438.093 415.473 436.408 415.473 436.408C415.473 436.408 414.995 430.226 415.7 428.348C416.406 426.469 419.368 428.689 421.456 428.273Z" fill="#00468E"/>
<path d="M425.685 432.646C425.591 432.673 425.486 432.662 425.394 432.608C425.217 432.503 425.158 432.275 425.262 432.098C425.297 432.038 426.13 430.639 427.233 430.104C428.699 429.39 429.822 430.23 429.869 430.266C430.033 430.391 430.063 430.625 429.938 430.788C429.813 430.952 429.579 430.983 429.415 430.857C429.384 430.834 428.603 430.268 427.558 430.774C426.66 431.21 425.911 432.463 425.904 432.476C425.854 432.563 425.774 432.621 425.685 432.646Z" fill="#FCFBFF"/>
<path d="M424.59 431.58C424.496 431.607 424.391 431.596 424.299 431.543C424.122 431.438 424.062 431.21 424.167 431.032C424.202 430.973 425.035 429.573 426.137 429.038C427.604 428.324 428.726 429.164 428.773 429.2C428.936 429.325 428.967 429.559 428.842 429.723C428.717 429.886 428.483 429.918 428.319 429.792C428.288 429.769 427.506 429.203 426.462 429.709C425.56 430.147 424.816 431.398 424.808 431.411C424.759 431.496 424.679 431.555 424.59 431.58Z" fill="#FCFBFF"/>
<path d="M427.179 433.52C427.084 433.547 426.979 433.537 426.888 433.483C426.711 433.378 426.651 433.15 426.756 432.973C426.791 432.914 427.624 431.514 428.726 430.979C430.193 430.265 431.315 431.105 431.362 431.141C431.525 431.266 431.556 431.5 431.431 431.663C431.306 431.826 431.072 431.858 430.908 431.732C430.877 431.71 430.095 431.143 429.051 431.649C428.149 432.087 427.404 433.338 427.397 433.351C427.348 433.437 427.268 433.495 427.179 433.52Z" fill="#FCFBFF"/>
<path d="M424.288 423.774L418.256 423.325L417.537 423.275L416.072 423.165C416.072 423.165 412.367 387.902 411.215 378.509C410.213 370.349 405.535 352.014 402.499 340.606C401.638 337.368 400.909 334.687 400.429 332.956C400.063 331.594 399.846 330.82 399.846 330.82L420.009 328.868C420.009 328.868 420.065 329.311 420.158 330.108C420.354 331.74 420.731 334.865 421.187 338.794C422.446 349.488 424.361 366.13 425.103 374.601C427.006 396.414 424.288 423.774 424.288 423.774Z" fill="#3B3E7D"/>
<path d="M421.187 338.794L402.499 340.606C401.638 337.368 400.909 334.687 400.429 332.956L420.158 330.108C420.355 331.739 420.732 334.865 421.187 338.794Z" fill="#18285D"/>
<path d="M418.257 423.325L417.538 423.275C417.188 412.371 416.118 385.137 413.933 373.591C411.187 359.038 404.873 337.846 404.808 337.632L405.495 337.428C405.56 337.642 411.884 358.871 414.634 373.46C416.833 385.079 417.912 412.443 418.257 423.325Z" fill="#18285D"/>
<path d="M423.274 330.425C408.254 335.209 392.986 336.119 377.466 333.193C377.167 328.968 376.384 315.098 375.791 300.482C375.771 299.997 375.751 299.512 375.732 299.027C375.718 298.638 375.703 298.249 375.687 297.858C375.675 297.578 375.664 297.295 375.654 297.013C375.648 296.885 375.644 296.756 375.64 296.628C375.624 296.246 375.613 295.857 375.598 295.477C375.584 295.159 375.569 294.84 375.559 294.522C375.558 294.478 375.555 294.433 375.555 294.39C375.554 294.35 375.552 294.312 375.551 294.272C375.536 293.937 375.527 293.6 375.514 293.269C375.512 293.204 375.508 293.139 375.506 293.075C375.494 292.673 375.477 292.271 375.466 291.871C375.455 291.594 375.445 291.323 375.434 291.051C375.431 290.94 375.428 290.83 375.423 290.72C375.408 290.412 375.398 290.103 375.391 289.799C375.387 289.707 375.385 289.614 375.383 289.522C375.375 289.241 375.367 288.959 375.359 288.676C375.355 288.557 375.354 288.437 375.35 288.317C375.338 287.915 375.32 287.515 375.316 287.12C375.3 286.731 375.289 286.349 375.281 285.968C375.271 285.713 375.263 285.459 375.255 285.206C375.238 284.654 375.225 284.107 375.214 283.565C374.893 271.044 374.931 260.771 375.829 259.365C377.914 256.106 388.001 250.862 391.045 248.436L391.075 248.937C391.075 248.937 393.224 251.45 395.454 251.118C397.479 250.823 398.894 248.372 399.131 247.928C400.782 248.949 404.543 250.529 408.201 252.24C411.858 253.944 415.409 255.766 416.64 257.261C417.694 258.549 418.872 268.566 419.945 280.863L419.947 280.903C419.966 281.132 419.987 281.361 420.007 281.591L420.009 281.625C420.02 281.802 420.038 281.979 420.056 282.163C420.065 282.275 420.073 282.385 420.084 282.499C420.105 282.75 420.129 283.004 420.148 283.259C420.178 283.638 420.214 284.019 420.244 284.407C420.273 284.801 420.305 285.2 420.342 285.6C420.351 285.719 420.36 285.838 420.371 285.957C420.393 286.239 420.416 286.52 420.442 286.8C420.449 286.892 420.455 286.984 420.462 287.076C420.486 287.379 420.51 287.688 420.534 287.995L420.559 288.325C420.579 288.596 420.601 288.867 420.623 289.143C420.652 289.542 420.684 289.943 420.715 290.344C420.719 290.407 420.725 290.472 420.73 290.537C420.754 290.867 420.779 291.203 420.805 291.537C420.807 291.577 420.811 291.614 420.814 291.654C420.817 291.697 420.821 291.742 420.824 291.786C420.85 292.104 420.873 292.422 420.898 292.739C420.928 293.118 420.958 293.499 420.982 293.888C420.992 294.016 421.001 294.145 421.011 294.273C421.034 294.555 421.054 294.836 421.075 295.116C421.104 295.504 421.133 295.893 421.16 296.283C421.195 296.767 421.229 297.251 421.264 297.735C422.299 312.28 423.074 326.156 423.274 330.425Z" fill="#00A0FF"/>
<path d="M420.369 285.955L375.358 288.674C375.354 288.555 375.353 288.435 375.349 288.315C375.337 287.913 375.319 287.513 375.315 287.118C375.299 286.729 375.288 286.347 375.28 285.966C375.27 285.711 375.262 285.457 375.254 285.204L420.082 282.496C420.103 282.747 420.127 283.001 420.146 283.256C420.176 283.635 420.212 284.016 420.242 284.404C420.271 284.798 420.303 285.197 420.34 285.597C420.349 285.717 420.358 285.836 420.369 285.955Z" fill="#00468E"/>
<path d="M420.823 291.785L375.557 294.52C375.556 294.476 375.553 294.431 375.553 294.388C375.552 294.348 375.55 294.31 375.549 294.27C375.534 293.935 375.525 293.598 375.512 293.267C375.51 293.202 375.506 293.137 375.504 293.073C375.492 292.671 375.475 292.269 375.464 291.869C375.453 291.592 375.443 291.321 375.432 291.049L420.557 288.323C420.577 288.594 420.599 288.865 420.621 289.141C420.65 289.54 420.682 289.941 420.713 290.342C420.717 290.405 420.723 290.47 420.728 290.535C420.752 290.865 420.777 291.201 420.803 291.535C420.805 291.575 420.809 291.612 420.812 291.652C420.816 291.697 420.82 291.742 420.823 291.785Z" fill="#00468E"/>
<path d="M421.262 297.734L375.79 300.481C375.77 299.996 375.75 299.511 375.731 299.026C375.717 298.637 375.702 298.248 375.686 297.857C375.674 297.577 375.663 297.294 375.653 297.012L421.009 294.272C421.032 294.554 421.052 294.835 421.073 295.115C421.102 295.503 421.131 295.892 421.158 296.282C421.193 296.766 421.228 297.25 421.262 297.734Z" fill="#00468E"/>
<path d="M414.955 274.757C416.375 276.452 418.534 280.357 419.507 282.162C419.64 282.41 419.75 282.619 419.834 282.776C419.944 282.983 420.006 283.104 420.011 283.112C420.043 283.174 420.089 283.222 420.145 283.254C420.115 282.887 420.084 282.521 420.052 282.158C420.038 281.978 420.021 281.797 420.006 281.62L420.004 281.591C419.805 281.223 419.57 280.791 419.307 280.317C418.206 278.336 416.644 275.67 415.499 274.302C415.374 274.151 415.149 274.133 414.999 274.258C414.848 274.384 414.831 274.608 414.955 274.757Z" fill="#00468E"/>
<path d="M384.852 262.761C384.856 262.761 384.86 262.761 384.863 262.76C390.926 262.2 395.46 259.389 398.196 257.131C401.16 254.684 402.671 252.4 402.734 252.304C402.841 252.14 402.795 251.92 402.632 251.813C402.468 251.706 402.248 251.751 402.141 251.915C402.082 252.006 396.048 261.014 384.798 262.054C384.603 262.072 384.459 262.245 384.477 262.44C384.495 262.63 384.662 262.772 384.852 262.761Z" fill="#00468E"/>
<path d="M411.057 322.772C411.242 322.761 411.389 322.608 411.39 322.42C411.391 322.224 411.233 322.064 411.037 322.063C401.032 322.012 394.782 317.321 391.301 313.395C387.516 309.126 386.085 304.808 386.071 304.765C386.01 304.579 385.811 304.476 385.624 304.537C385.438 304.597 385.336 304.797 385.396 304.984C385.455 305.165 386.877 309.465 390.75 313.844C394.328 317.888 400.752 322.721 411.033 322.774C411.041 322.773 411.049 322.773 411.057 322.772Z" fill="#00468E"/>
<path d="M402.607 316.838C402.763 316.829 402.9 316.716 402.933 316.555C402.973 316.363 402.849 316.176 402.657 316.136C393.855 314.318 391.747 307.186 391.727 307.115C391.674 306.927 391.477 306.816 391.29 306.87C391.102 306.923 390.992 307.118 391.044 307.307C391.066 307.385 391.599 309.247 393.283 311.361C394.832 313.307 397.692 315.835 402.514 316.831C402.545 316.837 402.577 316.84 402.607 316.838Z" fill="#00468E"/>
<path d="M379.585 275.732C378.381 277.585 376.706 281.721 375.958 283.632C375.857 283.894 375.772 284.114 375.708 284.281C375.623 284.499 375.576 284.627 375.573 284.636C375.523 284.772 375.398 284.858 375.262 284.866H375.255C375.248 284.685 375.242 284.504 375.237 284.325C375.132 284.331 375.028 284.338 374.927 284.34C374.969 284.233 375.068 283.971 375.211 283.602C375.391 283.138 375.64 282.501 375.935 281.776C376.789 279.676 378.02 276.841 378.99 275.346C379.097 275.181 379.317 275.135 379.481 275.242C379.645 275.348 379.69 275.569 379.585 275.732Z" fill="#00468E"/>
<path d="M382.801 230.2C383.194 236.707 387.471 240.949 393.977 240.556C400.484 240.163 404.727 235.068 404.334 228.561C403.941 222.054 399.79 217.358 393.284 217.751C385.48 218.222 382.408 223.693 382.801 230.2Z" fill="#021147"/>
<path d="M384.432 232.913C384.432 232.913 382.479 230.612 381.255 232.686C380.031 234.76 382.287 240.532 385.491 238.897L384.432 232.913Z" fill="#FF6D6B"/>
<path d="M384.663 237.121C384.541 237.128 384.425 237.055 384.383 236.934C383.763 235.147 381.836 234.524 381.817 234.518C381.67 234.472 381.588 234.316 381.634 234.169C381.68 234.022 381.836 233.94 381.982 233.986C382.072 234.014 384.196 234.694 384.91 236.751C384.96 236.896 384.883 237.055 384.738 237.106C384.713 237.115 384.688 237.12 384.663 237.121Z" fill="#ED495C"/>
<path d="M382.707 236.32C382.655 236.323 382.602 236.312 382.554 236.285C382.42 236.21 382.372 236.04 382.448 235.905C382.46 235.883 382.763 235.355 383.441 235.001C383.576 234.93 383.746 234.983 383.817 235.119C383.888 235.255 383.835 235.424 383.699 235.495C383.175 235.769 382.936 236.175 382.934 236.179C382.885 236.264 382.798 236.315 382.707 236.32Z" fill="#ED495C"/>
<path d="M403.062 231.788C403.062 231.788 404.724 229.268 406.189 231.18C407.654 233.092 406.109 239.094 402.731 237.855L403.062 231.788Z" fill="#FF6D6B"/>
<path d="M403.34 235.993C403.461 235.986 403.568 235.899 403.595 235.774C403.995 233.926 405.834 233.075 405.852 233.067C405.992 233.004 406.055 232.839 405.991 232.699C405.928 232.559 405.763 232.496 405.623 232.559C405.537 232.598 403.511 233.528 403.05 235.657C403.017 235.807 403.113 235.956 403.263 235.988C403.289 235.992 403.315 235.994 403.34 235.993Z" fill="#ED495C"/>
<path d="M405.185 234.962C405.236 234.959 405.288 234.941 405.333 234.909C405.457 234.818 405.484 234.644 405.393 234.52C405.378 234.499 405.014 234.011 404.298 233.742C404.155 233.687 403.993 233.76 403.939 233.905C403.885 234.049 403.957 234.21 404.101 234.264C404.654 234.473 404.94 234.847 404.943 234.851C405.001 234.928 405.094 234.968 405.185 234.962Z" fill="#ED495C"/>
<path d="M398.863 243.1L399.217 248.954C399.217 248.954 397.651 252.041 395.303 252.386C392.957 252.734 390.693 250.088 390.693 250.088L390.327 244.028L398.863 243.1Z" fill="#FB9A83"/>
<path d="M398.863 243.1L399.02 245.697C397.542 247.551 394.755 248.16 390.554 247.797L390.326 244.028L398.863 243.1Z" fill="#FF6D6B"/>
<path d="M383.466 232.861C383.51 233.199 383.559 233.54 383.614 233.885C383.754 234.751 383.926 235.64 384.14 236.522C384.148 236.554 384.154 236.583 384.161 236.611C385.208 240.881 387.232 245.017 391.123 246.148C399.938 248.707 402.571 241.123 403.543 236.736C403.65 236.249 403.741 235.709 403.815 235.134C403.818 235.112 403.82 235.088 403.825 235.061C403.906 234.415 403.969 233.729 404.014 233.023C404.049 232.5 404.073 231.97 404.09 231.437C404.138 230.141 404.141 228.843 404.126 227.692C404.093 225.063 402.377 222.746 399.865 221.953C396.244 220.806 390.806 220.053 385.889 223.248C384.072 224.427 383.012 226.473 383.101 228.637C383.15 229.83 383.257 231.293 383.466 232.861Z" fill="#FB9A83"/>
<path d="M390.351 233.02C390.389 233.645 390.097 234.171 389.7 234.195C389.303 234.219 388.95 233.732 388.912 233.107C388.874 232.482 389.166 231.956 389.563 231.932C389.96 231.908 390.313 232.395 390.351 233.02Z" fill="#021147"/>
<path d="M399.172 232.487C399.21 233.112 398.918 233.638 398.521 233.662C398.124 233.686 397.771 233.199 397.733 232.574C397.695 231.949 397.987 231.423 398.384 231.399C398.782 231.375 399.134 231.862 399.172 232.487Z" fill="#021147"/>
<path d="M400.184 228.563C400.184 228.563 397.86 227.803 396.158 228.664L396.392 229.625C396.392 229.625 398.944 229.253 400.268 229.699C400.36 229.317 400.354 228.938 400.184 228.563Z" fill="#021147"/>
<path d="M386.724 229.376C386.724 229.376 388.94 228.342 390.733 228.991L390.617 229.973C390.617 229.973 388.039 229.911 386.778 230.513C386.639 230.146 386.599 229.769 386.724 229.376Z" fill="#021147"/>
<path d="M394.346 237.583C393.884 237.668 393.392 237.573 393.316 237.557C393.165 237.525 393.069 237.378 393.101 237.228C393.132 237.078 393.28 236.981 393.43 237.012C393.696 237.067 394.319 237.115 394.548 236.913C394.592 236.874 394.649 236.803 394.636 236.633C394.559 235.658 393.707 232.499 393.698 232.467C393.658 232.318 393.746 232.165 393.894 232.125C394.043 232.085 394.195 232.173 394.236 232.321C394.272 232.453 395.111 235.562 395.192 236.589C395.222 236.975 395.059 237.206 394.917 237.331C394.76 237.468 394.556 237.544 394.346 237.583Z" fill="#FF6D6B"/>
<path d="M390.645 239.481C390.941 240.611 391.824 242.669 394.369 242.515C396.92 242.361 397.519 240.395 397.685 239.055L390.645 239.481Z" fill="#FCFBFF"/>
<path d="M404.078 231.775L402.818 231.851C402.881 230.577 402.328 229.076 401.887 228.08C400.886 225.821 402.658 224.692 401.105 223.624C399.553 222.554 395.893 223.274 393.322 223.346C390.735 223.419 386.588 223.706 385.595 224C384.599 224.292 385.254 225.935 385.702 227.211C386.153 228.484 384.63 230.017 384.441 231.377C384.387 231.767 384.438 232.339 384.537 232.956L383.486 233.02C383.262 231.393 383.152 229.872 383.1 228.637C383.011 226.474 384.071 224.428 385.887 223.249C390.805 220.054 396.243 220.806 399.863 221.952C402.376 222.746 404.093 225.063 404.126 227.693C404.142 228.942 404.136 230.366 404.078 231.775Z" fill="#021147"/>
<path d="M395.174 233.171C395.064 231.344 396.46 229.768 398.287 229.657C400.114 229.547 401.69 230.943 401.801 232.77C401.911 234.597 400.515 236.174 398.688 236.284C396.86 236.395 395.284 234.998 395.174 233.171ZM395.69 233.14C395.783 234.682 397.114 235.861 398.656 235.768C400.198 235.675 401.377 234.344 401.284 232.802C401.191 231.26 399.86 230.081 398.318 230.174C396.776 230.267 395.597 231.598 395.69 233.14Z" fill="#FCFBFF"/>
<path d="M386.116 233.718C386.006 231.891 387.402 230.314 389.229 230.204C391.056 230.094 392.633 231.49 392.743 233.317C392.853 235.144 391.457 236.721 389.63 236.831C387.803 236.942 386.227 235.546 386.116 233.718ZM386.633 233.687C386.726 235.229 388.057 236.408 389.599 236.315C391.141 236.222 392.32 234.891 392.227 233.349C392.134 231.807 390.803 230.628 389.261 230.721C387.719 230.814 386.54 232.145 386.633 233.687Z" fill="#FCFBFF"/>
<path d="M401.176 231.737C401.242 231.733 401.306 231.704 401.353 231.651C401.367 231.635 402.784 230.084 404.787 230.425C404.928 230.449 405.062 230.354 405.086 230.213C405.11 230.072 405.015 229.938 404.874 229.914C402.584 229.524 401.032 231.232 400.967 231.305C400.872 231.412 400.881 231.575 400.988 231.67C401.042 231.72 401.11 231.741 401.176 231.737Z" fill="#FCFBFF"/>
<path d="M386.551 232.621C386.635 232.616 386.716 232.57 386.76 232.491C386.831 232.367 386.788 232.209 386.663 232.138C386.56 232.079 384.124 230.708 382.149 231.158C382.01 231.19 381.922 231.328 381.954 231.468C381.986 231.607 382.123 231.694 382.264 231.663C384.042 231.259 386.383 232.575 386.407 232.588C386.453 232.613 386.502 232.624 386.551 232.621Z" fill="#FCFBFF"/>
<path d="M392.517 232.585C392.522 232.577 393.086 231.71 393.893 231.661C394.692 231.613 395.297 232.408 395.302 232.416L395.717 232.107C395.686 232.065 394.942 231.079 393.861 231.144C392.787 231.209 392.108 232.263 392.079 232.308L392.517 232.585Z" fill="#FCFBFF"/>
<path d="M378.413 327.03L375.483 331.03C375.483 331.03 373.786 329.968 371.483 328.121C371.476 328.114 371.476 328.114 371.469 328.107C367.961 325.305 363.048 320.692 360.538 315.266C357.401 308.485 358.321 302.995 358.321 302.995C358.735 298.974 361.43 290.802 363.576 284.735C364.36 282.532 365.073 280.614 365.572 279.266L372.125 280.77L374.927 282.495L373.85 285.34L366.62 304.52C367.255 310.146 370.107 315.679 372.852 319.843C375.69 324.164 378.413 327.03 378.413 327.03Z" fill="#FB9A83"/>
<path d="M378.413 327.03L375.483 331.03C375.483 331.03 373.786 329.968 371.483 328.121C371.476 328.114 371.476 328.114 371.469 328.107C370.963 325.084 371.269 320.813 372.852 319.843C375.69 324.164 378.413 327.03 378.413 327.03Z" fill="#FF6D6B"/>
<path d="M376.848 322.415C377.438 322.454 380.582 322.61 380.242 321.534C379.867 320.347 376.781 318.958 376.781 318.958C376.781 318.958 376.763 318.897 376.793 318.818L376.76 318.565L376.624 316.014C376.028 316.019 375.48 316.135 375.184 316.226C373.832 316.645 374.017 319.738 374.017 319.738C374.017 319.738 372.311 320.347 372.374 321.597C372.436 322.846 373.81 323.033 373.81 323.033C373.81 323.033 371.933 323.97 372.372 325.031C372.811 326.093 374.233 326.405 374.233 326.405C374.233 326.405 372.623 327.467 373.185 328.216C373.747 328.965 375.059 329.34 375.059 329.34C375.059 329.34 373.936 330.86 375.077 331.689C376.218 332.518 377.897 332.338 378.976 331.963C380.055 331.588 379.868 330.214 377.744 329.215C377.744 329.215 379.618 329.402 380.554 327.841C381.335 326.539 379.342 325.977 377.643 325.753C378.979 325.843 381.283 325.805 381.679 324.531C382.197 322.861 377.57 322.466 376.848 322.415Z" fill="#FB9A83"/>
<path d="M374.927 282.495L373.85 285.34C371.675 285.475 367.782 285.54 363.575 284.734C364.359 282.531 365.072 280.613 365.571 279.265L372.124 280.769L374.927 282.495Z" fill="#FF6D6B"/>
<path d="M375.828 259.364C375.828 259.364 367.852 267.366 362.029 281.322C366.593 282.798 370.913 283.842 374.925 284.341C375.454 283.411 377.547 277.443 379.123 273.137L375.828 259.364Z" fill="#00A0FF"/>
<path d="M438.474 304.741C438.432 304.766 438.39 304.793 438.349 304.82C435.981 306.365 432.795 305.425 431.644 302.84L425.087 290.651L423.055 286.458L421.761 283.79L420.595 281.382L419.53 279.186C419.39 278.483 419.252 277.742 419.117 276.977L422.373 268.504L423.841 267.444C423.841 267.444 425.629 271.288 428.081 276.005C428.455 276.723 428.843 277.461 429.244 278.211C429.448 278.595 429.657 278.978 429.866 279.365C430.355 280.265 430.857 281.17 431.366 282.066C431.902 283.005 432.436 283.94 432.95 284.848C433.314 285.487 433.671 286.112 434.013 286.72C434.222 287.084 434.426 287.446 434.623 287.795C436.239 290.645 437.513 292.916 437.992 293.811L438.833 293.75C438.836 293.747 442.555 302.001 438.474 304.741Z" fill="#FB9A83"/>
<path d="M429.869 279.364L423.056 286.457L421.762 283.789L420.596 281.381L428.083 276.005C428.457 276.723 428.845 277.461 429.246 278.211C429.451 278.595 429.66 278.978 429.869 279.364Z" fill="#FF6D6B"/>
<path d="M434.553 297.418C434.553 297.418 433.681 287.509 435.461 285.106C437.242 282.703 439.034 281.619 441.01 281.394C442.985 281.169 444.87 281.135 444.871 281.961C444.871 281.961 449.281 280.6 451.472 281.466C453.663 282.332 445.834 284.558 443.473 284.976C441.112 285.394 440.06 286.907 440.176 288.334C440.293 289.761 440.333 299.323 440.333 299.323L434.553 297.418Z" fill="#FB9A83"/>
<path d="M433.894 297.313C433.913 297.313 433.929 297.31 433.948 297.308C434.117 297.284 434.247 297.14 434.248 296.965C434.276 292.783 434.436 289.607 434.592 287.732C434.395 287.382 434.244 287.035 434.038 286.67C433.877 288.325 433.581 291.89 433.546 296.959C433.545 297.152 433.7 297.31 433.894 297.313Z" fill="#FF6D6B"/>
<path d="M430.212 284.816L460.155 280.515C461.281 280.353 462.063 279.309 461.901 278.183L461.898 278.165C461.736 277.039 460.692 276.257 459.566 276.419L429.623 280.72C428.497 280.882 427.715 281.926 427.877 283.052L427.879 283.07C428.042 284.196 429.086 284.978 430.212 284.816Z" fill="#18285D"/>
<path d="M462.187 280.224L465.142 255.357C465.308 253.96 464.105 252.786 462.712 252.986L448.641 255.007C447.692 255.143 446.949 255.894 446.823 256.846L443.382 282.925L462.187 280.224Z" fill="#3B3E7D"/>
<path d="M446.823 256.845L443.411 282.71L441.803 282.941L445.215 257.076C445.342 256.125 446.084 255.373 447.033 255.236L448.641 255.005C447.691 255.142 446.95 255.894 446.823 256.845Z" fill="#18285D"/>
<path d="M452.284 269.159C452.145 270.791 453.313 271.93 454.893 271.704C456.473 271.477 457.866 269.97 458.004 268.338C458.143 266.706 456.975 265.567 455.395 265.794C453.816 266.02 452.423 267.527 452.284 269.159Z" fill="#586199"/>
<path d="M430.985 276.915L429.246 278.211L421.762 283.789L420.85 284.468C420.415 283.268 419.967 281.399 419.532 279.185C419.392 278.482 419.254 277.741 419.119 276.976C417.609 268.464 416.337 256.931 416.337 256.931C416.337 256.931 423.275 263.439 430.985 276.915Z" fill="#00A0FF"/>
<path d="M207.85 441.956C229.312 441.956 246.71 440.163 246.71 437.952C246.71 435.741 229.312 433.948 207.85 433.948C186.388 433.948 168.99 435.741 168.99 437.952C168.99 440.163 186.388 441.956 207.85 441.956Z" fill="#D9E4F5"/>
<path d="M188.849 424.054L188.847 431.228L193.982 431.124L194.319 423.522L188.849 424.054Z" fill="#FB9A83"/>
<path d="M190.241 430.578C190.241 430.578 189.072 428.932 188.113 428.98C187.154 429.028 179.64 434.734 177.099 435.163C174.559 435.591 175.008 437.465 175.451 438.427C175.893 439.389 195.639 438.517 195.639 438.517C195.639 438.517 196.311 432.66 195.707 430.851C195.103 429.043 192.21 431.047 190.241 430.578Z" fill="#00468E"/>
<path d="M186.069 434.584C186.158 434.613 186.258 434.607 186.347 434.559C186.519 434.466 186.583 434.251 186.49 434.079C186.459 434.021 185.716 432.662 184.688 432.115C183.32 431.385 182.224 432.143 182.178 432.176C182.018 432.289 181.98 432.51 182.094 432.67C182.207 432.83 182.428 432.868 182.588 432.754C182.618 432.734 183.381 432.223 184.355 432.741C185.193 433.187 185.86 434.404 185.866 434.416C185.911 434.499 185.985 434.557 186.069 434.584Z" fill="#FCFBFF"/>
<path d="M187.147 433.61C187.236 433.639 187.336 433.632 187.425 433.585C187.597 433.492 187.661 433.277 187.568 433.105C187.537 433.047 186.794 431.688 185.766 431.141C184.397 430.411 183.302 431.169 183.256 431.202C183.096 431.315 183.059 431.536 183.172 431.696C183.285 431.856 183.506 431.894 183.666 431.78C183.696 431.76 184.459 431.249 185.433 431.767C186.274 432.215 186.938 433.43 186.944 433.442C186.99 433.525 187.064 433.583 187.147 433.61Z" fill="#FCFBFF"/>
<path d="M184.619 435.362C184.708 435.391 184.808 435.385 184.897 435.337C185.069 435.244 185.133 435.029 185.04 434.857C185.009 434.8 184.266 433.44 183.238 432.893C181.869 432.163 180.774 432.921 180.728 432.954C180.568 433.067 180.531 433.288 180.644 433.448C180.757 433.607 180.978 433.646 181.138 433.532C181.168 433.512 181.931 433.001 182.905 433.519C183.747 433.967 184.41 435.182 184.416 435.194C184.461 435.277 184.535 435.335 184.619 435.362Z" fill="#FCFBFF"/>
<path d="M187.799 425.362L193.026 424.917L193.649 424.868L194.919 424.759C194.919 424.759 196.642 385.944 197.244 375.606C197.769 366.625 201.057 346.465 203.213 333.924C203.824 330.364 204.344 327.417 204.688 325.513C204.949 324.016 205.104 323.165 205.104 323.165L187.484 320.849C187.484 320.849 187.454 321.336 187.407 322.214C187.306 324.01 187.111 327.45 186.882 331.774C186.241 343.544 185.284 361.861 184.999 371.187C184.271 395.201 187.799 425.362 187.799 425.362Z" fill="#3B3E7D"/>
<path d="M186.882 331.774L203.212 333.924C203.823 330.364 204.343 327.417 204.687 325.513L187.406 322.214C187.306 324.009 187.111 327.449 186.882 331.774Z" fill="#18285D"/>
<path d="M193.026 424.917L193.649 424.868C193.49 412.859 193.262 382.866 194.672 370.166C196.441 354.157 201.032 330.864 201.079 330.629L200.473 330.399C200.426 330.635 195.828 353.968 194.057 370.017C192.638 382.797 192.863 412.932 193.026 424.917Z" fill="#18285D"/>
<path d="M230.161 421.752L232.252 428.615L237.133 427.017L235.238 419.647L230.161 421.752Z" fill="#FB9A83"/>
<path d="M233.638 427.599C233.638 427.599 231.967 426.467 231.085 426.847C230.204 427.227 225.162 435.203 222.932 436.494C220.702 437.784 221.779 439.382 222.53 440.129C223.281 440.876 241.473 433.148 241.473 433.148C241.473 433.148 240.052 427.426 238.853 425.943C237.654 424.459 235.646 427.35 233.638 427.599Z" fill="#00468E"/>
<path d="M231.131 432.812C231.224 432.808 231.316 432.767 231.382 432.691C231.511 432.544 231.495 432.32 231.348 432.191C231.299 432.148 230.127 431.135 228.973 430.982C227.437 430.777 226.675 431.871 226.643 431.918C226.533 432.08 226.575 432.3 226.737 432.41C226.899 432.52 227.119 432.478 227.229 432.316C227.25 432.286 227.786 431.541 228.879 431.685C229.82 431.809 230.871 432.716 230.881 432.725C230.954 432.788 231.043 432.816 231.131 432.812Z" fill="#FCFBFF"/>
<path d="M231.801 431.522C231.894 431.518 231.986 431.477 232.052 431.401C232.181 431.254 232.166 431.03 232.018 430.901C231.969 430.858 230.797 429.845 229.643 429.692C228.105 429.487 227.345 430.581 227.313 430.628C227.203 430.79 227.245 431.01 227.407 431.12C227.569 431.23 227.789 431.188 227.899 431.026C227.92 430.996 228.456 430.251 229.55 430.395C230.495 430.52 231.542 431.426 231.552 431.435C231.623 431.498 231.713 431.526 231.801 431.522Z" fill="#FCFBFF"/>
<path d="M230.046 434.049C230.139 434.045 230.231 434.004 230.297 433.928C230.426 433.78 230.411 433.557 230.263 433.428C230.214 433.385 229.042 432.372 227.887 432.219C226.349 432.014 225.589 433.108 225.557 433.155C225.447 433.317 225.489 433.537 225.651 433.647C225.813 433.757 226.034 433.715 226.143 433.553C226.164 433.523 226.7 432.778 227.794 432.922C228.739 433.047 229.786 433.953 229.796 433.962C229.868 434.024 229.958 434.053 230.046 434.049Z" fill="#FCFBFF"/>
<path d="M229.635 423.254L234.548 421.415L235.135 421.2L236.328 420.753C236.328 420.753 227.513 382.913 225.303 372.796C223.384 364.006 221.111 343.708 219.803 331.049C219.43 327.456 219.136 324.478 218.954 322.552C218.801 321.04 218.721 320.179 218.721 320.179L201.13 322.704C201.13 322.704 201.232 323.181 201.424 324.039C201.811 325.796 202.552 329.161 203.498 333.386C206.057 344.892 210.078 362.788 212.32 371.845C218.1 395.163 229.635 423.254 229.635 423.254Z" fill="#3B3E7D"/>
<path d="M203.497 333.385L219.802 331.048C219.429 327.455 219.135 324.477 218.953 322.551L201.423 324.037C201.81 325.794 202.551 329.159 203.497 333.385Z" fill="#18285D"/>
<path d="M234.548 421.415L235.135 421.2C231.741 409.679 223.429 380.861 221.358 368.251C218.742 352.358 216.876 328.691 216.858 328.452L216.212 328.394C216.23 328.634 218.099 352.342 220.725 368.273C222.808 380.962 231.157 409.918 234.548 421.415Z" fill="#18285D"/>
<path d="M198.027 279.57C193.201 287.428 179.494 294.733 179.494 294.733C174.287 293.883 170.947 292.489 167.619 290.857C168.471 288.51 168.777 286.153 169.167 283.091C174.019 284.197 178.188 284.713 178.188 284.713C188.074 279.55 198.859 255.48 198.859 255.48C202.45 262.059 198.027 279.57 198.027 279.57Z" fill="#00468E"/>
<path d="M199.604 248.416C199.592 249.399 199.554 250.506 199.508 251.688C200.994 252.075 202.529 252.331 204.03 252.588C208.185 253.3 212.419 253.594 216.612 253.039C219.681 252.633 222.741 251.889 225.3 250.07C226.455 249.249 227.415 248.247 228.197 247.121C227.539 245.898 226.868 244.311 226.755 240.479C226.653 237.029 226.472 232.262 226.472 232.262C225.962 221.922 215.542 220.022 215.542 220.022C203.001 217.483 198.692 227.9 198.35 233.739C198.327 234.137 198.317 234.541 198.323 234.947L198.321 234.98C198.159 237.413 199.661 243.59 199.604 248.416Z" fill="#021147"/>
<path d="M226.432 259.401C226.432 259.401 225.891 266.15 224.732 272.631C224.319 274.94 223.829 277.213 223.259 279.136C222.915 280.292 222.563 281.573 222.216 282.946C220.649 289.124 219.171 297.169 218.999 304.014C218.967 305.3 218.982 306.542 219.048 307.72C219.557 316.586 222.789 324.346 219.879 327.455C219.879 327.455 195.508 333.067 185.692 324.767C184.88 324.081 184.539 322.994 184.861 321.981C186.253 317.62 190.319 304.787 192.08 298.109C193.588 292.388 194.552 288.153 194.564 284.688C194.564 284.395 194.559 284.11 194.547 283.83C194.498 282.706 194.333 281.661 194.045 280.67C192.825 276.486 192.572 274.969 194.2 271.978C194.549 271.334 194.965 270.202 195.4 268.827C196.986 263.805 198.858 255.482 198.858 255.482L200.74 255.042L203.566 254.383L205.28 253.98L213.886 253.245C213.886 253.245 215.379 253.914 217.386 254.853C218.515 255.382 219.809 255.992 221.09 256.614C223.151 257.615 225.18 258.648 226.432 259.401Z" fill="#00A0FF"/>
<path d="M224.732 272.63C224.319 274.939 223.829 277.212 223.259 279.135C222.915 280.291 222.563 281.572 222.216 282.945C220.649 289.123 219.171 297.168 218.999 304.013L210.194 299.625L217.759 291.464L219.702 270.512L224.732 272.63Z" fill="#00468E"/>
<path d="M194.546 283.829C194.56 284.109 194.565 284.395 194.564 284.686C198.564 288.558 205.546 293.943 213.882 294.5C214.046 294.511 214.19 294.386 214.201 294.221C214.212 294.057 214.087 293.913 213.922 293.902C205.451 293.336 198.39 287.657 194.546 283.829Z" fill="#00468E"/>
<path d="M204.034 270.745C208.269 271.028 212.477 266.787 212.659 266.601C212.775 266.483 212.773 266.293 212.655 266.177C212.537 266.061 212.348 266.063 212.232 266.181C212.188 266.226 207.781 270.667 203.71 270.11C203.547 270.087 203.395 270.202 203.373 270.366C203.351 270.53 203.465 270.681 203.629 270.703C203.763 270.723 203.899 270.736 204.034 270.745Z" fill="#00468E"/>
<path d="M211.071 314.248C211.221 314.258 211.357 314.154 211.385 314.003C211.415 313.84 211.307 313.684 211.144 313.654C200.288 311.664 197.021 292.425 196.99 292.231C196.963 292.068 196.809 291.957 196.646 291.984C196.483 292.011 196.372 292.165 196.399 292.328C196.531 293.138 199.77 312.178 211.037 314.244C211.048 314.246 211.06 314.247 211.071 314.248Z" fill="#00468E"/>
<path d="M207.098 308.227C207.198 308.234 207.299 308.19 207.362 308.102C207.458 307.967 207.427 307.78 207.292 307.684C201.713 303.708 201.201 298.362 201.197 298.309C201.183 298.144 201.04 298.02 200.874 298.036C200.709 298.05 200.587 298.194 200.6 298.359C200.619 298.588 201.129 304.028 206.945 308.173C206.991 308.205 207.044 308.223 207.098 308.227Z" fill="#00468E"/>
<path d="M202.574 235.941C202.574 235.941 200.92 233.53 199.449 235.334C197.978 237.138 199.505 242.857 202.887 241.712L202.574 235.941Z" fill="#FF6D6B"/>
<path d="M201.44 241.225C201.418 241.557 201.131 241.808 200.799 241.786C200.467 241.764 200.216 241.477 200.238 241.145C200.26 240.813 200.547 240.562 200.879 240.584C201.211 240.606 201.462 240.893 201.44 241.225Z" fill="white"/>
<path d="M202.284 239.936C202.163 239.928 202.056 239.844 202.029 239.725C201.634 237.964 199.798 237.139 199.78 237.131C199.64 237.069 199.578 236.912 199.642 236.779C199.705 236.646 199.87 236.588 200.01 236.649C200.096 236.687 202.119 237.59 202.574 239.618C202.606 239.761 202.51 239.901 202.36 239.931C202.334 239.936 202.308 239.938 202.284 239.936Z" fill="#ED495C"/>
<path d="M200.441 238.939C200.39 238.936 200.338 238.918 200.294 238.887C200.17 238.799 200.144 238.633 200.235 238.516C200.25 238.496 200.615 238.036 201.332 237.786C201.475 237.736 201.637 237.806 201.69 237.944C201.744 238.081 201.671 238.234 201.527 238.284C200.973 238.477 200.686 238.83 200.684 238.834C200.625 238.909 200.533 238.946 200.441 238.939Z" fill="#ED495C"/>
<path d="M215.726 248.571L215.314 254.739C215.314 254.739 211.914 257.679 209.413 257.727C206.913 257.778 206.25 254.787 206.25 254.787L206.676 248.402L215.726 248.571Z" fill="#FB9A83"/>
<path d="M215.681 249.243L215.498 251.98C213.705 253.721 210.697 254.179 206.354 253.239L206.631 249.075L215.681 249.243Z" fill="#FF6D6B"/>
<path d="M201.313 238.477C201.348 239.145 201.397 239.825 201.471 240.504C201.961 245.018 204.461 250.026 207.971 251.072C215.549 253.332 219.148 247.502 220.676 243.126C220.845 242.64 220.628 242.055 220.775 241.476C221.123 240.104 221.79 238.563 222.021 237.015C222.181 235.942 222.314 234.882 222.424 233.924C222.73 231.221 221.326 228.625 218.936 227.487C215.493 225.844 210.196 224.371 204.909 227.016C202.956 227.993 201.641 229.954 201.449 232.185C201.304 233.889 201.197 236.122 201.313 238.477Z" fill="#FB9A83"/>
<path d="M210.473 242.556C210.616 242.565 210.75 242.471 210.784 242.326C210.822 242.165 210.723 242.004 210.562 241.965L209.547 241.724L211.213 238.052C211.281 237.901 211.215 237.724 211.064 237.656C210.913 237.588 210.736 237.654 210.668 237.805L208.702 242.139L210.424 242.548C210.44 242.553 210.456 242.555 210.473 242.556Z" fill="#FF6D6B"/>
<path d="M204.778 231.159C201.679 232.33 202.395 235.967 201.259 237.692C201.186 237.804 201.116 237.82 201.048 237.756C200.92 235.355 201.027 233.079 201.176 231.342C201.373 229.068 202.755 227.072 204.811 226.08C210.377 223.397 215.964 224.91 219.597 226.593C222.118 227.758 223.604 230.408 223.288 233.163C223.175 234.14 223.037 235.22 222.871 236.313C222.352 236.577 221.124 236.631 221.019 237.43C220.742 239.543 220.542 240.989 220.107 240.832C219.374 240.567 219.082 237.965 220.047 236.361C220.047 236.361 219.435 235.196 216.704 233.929C213.202 232.304 209.879 230.022 209.879 230.022C209.879 230.022 208.569 229.109 208.105 228.178C208.105 228.178 207.139 230.267 204.778 231.159Z" fill="#021147"/>
<path d="M207.305 237.339C207.261 237.997 206.886 238.509 206.467 238.481C206.048 238.453 205.745 237.896 205.789 237.238C205.833 236.58 206.208 236.069 206.627 236.097C207.045 236.124 207.349 236.681 207.305 237.339Z" fill="#021147"/>
<path d="M215.496 237.886C215.452 238.544 215.077 239.056 214.658 239.028C214.239 239 213.936 238.443 213.98 237.785C214.024 237.127 214.399 236.615 214.818 236.643C215.237 236.671 215.54 237.228 215.496 237.886Z" fill="#021147"/>
<path d="M204.714 234.025C205.331 233.947 206.577 233.833 207.886 233.967C208.231 234.002 208.49 234.281 208.424 234.553L208.422 234.56C208.369 234.777 208.124 234.909 207.85 234.87C206.96 234.743 204.619 234.601 203.509 234.852C203.489 234.692 203.606 234.532 203.769 234.396C204.017 234.189 204.354 234.071 204.714 234.025Z" fill="#021147"/>
<path d="M216.89 234.983C216.291 234.815 215.075 234.52 213.761 234.461C213.415 234.445 213.118 234.683 213.143 234.962L213.144 234.969C213.164 235.191 213.387 235.358 213.665 235.359C214.564 235.364 216.9 235.566 217.962 235.978C218.005 235.823 217.913 235.647 217.771 235.488C217.556 235.247 217.24 235.081 216.89 234.983Z" fill="#021147"/>
<path d="M207.04 244.114C207.191 245.177 207.799 247.153 210.28 247.319C212.767 247.485 213.581 245.77 213.902 244.572L207.04 244.114Z" fill="white"/>
<path d="M210.124 249.118C209.408 249.07 208.802 248.643 208.776 248.624C208.644 248.53 208.614 248.346 208.708 248.214C208.802 248.082 208.985 248.052 209.117 248.145C209.122 248.149 209.617 248.495 210.163 248.531C210.754 248.57 211.304 248.293 211.31 248.29C211.455 248.216 211.631 248.273 211.705 248.417C211.779 248.561 211.723 248.737 211.579 248.812C211.551 248.828 210.883 249.169 210.124 249.118Z" fill="#FF6D6B"/>
<path d="M221.109 237.16C221.109 237.16 223.381 234.75 224.498 236.672C225.615 238.594 223.499 243.907 220.552 242.379L221.109 237.16Z" fill="#FB9A83"/>
<path d="M222.453 242.629C222.431 242.961 222.144 243.212 221.812 243.19C221.48 243.168 221.229 242.88 221.251 242.549C221.273 242.217 221.56 241.966 221.892 241.988C222.224 242.009 222.475 242.296 222.453 242.629Z" fill="white"/>
<path d="M221.327 240.745C221.439 240.753 221.547 240.685 221.586 240.574C222.168 238.929 223.951 238.365 223.969 238.359C224.104 238.317 224.181 238.174 224.14 238.038C224.099 237.903 223.955 237.826 223.819 237.867C223.736 237.892 221.772 238.507 221.101 240.402C221.053 240.536 221.124 240.683 221.257 240.73C221.281 240.739 221.304 240.744 221.327 240.745Z" fill="#FF6D6B"/>
<path d="M223.137 240.018C223.185 240.021 223.234 240.011 223.279 239.986C223.403 239.917 223.448 239.761 223.379 239.636C223.367 239.616 223.092 239.126 222.468 238.795C222.343 238.728 222.187 238.776 222.12 238.902C222.054 239.028 222.101 239.183 222.227 239.25C222.709 239.505 222.927 239.882 222.929 239.885C222.973 239.965 223.053 240.012 223.137 240.018Z" fill="#FF6D6B"/>
<path d="M209.062 320.043H169.355C165.521 320.043 162.413 316.935 162.413 313.101V273.394C162.413 269.56 165.521 266.452 169.355 266.452H209.062C212.896 266.452 216.004 269.56 216.004 273.394V313.101C216.004 316.935 212.896 320.043 209.062 320.043Z" fill="#0060E6"/>
<path d="M206.735 320.043H167.029C163.195 320.043 160.087 316.935 160.087 313.101V273.394C160.087 269.56 163.195 266.452 167.029 266.452H206.735C210.569 266.452 213.677 269.56 213.677 273.394V313.101C213.677 316.935 210.569 320.043 206.735 320.043Z" fill="#00468E"/>
<path d="M202.126 278.785C198.647 275.262 192.947 275.229 189.422 278.711L185.911 282.182C184.795 283.285 185.432 285.189 186.987 285.399C187.003 285.401 187.019 285.403 187.035 285.405C187.615 285.483 188.199 285.288 188.616 284.876L192.107 281.426C194.131 279.422 197.412 279.439 199.414 281.467C201.419 283.496 201.4 286.772 199.372 288.777L192.475 295.596C190.448 297.598 187.172 297.58 185.167 295.551C185.085 295.468 185.006 295.383 184.931 295.296C184.318 294.585 183.303 294.383 182.498 294.867L182.482 294.877L182.444 294.9C181.452 295.496 181.238 296.836 181.983 297.722C182.131 297.898 182.288 298.07 182.452 298.237C185.936 301.759 191.634 301.794 195.156 298.311L202.056 291.494C205.577 288.007 205.609 282.307 202.126 278.785Z" fill="white"/>
<path d="M183.668 303.637L180.652 306.617C178.596 308.648 175.184 308.696 173.187 306.606C171.246 304.575 171.285 301.345 173.291 299.363L180.19 292.542C182.215 290.538 185.493 290.558 187.495 292.585C187.841 292.934 188.127 293.321 188.352 293.733C188.829 294.605 189.922 294.942 190.815 294.503C190.827 294.497 190.839 294.491 190.851 294.485C191.826 294 192.203 292.81 191.675 291.858C191.287 291.157 190.798 290.498 190.209 289.901C186.725 286.379 181.028 286.348 177.505 289.827L170.608 296.646C167.086 300.13 167.051 305.828 170.534 309.35C174.016 312.875 179.716 312.907 183.238 309.424L186.355 306.342C187.512 305.198 186.782 303.223 185.158 303.108L185.106 303.104C184.574 303.066 184.049 303.26 183.668 303.637Z" fill="white"/>
<path d="M157.658 283.793C157.658 283.793 160.941 284.084 161.993 285.218C163.045 286.352 158.555 286.658 158.555 286.658C158.555 286.658 163.979 286.328 164.306 287.608C164.632 288.888 159.372 289.359 159.372 289.359C159.372 289.359 163.081 289.695 163.429 290.651C163.777 291.607 159.947 292.109 159.947 292.109C159.947 292.109 162.86 292.673 163.204 293.369C163.548 294.065 160.37 294.871 158.667 294.692C156.965 294.512 157.676 292.326 157.676 292.326C157.676 292.326 156.846 290.47 157.418 289.705C157.418 289.705 156.421 288.076 156.773 287.036C156.773 287.036 155.557 284.319 157.658 283.793Z" fill="#FB9A83"/>
<path d="M194.269 313.986L193.038 314.503C191.938 314.965 190.83 314.668 189.923 313.892C189.522 313.549 188.892 312.878 188.572 312.691C187.674 312.165 185.564 311.536 184.959 311.744C184.354 311.952 184.922 313.001 185.539 313.306C186.156 313.611 187.068 313.947 187.704 314.477C188.34 315.008 185.687 317.738 184.51 318.608C183.333 319.478 180.735 319.741 180.967 320.922C181.199 322.103 182.994 321.539 182.994 321.539C182.994 321.539 182.899 322.731 184.673 322.941C184.673 322.941 184.82 324.008 185.962 324.131C185.962 324.131 186.366 325.39 187.577 325.259C188.787 325.127 192.554 324.692 197.465 317.93L194.269 313.986Z" fill="#FB9A83"/>
<path d="M226.433 259.401C226.433 259.401 229.56 285.812 227.034 295.637C224.507 305.462 197.648 318.937 197.648 318.937L193.681 314.233C193.681 314.233 214.133 299.13 218.729 292.395L219.38 272.002C219.38 272.002 220.171 265.592 226.433 259.401Z" fill="#00A0FF"/>
<path d="M335.881 438.76C335.881 440.972 320.115 442.764 300.666 442.764C281.217 442.764 265.451 440.971 265.451 438.76C265.451 436.549 281.217 434.756 300.666 434.756C320.114 434.756 335.881 436.549 335.881 438.76Z" fill="#D9E4F5"/>
<path d="M329.297 334.626V432.525C329.297 435.968 326.508 438.76 323.065 438.76H278.267C274.824 438.76 272.035 435.968 272.035 432.525V334.626C272.035 331.183 274.824 328.394 278.267 328.394H323.065C326.508 328.393 329.297 331.183 329.297 334.626Z" fill="#3B3E7D"/>
<path d="M329.297 383.481V432.525C329.297 435.968 326.508 438.76 323.065 438.76H278.267C274.824 438.76 272.035 435.968 272.035 432.525V383.481H329.297Z" fill="#18285D"/>
<path d="M324.232 345.327V421.599C324.232 423.051 323.039 424.247 321.581 424.247H279.754C279.198 424.247 278.686 424.071 278.257 423.784C277.559 423.307 277.099 422.501 277.099 421.599V345.327C277.099 343.633 278.471 342.257 280.169 342.257H321.162C322.86 342.257 324.232 343.633 324.232 345.327Z" fill="#F9F9F9"/>
<path d="M324.232 345.327V349.403H277.099V345.327C277.099 343.633 278.471 342.257 280.169 342.257H321.162C322.86 342.257 324.232 343.633 324.232 345.327Z" fill="#D9E4F5"/>
<path d="M313.509 347.037H287.821C287.157 347.037 286.614 346.494 286.614 345.83C286.614 345.166 287.157 344.623 287.821 344.623H313.509C314.173 344.623 314.716 345.166 314.716 345.83C314.716 346.494 314.173 347.037 313.509 347.037Z" fill="#F9F9F9"/>
<path d="M300.665 433.754C302.406 433.754 303.817 432.343 303.817 430.602C303.817 428.861 302.406 427.45 300.665 427.45C298.924 427.45 297.513 428.861 297.513 430.602C297.513 432.343 298.924 433.754 300.665 433.754Z" fill="#586199"/>
<path d="M314.359 337.628H288.41C287.56 337.628 286.865 336.933 286.865 336.083C286.865 335.233 287.56 334.538 288.41 334.538H314.359C315.209 334.538 315.904 335.233 315.904 336.083C315.904 336.932 315.209 337.628 314.359 337.628Z" fill="#586199"/>
<path d="M321.157 357.718V415.516C321.157 417.661 319.418 419.399 317.274 419.399H284.059C281.914 419.399 280.175 417.66 280.175 415.516V357.718C280.175 355.573 281.914 353.834 284.059 353.834H317.274C319.418 353.835 321.157 355.574 321.157 357.718Z" fill="#D9E4F5"/>
<path d="M321.157 357.718V360.296H280.175V357.718C280.175 355.573 281.914 353.834 284.059 353.834H317.274C319.418 353.835 321.157 355.574 321.157 357.718Z" fill="#B4CAE3"/>
<path d="M316.624 376.708H284.709V399.549H316.624V376.708Z" fill="#007EFF"/>
<path d="M316.623 393.505L315.071 390.892L309.931 382.236L299.651 399.549H316.623V393.505Z" fill="#18285D"/>
<path d="M297.524 399.549H284.709L291.116 389.224L297.524 378.898L303.931 389.224L310.339 399.549H297.524Z" fill="#3B3E7D"/>
<path d="M293.369 385.592L297.524 388.702L301.678 385.592L297.524 378.898L293.369 385.592Z" fill="white"/>
<path d="M306.432 388.128L309.931 390.892L313.43 388.128L309.931 382.236L306.432 388.128Z" fill="white"/>
<path d="M315.379 367.45H285.953C285.266 367.45 284.709 366.893 284.709 366.206V366.03C284.709 365.343 285.266 364.786 285.953 364.786H315.379C316.066 364.786 316.624 365.343 316.624 366.03V366.206C316.623 366.893 316.066 367.45 315.379 367.45Z" fill="#B4CAE3"/>
<path d="M315.379 372.094H285.953C285.266 372.094 284.709 371.537 284.709 370.849V370.673C284.709 369.986 285.266 369.428 285.953 369.428H315.379C316.066 369.428 316.624 369.985 316.624 370.673V370.849C316.623 371.537 316.066 372.094 315.379 372.094Z" fill="#B4CAE3"/>
<path d="M315.379 406.477H285.953C285.266 406.477 284.709 405.92 284.709 405.233V405.057C284.709 404.37 285.266 403.813 285.953 403.813H315.379C316.066 403.813 316.624 404.37 316.624 405.057V405.233C316.623 405.92 316.066 406.477 315.379 406.477Z" fill="#B4CAE3"/>
<path d="M315.379 411.121H285.953C285.266 411.121 284.709 410.564 284.709 409.876V409.7C284.709 409.013 285.266 408.455 285.953 408.455H315.379C316.066 408.455 316.624 409.012 316.624 409.7V409.876C316.623 410.564 316.066 411.121 315.379 411.121Z" fill="#B4CAE3"/>
<path d="M72.326 105.329C72.15 105.32 71.975 105.303 71.799 105.303V111.564H76.936C75.365 108.087 73.064 105.953 72.326 105.329Z" fill="#00468E"/>
<path d="M71.799 124.21H77.656C78.139 122.62 78.403 120.891 78.438 119.073H71.799V124.21Z" fill="#00468E"/>
<path d="M75.066 129.312C75.962 128.153 76.699 126.844 77.253 125.395H71.8V132.28C72.247 132.017 73.652 131.104 75.066 129.312Z" fill="#00468E"/>
<path d="M74.39 105.663C75.049 106.365 75.672 107.129 76.243 107.955C77.033 109.079 77.701 110.3 78.228 111.564H82.61C80.73 108.605 77.762 106.48 74.39 105.663Z" fill="#00468E"/>
<path d="M83.286 112.741H78.667C79.238 114.41 79.554 116.14 79.615 117.887H84.691C84.568 116.087 84.094 114.357 83.286 112.741Z" fill="#00468E"/>
<path d="M77.419 112.741H71.799V117.887H78.438C78.368 116.131 78.025 114.401 77.419 112.741Z" fill="#00468E"/>
<path d="M78.517 125.396C77.902 127.135 77.042 128.707 75.962 130.077C75.417 130.771 74.829 131.403 74.197 131.965C77.929 131.122 81.099 128.76 82.988 125.396H78.517Z" fill="#00468E"/>
<path d="M84.717 119.073H79.624C79.589 120.873 79.334 122.603 78.886 124.21H83.576C84.295 122.585 84.682 120.855 84.717 119.073Z" fill="#00468E"/>
<path d="M57.739 117.887H62.947C63.009 116.14 63.325 114.409 63.895 112.741H59.144C58.328 114.357 57.854 116.087 57.739 117.887Z" fill="#00468E"/>
<path d="M68.409 131.999C67.759 131.428 67.153 130.787 66.6 130.076C65.52 128.706 64.659 127.134 64.044 125.395H59.434C61.34 128.768 64.651 131.2 68.409 131.999Z" fill="#00468E"/>
<path d="M63.676 124.21C63.228 122.603 62.973 120.873 62.938 119.073H57.713C57.748 120.856 58.126 122.586 58.846 124.21H63.676Z" fill="#00468E"/>
<path d="M67.268 108.658C66.636 109.571 66.083 110.546 65.626 111.565H70.623V105.304C70.5 105.304 70.368 105.313 70.245 105.322C69.735 105.751 68.506 106.875 67.268 108.658Z" fill="#00468E"/>
<path d="M70.622 119.073H64.124C64.159 120.891 64.423 122.621 64.906 124.21H70.623L70.622 119.073Z" fill="#00468E"/>
<path d="M70.622 132.201V125.395H65.309C66.934 129.628 69.726 131.639 70.622 132.201Z" fill="#00468E"/>
<path d="M68.216 105.619C64.765 106.409 61.735 108.552 59.812 111.564H64.334C64.861 110.299 65.528 109.079 66.319 107.955C66.899 107.121 67.531 106.339 68.216 105.619Z" fill="#00468E"/>
<path d="M70.622 112.741H65.142C64.536 114.41 64.194 116.131 64.123 117.887H70.621L70.622 112.741Z" fill="#00468E"/>
<path d="M50.004 139.309H48.538C48.157 139.309 47.848 139 47.848 138.619V137.153C47.848 136.772 48.157 136.463 48.538 136.463C48.919 136.463 49.228 136.772 49.228 137.153V137.929H50.004C50.385 137.929 50.694 138.238 50.694 138.619C50.694 139 50.385 139.309 50.004 139.309Z" fill="#B4CAE3"/>
<path d="M89.678 139.309H86.758C86.377 139.309 86.068 139 86.068 138.619C86.068 138.238 86.377 137.929 86.758 137.929H89.678C90.059 137.929 90.368 138.238 90.368 138.619C90.368 139 90.059 139.309 89.678 139.309ZM84.01 139.309H81.09C80.709 139.309 80.4 139 80.4 138.619C80.4 138.238 80.709 137.929 81.09 137.929H84.01C84.391 137.929 84.7 138.238 84.7 138.619C84.7 139 84.391 139.309 84.01 139.309ZM78.343 139.309H75.423C75.042 139.309 74.733 139 74.733 138.619C74.733 138.238 75.042 137.929 75.423 137.929H78.343C78.724 137.929 79.033 138.238 79.033 138.619C79.033 139 78.724 139.309 78.343 139.309ZM72.675 139.309H69.755C69.374 139.309 69.065 139 69.065 138.619C69.065 138.238 69.374 137.929 69.755 137.929H72.675C73.056 137.929 73.365 138.238 73.365 138.619C73.365 139 73.056 139.309 72.675 139.309ZM67.007 139.309H64.087C63.706 139.309 63.397 139 63.397 138.619C63.397 138.238 63.706 137.929 64.087 137.929H67.007C67.388 137.929 67.697 138.238 67.697 138.619C67.697 139 67.388 139.309 67.007 139.309ZM61.34 139.309H58.42C58.039 139.309 57.73 139 57.73 138.619C57.73 138.238 58.039 137.929 58.42 137.929H61.34C61.721 137.929 62.03 138.238 62.03 138.619C62.03 139 61.721 139.309 61.34 139.309ZM55.672 139.309H52.752C52.371 139.309 52.062 139 52.062 138.619C52.062 138.238 52.371 137.929 52.752 137.929H55.672C56.053 137.929 56.362 138.238 56.362 138.619C56.362 139 56.053 139.309 55.672 139.309Z" fill="#B4CAE3"/>
<path d="M93.892 139.309H92.426C92.045 139.309 91.736 139 91.736 138.619C91.736 138.238 92.045 137.929 92.426 137.929H93.202V137.153C93.202 136.772 93.511 136.463 93.892 136.463C94.273 136.463 94.582 136.772 94.582 137.153V138.619C94.582 139 94.273 139.309 93.892 139.309Z" fill="#B4CAE3"/>
<path d="M93.892 135.2C93.511 135.2 93.202 134.891 93.202 134.51V131.703C93.202 131.322 93.511 131.013 93.892 131.013C94.273 131.013 94.582 131.322 94.582 131.703V134.51C94.582 134.891 94.273 135.2 93.892 135.2ZM93.892 129.75C93.511 129.75 93.202 129.441 93.202 129.06V126.252C93.202 125.871 93.511 125.562 93.892 125.562C94.273 125.562 94.582 125.871 94.582 126.252V129.06C94.582 129.441 94.273 129.75 93.892 129.75ZM93.892 124.3C93.511 124.3 93.202 123.991 93.202 123.61V120.803C93.202 120.422 93.511 120.113 93.892 120.113C94.273 120.113 94.582 120.422 94.582 120.803V123.61C94.582 123.992 94.273 124.3 93.892 124.3ZM93.892 118.851C93.511 118.851 93.202 118.542 93.202 118.161V115.353C93.202 114.972 93.511 114.663 93.892 114.663C94.273 114.663 94.582 114.972 94.582 115.353V118.161C94.582 118.542 94.273 118.851 93.892 118.851ZM93.892 113.401C93.511 113.401 93.202 113.092 93.202 112.711V109.903C93.202 109.522 93.511 109.213 93.892 109.213C94.273 109.213 94.582 109.522 94.582 109.903V112.711C94.582 113.092 94.273 113.401 93.892 113.401ZM93.892 107.951C93.511 107.951 93.202 107.642 93.202 107.261V104.453C93.202 104.072 93.511 103.763 93.892 103.763C94.273 103.763 94.582 104.072 94.582 104.453V107.261C94.582 107.642 94.273 107.951 93.892 107.951Z" fill="#B4CAE3"/>
<path d="M93.892 102.501C93.511 102.501 93.202 102.192 93.202 101.811V101.035H92.426C92.045 101.035 91.736 100.726 91.736 100.345C91.736 99.964 92.045 99.655 92.426 99.655H93.892C94.273 99.655 94.582 99.964 94.582 100.345V101.811C94.582 102.192 94.273 102.501 93.892 102.501Z" fill="#B4CAE3"/>
<path d="M89.678 101.035H86.758C86.377 101.035 86.068 100.726 86.068 100.345C86.068 99.964 86.377 99.655 86.758 99.655H89.678C90.059 99.655 90.368 99.964 90.368 100.345C90.368 100.726 90.059 101.035 89.678 101.035ZM84.01 101.035H81.09C80.709 101.035 80.4 100.726 80.4 100.345C80.4 99.964 80.709 99.655 81.09 99.655H84.01C84.391 99.655 84.7 99.964 84.7 100.345C84.7 100.726 84.391 101.035 84.01 101.035ZM78.343 101.035H75.423C75.042 101.035 74.733 100.726 74.733 100.345C74.733 99.964 75.042 99.655 75.423 99.655H78.343C78.724 99.655 79.033 99.964 79.033 100.345C79.033 100.726 78.724 101.035 78.343 101.035ZM72.675 101.035H69.755C69.374 101.035 69.065 100.726 69.065 100.345C69.065 99.964 69.374 99.655 69.755 99.655H72.675C73.056 99.655 73.365 99.964 73.365 100.345C73.365 100.726 73.056 101.035 72.675 101.035ZM67.007 101.035H64.087C63.706 101.035 63.397 100.726 63.397 100.345C63.397 99.964 63.706 99.655 64.087 99.655H67.007C67.388 99.655 67.697 99.964 67.697 100.345C67.697 100.726 67.388 101.035 67.007 101.035ZM61.34 101.035H58.42C58.039 101.035 57.73 100.726 57.73 100.345C57.73 99.964 58.039 99.655 58.42 99.655H61.34C61.721 99.655 62.03 99.964 62.03 100.345C62.03 100.726 61.721 101.035 61.34 101.035ZM55.672 101.035H52.752C52.371 101.035 52.062 100.726 52.062 100.345C52.062 99.964 52.371 99.655 52.752 99.655H55.672C56.053 99.655 56.362 99.964 56.362 100.345C56.362 100.726 56.053 101.035 55.672 101.035Z" fill="#B4CAE3"/>
<path d="M48.538 102.501C48.157 102.501 47.848 102.192 47.848 101.811V100.345C47.848 99.964 48.157 99.655 48.538 99.655H50.004C50.385 99.655 50.694 99.964 50.694 100.345C50.694 100.726 50.385 101.035 50.004 101.035H49.228V101.811C49.228 102.192 48.919 102.501 48.538 102.501Z" fill="#B4CAE3"/>
<path d="M48.538 135.2C48.157 135.2 47.848 134.891 47.848 134.51V131.703C47.848 131.322 48.157 131.013 48.538 131.013C48.919 131.013 49.228 131.322 49.228 131.703V134.51C49.228 134.891 48.919 135.2 48.538 135.2ZM48.538 129.75C48.157 129.75 47.848 129.441 47.848 129.06V126.252C47.848 125.871 48.157 125.562 48.538 125.562C48.919 125.562 49.228 125.871 49.228 126.252V129.06C49.228 129.441 48.919 129.75 48.538 129.75ZM48.538 124.3C48.157 124.3 47.848 123.991 47.848 123.61V120.803C47.848 120.422 48.157 120.113 48.538 120.113C48.919 120.113 49.228 120.422 49.228 120.803V123.61C49.228 123.992 48.919 124.3 48.538 124.3ZM48.538 118.851C48.157 118.851 47.848 118.542 47.848 118.161V115.353C47.848 114.972 48.157 114.663 48.538 114.663C48.919 114.663 49.228 114.972 49.228 115.353V118.161C49.228 118.542 48.919 118.851 48.538 118.851ZM48.538 113.401C48.157 113.401 47.848 113.092 47.848 112.711V109.903C47.848 109.522 48.157 109.213 48.538 109.213C48.919 109.213 49.228 109.522 49.228 109.903V112.711C49.228 113.092 48.919 113.401 48.538 113.401ZM48.538 107.951C48.157 107.951 47.848 107.642 47.848 107.261V104.453C47.848 104.072 48.157 103.763 48.538 103.763C48.919 103.763 49.228 104.072 49.228 104.453V107.261C49.228 107.642 48.919 107.951 48.538 107.951Z" fill="#B4CAE3"/>
<path d="M113.448 148.766C113.067 148.766 112.758 148.457 112.758 148.076V145.143C112.758 144.762 113.067 144.453 113.448 144.453C113.829 144.453 114.138 144.762 114.138 145.143V148.076C114.138 148.456 113.829 148.766 113.448 148.766ZM113.448 143.072C113.067 143.072 112.758 142.763 112.758 142.382V139.449C112.758 139.068 113.067 138.759 113.448 138.759C113.829 138.759 114.138 139.068 114.138 139.449V142.382C114.138 142.763 113.829 143.072 113.448 143.072ZM113.448 137.379C113.067 137.379 112.758 137.07 112.758 136.689V133.756C112.758 133.375 113.067 133.066 113.448 133.066C113.829 133.066 114.138 133.375 114.138 133.756V136.689C114.138 137.07 113.829 137.379 113.448 137.379ZM113.448 131.685C113.067 131.685 112.758 131.376 112.758 130.995V128.062C112.758 127.681 113.067 127.372 113.448 127.372C113.829 127.372 114.138 127.681 114.138 128.062V130.995C114.138 131.376 113.829 131.685 113.448 131.685ZM113.448 125.992C113.067 125.992 112.758 125.683 112.758 125.302V122.369C112.758 121.988 113.067 121.679 113.448 121.679C113.829 121.679 114.138 121.988 114.138 122.369V125.302C114.138 125.683 113.829 125.992 113.448 125.992ZM111.08 122.666H108.147C107.766 122.666 107.457 122.357 107.457 121.976C107.457 121.595 107.766 121.286 108.147 121.286H111.08C111.461 121.286 111.77 121.595 111.77 121.976C111.77 122.357 111.461 122.666 111.08 122.666ZM105.387 122.666H102.454C102.073 122.666 101.764 122.357 101.764 121.976C101.764 121.595 102.073 121.286 102.454 121.286H105.387C105.768 121.286 106.077 121.595 106.077 121.976C106.077 122.357 105.768 122.666 105.387 122.666ZM99.693 122.666H96.76C96.379 122.666 96.07 122.357 96.07 121.976C96.07 121.595 96.379 121.286 96.76 121.286H99.693C100.074 121.286 100.383 121.595 100.383 121.976C100.383 122.357 100.074 122.666 99.693 122.666ZM94 122.666H93.937C93.556 122.666 93.247 122.357 93.247 121.976C93.247 121.595 93.556 121.286 93.937 121.286H94C94.381 121.286 94.69 121.595 94.69 121.976C94.69 122.357 94.381 122.666 94 122.666Z" fill="#B4CAE3"/>
<path d="M476.939 233.999H478.405C478.786 233.999 479.095 233.69 479.095 233.309V231.843C479.095 231.462 478.786 231.153 478.405 231.153C478.024 231.153 477.715 231.462 477.715 231.843V232.619H476.939C476.558 232.619 476.249 232.928 476.249 233.309C476.249 233.689 476.558 233.999 476.939 233.999Z" fill="#B4CAE3"/>
<path d="M436.576 233.308C436.576 232.927 436.885 232.618 437.266 232.618H440.186C440.567 232.618 440.876 232.927 440.876 233.308C440.876 233.689 440.567 233.998 440.186 233.998H437.266C436.885 233.999 436.576 233.689 436.576 233.308ZM442.243 233.308C442.243 232.927 442.552 232.618 442.933 232.618H445.853C446.234 232.618 446.543 232.927 446.543 233.308C446.543 233.689 446.234 233.998 445.853 233.998H442.933C442.552 233.999 442.243 233.689 442.243 233.308ZM447.911 233.308C447.911 232.927 448.22 232.618 448.601 232.618H451.521C451.902 232.618 452.211 232.927 452.211 233.308C452.211 233.689 451.902 233.998 451.521 233.998H448.601C448.22 233.999 447.911 233.689 447.911 233.308ZM453.579 233.308C453.579 232.927 453.888 232.618 454.269 232.618H457.189C457.57 232.618 457.879 232.927 457.879 233.308C457.879 233.689 457.57 233.998 457.189 233.998H454.269C453.888 233.999 453.579 233.689 453.579 233.308ZM459.246 233.308C459.246 232.927 459.555 232.618 459.936 232.618H462.856C463.237 232.618 463.546 232.927 463.546 233.308C463.546 233.689 463.237 233.998 462.856 233.998H459.936C459.555 233.999 459.246 233.689 459.246 233.308ZM464.914 233.308C464.914 232.927 465.223 232.618 465.604 232.618H468.524C468.905 232.618 469.214 232.927 469.214 233.308C469.214 233.689 468.905 233.998 468.524 233.998H465.604C465.223 233.999 464.914 233.689 464.914 233.308ZM470.582 233.308C470.582 232.927 470.891 232.618 471.272 232.618H474.192C474.573 232.618 474.882 232.927 474.882 233.308C474.882 233.689 474.573 233.998 474.192 233.998H471.272C470.891 233.999 470.582 233.689 470.582 233.308Z" fill="#B4CAE3"/>
<path d="M433.051 233.999H434.518C434.899 233.999 435.208 233.69 435.208 233.309C435.208 232.928 434.899 232.619 434.518 232.619H433.742V231.843C433.742 231.462 433.433 231.153 433.052 231.153C432.671 231.153 432.362 231.462 432.362 231.843V233.309C432.361 233.689 432.67 233.999 433.051 233.999Z" fill="#B4CAE3"/>
<path d="M432.361 229.199V226.392C432.361 226.011 432.67 225.702 433.051 225.702C433.432 225.702 433.741 226.011 433.741 226.392V229.199C433.741 229.58 433.432 229.889 433.051 229.889C432.67 229.889 432.361 229.581 432.361 229.199ZM432.361 223.75V220.942C432.361 220.561 432.67 220.252 433.051 220.252C433.432 220.252 433.741 220.561 433.741 220.942V223.75C433.741 224.131 433.432 224.44 433.051 224.44C432.67 224.44 432.361 224.131 432.361 223.75ZM432.361 218.3V215.493C432.361 215.112 432.67 214.803 433.051 214.803C433.432 214.803 433.741 215.112 433.741 215.493V218.3C433.741 218.681 433.432 218.99 433.051 218.99C432.67 218.99 432.361 218.681 432.361 218.3ZM432.361 212.85V210.042C432.361 209.661 432.67 209.352 433.051 209.352C433.432 209.352 433.741 209.661 433.741 210.042V212.85C433.741 213.231 433.432 213.54 433.051 213.54C432.67 213.54 432.361 213.231 432.361 212.85ZM432.361 207.4V204.592C432.361 204.211 432.67 203.902 433.051 203.902C433.432 203.902 433.741 204.211 433.741 204.592V207.4C433.741 207.781 433.432 208.09 433.051 208.09C432.67 208.09 432.361 207.781 432.361 207.4ZM432.361 201.95V199.142C432.361 198.761 432.67 198.452 433.051 198.452C433.432 198.452 433.741 198.761 433.741 199.142V201.95C433.741 202.331 433.432 202.64 433.051 202.64C432.67 202.64 432.361 202.331 432.361 201.95Z" fill="#B4CAE3"/>
<path d="M433.051 197.19C433.432 197.19 433.741 196.881 433.741 196.5V195.724H434.517C434.898 195.724 435.207 195.415 435.207 195.034C435.207 194.653 434.898 194.344 434.517 194.344H433.05C432.669 194.344 432.36 194.653 432.36 195.034V196.5C432.361 196.881 432.67 197.19 433.051 197.19Z" fill="#B4CAE3"/>
<path d="M436.576 195.034C436.576 194.653 436.885 194.344 437.266 194.344H440.186C440.567 194.344 440.876 194.653 440.876 195.034C440.876 195.415 440.567 195.724 440.186 195.724H437.266C436.885 195.724 436.576 195.415 436.576 195.034ZM442.243 195.034C442.243 194.653 442.552 194.344 442.933 194.344H445.853C446.234 194.344 446.543 194.653 446.543 195.034C446.543 195.415 446.234 195.724 445.853 195.724H442.933C442.552 195.724 442.243 195.415 442.243 195.034ZM447.911 195.034C447.911 194.653 448.22 194.344 448.601 194.344H451.521C451.902 194.344 452.211 194.653 452.211 195.034C452.211 195.415 451.902 195.724 451.521 195.724H448.601C448.22 195.724 447.911 195.415 447.911 195.034ZM453.579 195.034C453.579 194.653 453.888 194.344 454.269 194.344H457.189C457.57 194.344 457.879 194.653 457.879 195.034C457.879 195.415 457.57 195.724 457.189 195.724H454.269C453.888 195.724 453.579 195.415 453.579 195.034ZM459.246 195.034C459.246 194.653 459.555 194.344 459.936 194.344H462.856C463.237 194.344 463.546 194.653 463.546 195.034C463.546 195.415 463.237 195.724 462.856 195.724H459.936C459.555 195.724 459.246 195.415 459.246 195.034ZM464.914 195.034C464.914 194.653 465.223 194.344 465.604 194.344H468.524C468.905 194.344 469.214 194.653 469.214 195.034C469.214 195.415 468.905 195.724 468.524 195.724H465.604C465.223 195.724 464.914 195.415 464.914 195.034ZM470.582 195.034C470.582 194.653 470.891 194.344 471.272 194.344H474.192C474.573 194.344 474.882 194.653 474.882 195.034C474.882 195.415 474.573 195.724 474.192 195.724H471.272C470.891 195.724 470.582 195.415 470.582 195.034Z" fill="#B4CAE3"/>
<path d="M478.406 197.19C478.787 197.19 479.096 196.881 479.096 196.5V195.034C479.096 194.653 478.787 194.344 478.406 194.344H476.94C476.559 194.344 476.25 194.653 476.25 195.034C476.25 195.415 476.559 195.724 476.94 195.724H477.716V196.5C477.716 196.881 478.025 197.19 478.406 197.19Z" fill="#B4CAE3"/>
<path d="M477.716 229.199V226.392C477.716 226.011 478.025 225.702 478.406 225.702C478.787 225.702 479.096 226.011 479.096 226.392V229.199C479.096 229.58 478.787 229.889 478.406 229.889C478.025 229.889 477.716 229.581 477.716 229.199ZM477.716 223.75V220.942C477.716 220.561 478.025 220.252 478.406 220.252C478.787 220.252 479.096 220.561 479.096 220.942V223.75C479.096 224.131 478.787 224.44 478.406 224.44C478.025 224.44 477.716 224.131 477.716 223.75ZM477.716 218.3V215.493C477.716 215.112 478.025 214.803 478.406 214.803C478.787 214.803 479.096 215.112 479.096 215.493V218.3C479.096 218.681 478.787 218.99 478.406 218.99C478.025 218.99 477.716 218.681 477.716 218.3ZM477.716 212.85V210.042C477.716 209.661 478.025 209.352 478.406 209.352C478.787 209.352 479.096 209.661 479.096 210.042V212.85C479.096 213.231 478.787 213.54 478.406 213.54C478.025 213.54 477.716 213.231 477.716 212.85ZM477.716 207.4V204.592C477.716 204.211 478.025 203.902 478.406 203.902C478.787 203.902 479.096 204.211 479.096 204.592V207.4C479.096 207.781 478.787 208.09 478.406 208.09C478.025 208.09 477.716 207.781 477.716 207.4ZM477.716 201.95V199.142C477.716 198.761 478.025 198.452 478.406 198.452C478.787 198.452 479.096 198.761 479.096 199.142V201.95C479.096 202.331 478.787 202.64 478.406 202.64C478.025 202.64 477.716 202.331 477.716 201.95Z" fill="#B4CAE3"/>
<path d="M430.184 215.975H427.251C426.87 215.975 426.561 216.284 426.561 216.665C426.561 217.046 426.87 217.355 427.251 217.355H430.184C430.565 217.355 430.874 217.046 430.874 216.665C430.874 216.284 430.565 215.975 430.184 215.975Z" fill="#B4CAE3"/>
<path d="M423.85 215.975H423.151V217.355H423.85C424.231 217.355 424.54 217.046 424.54 216.665C424.54 216.284 424.232 215.975 423.85 215.975Z" fill="#B4CAE3"/>
<path d="M433.007 215.975H432.944C432.563 215.975 432.254 216.284 432.254 216.665C432.254 217.046 432.563 217.355 432.944 217.355H433.007C433.388 217.355 433.697 217.046 433.697 216.665C433.697 216.284 433.388 215.975 433.007 215.975Z" fill="#B4CAE3"/>
<path d="M456.355 222.917C451.432 222.917 447.427 218.912 447.427 213.99C447.427 212.695 447.711 211.469 448.211 210.359L448.583 214.076C448.628 214.521 449.003 214.854 449.441 214.854C449.491 214.854 449.541 214.85 449.592 214.841C450.043 214.766 450.345 214.331 450.299 213.876L449.726 208.143C449.678 207.668 449.249 207.323 448.78 207.369L443.043 207.943C442.632 207.984 442.286 208.301 442.246 208.713C442.191 209.277 442.66 209.716 443.192 209.665L446.123 209.372C445.35 211.078 444.982 213.007 445.171 215.039C445.661 220.314 449.857 224.581 455.123 225.154C456.418 225.295 457.674 225.209 458.858 224.937C459.717 224.739 460.036 223.69 459.438 223.042C459.432 223.036 459.427 223.03 459.421 223.024C459.143 222.723 458.723 222.606 458.323 222.697C457.691 222.84 457.032 222.917 456.355 222.917Z" fill="#007EFF"/>
<path d="M471.097 216.775C470.911 216.239 470.3 216.034 469.837 216.306L466.786 218.11C467.296 216.833 467.585 215.446 467.585 213.989C467.585 207.796 462.547 202.757 456.354 202.757C455.737 202.757 455.133 202.81 454.544 202.909C453.645 203.06 453.293 204.172 453.929 204.826C453.935 204.832 453.941 204.838 453.947 204.845C454.21 205.116 454.589 205.237 454.962 205.176C455.415 205.102 455.88 205.062 456.354 205.062C461.277 205.062 465.281 209.067 465.281 213.99C465.281 215.135 465.059 216.227 464.663 217.233L463.091 214.575C462.841 214.152 462.286 214.02 461.87 214.295C461.479 214.553 461.39 215.093 461.629 215.496L464.551 220.437C464.712 220.709 465 220.861 465.296 220.861C465.445 220.861 465.597 220.822 465.735 220.741L470.697 217.807C471.052 217.596 471.232 217.165 471.097 216.775Z" fill="#007EFF"/>
</svg>
