<svg width="32" height="36" viewBox="0 0 32 36" fill="none" xmlns="http://www.w3.org/2000/svg">
<path d="M31.0874 26.325L28.9499 23.25C28.6581 22.832 28.5011 22.3348 28.4999 21.825V13C28.4999 9.68479 27.183 6.50537 24.8387 4.16116C22.4945 1.81696 19.3151 0.5 15.9999 0.5C12.6847 0.5 9.50529 1.81696 7.16108 4.16116C4.81688 6.50537 3.49992 9.68479 3.49992 13V21.825C3.49871 22.3348 3.34169 22.832 3.04992 23.25L0.912416 26.325C0.588765 26.6836 0.375937 27.1283 0.299669 27.6053C0.2234 28.0823 0.286958 28.5712 0.482656 29.0128C0.678353 29.4545 0.99781 29.8299 1.40239 30.0939C1.80698 30.3578 2.27936 30.4989 2.76242 30.5H9.87492C10.1618 31.9129 10.9283 33.1831 12.0446 34.0955C13.1609 35.0078 14.5582 35.5063 15.9999 35.5063C17.4416 35.5063 18.839 35.0078 19.9552 34.0955C21.0715 33.1831 21.838 31.9129 22.1249 30.5H29.2374C29.7205 30.4989 30.1929 30.3578 30.5974 30.0939C31.002 29.8299 31.3215 29.4545 31.5172 29.0128C31.7129 28.5712 31.7764 28.0823 31.7002 27.6053C31.6239 27.1283 31.4111 26.6836 31.0874 26.325ZM15.9999 33C15.2262 32.9978 14.4722 32.7564 13.8411 32.3088C13.21 31.8612 12.7328 31.2294 12.4749 30.5H19.5249C19.267 31.2294 18.7898 31.8612 18.1587 32.3088C17.5277 32.7564 16.7736 32.9978 15.9999 33ZM2.76242 28C2.81891 27.9476 2.86924 27.8889 2.91242 27.825L5.09992 24.675C5.68347 23.839 5.9975 22.8445 5.99992 21.825V13C5.99992 10.3478 7.05348 7.8043 8.92885 5.92893C10.8042 4.05357 13.3478 3 15.9999 3C18.6521 3 21.1956 4.05357 23.071 5.92893C24.9463 7.8043 25.9999 10.3478 25.9999 13V21.825C26.0023 22.8445 26.3164 23.839 26.8999 24.675L29.0874 27.825C29.1306 27.8889 29.1809 27.9476 29.2374 28H2.76242Z" fill="#606060"/>
</svg>
