<svg width="20" height="21" viewBox="0 0 20 21" fill="none" xmlns="http://www.w3.org/2000/svg">
<g id="telephone(1) 1" clip-path="url(#clip0_85_2587)">
<g id="Group">
<path id="Vector" d="M4.07538 13.7947C6.04803 16.1527 8.42267 18.0093 11.133 19.323C12.1649 19.8121 13.5449 20.3923 15.0824 20.4917C15.1777 20.4959 15.2689 20.5 15.3642 20.5C16.3961 20.5 17.225 20.1436 17.9005 19.4101C17.9046 19.4059 17.9129 19.3976 17.9171 19.3893C18.1574 19.0993 18.431 18.8382 18.7169 18.5605C18.9117 18.374 19.1106 18.1792 19.3012 17.9803C20.184 17.0603 20.184 15.8916 19.293 15.0006L16.8023 12.5099C16.3796 12.0707 15.874 11.8386 15.3435 11.8386C14.8131 11.8386 14.3033 12.0707 13.8682 12.5058L12.3845 13.9894C12.2478 13.9107 12.1069 13.8402 11.9743 13.7739C11.8085 13.691 11.6552 13.6123 11.5184 13.5253C10.1674 12.6674 8.9407 11.5485 7.76788 10.1104C7.17526 9.36034 6.77742 8.73042 6.49975 8.08807C6.88931 7.73581 7.254 7.36697 7.60626 7.00642C7.73059 6.87795 7.85906 6.74948 7.98753 6.62101C8.4351 6.17344 8.67547 5.65541 8.67547 5.12909C8.67547 4.60278 8.43925 4.08475 7.98753 3.63717L6.75255 2.4022C6.6075 2.25715 6.47074 2.11625 6.32984 1.9712C6.05632 1.68939 5.77037 1.3993 5.48856 1.13821C5.06171 0.719644 4.56026 0.5 4.0298 0.5C3.50348 0.5 2.99789 0.719644 2.55446 1.14235L1.00452 2.69229C0.440905 3.25591 0.1218 3.9397 0.0554928 4.73125C-0.0232474 5.72172 0.159098 6.77435 0.631539 8.04662C1.35678 10.0151 2.45085 11.8427 4.07538 13.7947ZM1.06668 4.81828C1.11641 4.26709 1.32777 3.80709 1.72561 3.40924L3.26726 1.86759C3.50763 1.63552 3.77286 1.51533 4.0298 1.51533C4.2826 1.51533 4.53954 1.63552 4.77576 1.87588C5.05342 2.13282 5.31451 2.4022 5.59631 2.68815C5.73722 2.8332 5.88226 2.97824 6.02731 3.12743L7.26229 4.36241C7.51923 4.61935 7.65185 4.88044 7.65185 5.13738C7.65185 5.39432 7.51923 5.65541 7.26229 5.91235C7.13382 6.04082 7.00535 6.17344 6.87688 6.30191C6.49146 6.69146 6.13092 7.0603 5.73307 7.41256C5.72478 7.42085 5.72064 7.42499 5.71235 7.43328C5.36838 7.77725 5.42226 8.10464 5.50514 8.35329C5.50928 8.36573 5.51343 8.37402 5.51757 8.38645C5.83668 9.15313 6.28011 9.88251 6.97219 10.7528C8.21546 12.2862 9.52503 13.4755 10.9672 14.3914C11.1454 14.5075 11.3361 14.5986 11.5143 14.6898C11.68 14.7727 11.8334 14.8514 11.9701 14.9385C11.9867 14.9467 11.9991 14.955 12.0157 14.9633C12.1525 15.0338 12.2851 15.0669 12.4177 15.0669C12.7492 15.0669 12.9647 14.8556 13.0352 14.7851L14.5851 13.2352C14.8255 12.9948 15.0866 12.8663 15.3435 12.8663C15.6585 12.8663 15.9154 13.0611 16.077 13.2352L18.576 15.73C19.0733 16.2273 19.0692 16.7661 18.5636 17.2924C18.3895 17.4789 18.2072 17.6571 18.0124 17.8436C17.7223 18.1254 17.4198 18.4155 17.1462 18.7429C16.6697 19.2567 16.1019 19.4971 15.3684 19.4971C15.2979 19.4971 15.2233 19.493 15.1529 19.4888C13.7936 19.4018 12.5296 18.8713 11.5806 18.4196C9.00286 17.1722 6.74012 15.4026 4.86279 13.1564C3.31699 11.2957 2.27679 9.56341 1.58885 7.7068C1.162 6.56714 1.00037 5.65126 1.06668 4.81828Z" fill="#7880AA"/>
</g>
</g>
<defs>
<clipPath id="clip0_85_2587">
<rect width="20" height="20" fill="white" transform="translate(0 0.5)"/>
</clipPath>
</defs>
</svg>
