<svg width="24" height="24" viewBox="0 0 24 24" fill="none" xmlns="http://www.w3.org/2000/svg">
<g id="Frame">
<g id="Group">
<path id="Vector" d="M20.4997 16H7.4997C7.38415 15.9999 7.2722 15.9598 7.18287 15.8866C7.09354 15.8133 7.03235 15.7113 7.0097 15.598L5.0097 5.598C4.9952 5.52549 4.99697 5.45067 5.01488 5.37892C5.03279 5.30718 5.06639 5.2403 5.11325 5.1831C5.16012 5.1259 5.21909 5.07981 5.28591 5.04815C5.35274 5.01649 5.42575 5.00005 5.4997 5H22.4997C22.5737 4.9999 22.6469 5.01623 22.7138 5.04783C22.7808 5.07943 22.8398 5.1255 22.8868 5.18271C22.9338 5.23993 22.9675 5.30686 22.9855 5.37868C23.0034 5.4505 23.0052 5.52541 22.9907 5.598L20.9907 15.598C20.9677 15.7113 20.9062 15.8132 20.8168 15.8864C20.7273 15.9597 20.6153 15.9998 20.4997 16ZM7.9097 15H20.0897L21.8897 6H6.1097L7.9097 15Z" fill="#627193"/>
<path id="Vector_2" d="M7.5 16C7.38445 16 7.2725 15.9599 7.18317 15.8866C7.09384 15.8133 7.03265 15.7114 7.01 15.598L4.531 3.20405C4.46215 2.86439 4.27819 2.55891 4.01018 2.33919C3.74218 2.11947 3.40656 1.99897 3.06 1.99805L1.5 2.00005C1.36739 2.00005 1.24021 1.94737 1.14645 1.8536C1.05268 1.75983 1 1.63266 1 1.50005C1 1.36744 1.05268 1.24026 1.14645 1.14649C1.24021 1.05273 1.36739 1.00005 1.5 1.00005L3.058 0.998047H3.06C4.248 0.998047 5.279 1.84305 5.512 3.00805L7.99 15.402C8.00449 15.4746 8.00272 15.5494 7.98482 15.6211C7.96691 15.6929 7.93331 15.7598 7.88645 15.8169C7.83958 15.8741 7.78061 15.9202 7.71379 15.9519C7.64696 15.9836 7.57395 16 7.5 16Z" fill="#627193"/>
<path id="Vector_3" d="M22.5 18H5.5C4.673 18 4 17.327 4 16.5C4 15.673 4.673 15 5.5 15H7.5C7.63261 15 7.75979 15.0527 7.85355 15.1464C7.94732 15.2402 8 15.3674 8 15.5C8 15.6326 7.94732 15.7598 7.85355 15.8536C7.75979 15.9473 7.63261 16 7.5 16H5.5C5.36739 16 5.24021 16.0527 5.14645 16.1464C5.05268 16.2402 5 16.3674 5 16.5C5 16.6326 5.05268 16.7598 5.14645 16.8536C5.24021 16.9473 5.36739 17 5.5 17H22.5C22.6326 17 22.7598 17.0527 22.8536 17.1464C22.9473 17.2402 23 17.3674 23 17.5C23 17.6326 22.9473 17.7598 22.8536 17.8536C22.7598 17.9473 22.6326 18 22.5 18ZM9 23C7.897 23 7 22.103 7 21C7 19.897 7.897 19 9 19C10.103 19 11 19.897 11 21C11 22.103 10.103 23 9 23ZM9 20C8.449 20 8 20.449 8 21C8 21.551 8.449 22 9 22C9.551 22 10 21.551 10 21C10 20.449 9.551 20 9 20ZM18 23C16.897 23 16 22.103 16 21C16 19.897 16.897 19 18 19C19.103 19 20 19.897 20 21C20 22.103 19.103 23 18 23ZM18 20C17.449 20 17 20.449 17 21C17 21.551 17.449 22 18 22C18.551 22 19 21.551 19 21C19 20.449 18.551 20 18 20Z" fill="#627193"/>
</g>
</g>
</svg>
