<svg width="20" height="20" viewBox="0 0 20 20" fill="none" xmlns="http://www.w3.org/2000/svg">
<path d="M15 14.375C14.6292 14.375 14.2666 14.485 13.9583 14.691C13.65 14.897 13.4096 15.1899 13.2677 15.5325C13.1258 15.8751 13.0887 16.2521 13.161 16.6158C13.2334 16.9795 13.412 17.3136 13.6742 17.5758C13.9364 17.838 14.2705 18.0166 14.6342 18.089C14.9979 18.1613 15.3749 18.1242 15.7175 17.9823C16.0601 17.8404 16.353 17.6 16.559 17.2917C16.765 16.9834 16.875 16.6208 16.875 16.25C16.8745 15.7529 16.6768 15.2762 16.3253 14.9247C15.9738 14.5732 15.4971 14.3755 15 14.375ZM15 16.875C14.8764 16.875 14.7556 16.8383 14.6528 16.7697C14.55 16.701 14.4699 16.6034 14.4226 16.4892C14.3753 16.375 14.3629 16.2493 14.387 16.1281C14.4111 16.0068 14.4707 15.8955 14.5581 15.8081C14.6455 15.7206 14.7568 15.6611 14.8781 15.637C14.9993 15.6129 15.125 15.6253 15.2392 15.6726C15.3534 15.7199 15.451 15.8 15.5197 15.9028C15.5883 16.0055 15.625 16.1264 15.625 16.25C15.6248 16.4157 15.5589 16.5746 15.4418 16.6918C15.3246 16.8089 15.1657 16.8748 15 16.875Z" fill="#212121"/>
<path d="M11.25 14.375H6.25C6.08424 14.375 5.92527 14.3092 5.80806 14.1919C5.69085 14.0747 5.625 13.9158 5.625 13.75C5.625 13.5842 5.69085 13.4253 5.80806 13.3081C5.92527 13.1908 6.08424 13.125 6.25 13.125H16.25C16.3978 13.125 16.5409 13.0725 16.6537 12.977C16.7666 12.8814 16.8419 12.7489 16.8662 12.6031L18.1162 5.10312C18.1312 5.01358 18.1265 4.92185 18.1025 4.83431C18.0784 4.74677 18.0355 4.66553 17.9769 4.59623C17.9182 4.52693 17.8452 4.47124 17.7628 4.43304C17.6805 4.39483 17.5908 4.37503 17.5 4.375H7.5C7.33424 4.375 7.17527 4.44085 7.05806 4.55806C6.94085 4.67527 6.875 4.83424 6.875 5C6.875 5.16576 6.94085 5.32473 7.05806 5.44194C7.17527 5.55915 7.33424 5.625 7.5 5.625H16.7625L15.7206 11.875H7.93312L4.33562 2.28063C4.29094 2.16142 4.21092 2.0587 4.10626 1.98621C4.0016 1.91372 3.87731 1.87492 3.75 1.875H2.5C2.33424 1.875 2.17527 1.94085 2.05806 2.05806C1.94085 2.17527 1.875 2.33424 1.875 2.5C1.875 2.66576 1.94085 2.82473 2.05806 2.94194C2.17527 3.05915 2.33424 3.125 2.5 3.125H3.31687L6.59812 11.875H6.25C5.79467 11.8718 5.35384 12.0349 5.01031 12.3338C4.66677 12.6327 4.44417 13.0467 4.38431 13.498C4.32445 13.9494 4.43146 14.4071 4.68523 14.7852C4.939 15.1633 5.32208 15.4357 5.7625 15.5512C5.64519 15.8335 5.59856 16.1402 5.62665 16.4446C5.65475 16.749 5.75672 17.0419 5.92372 17.298C6.09072 17.554 6.31769 17.7654 6.58493 17.9139C6.85218 18.0623 7.15161 18.1432 7.45723 18.1497C7.76286 18.1561 8.06544 18.0879 8.3387 17.9508C8.61196 17.8138 8.84765 17.6122 9.02529 17.3634C9.20293 17.1146 9.31716 16.8262 9.35807 16.5233C9.39897 16.2203 9.36531 15.912 9.26 15.625H11.25C11.4158 15.625 11.5747 15.5592 11.6919 15.4419C11.8092 15.3247 11.875 15.1658 11.875 15C11.875 14.8342 11.8092 14.6753 11.6919 14.5581C11.5747 14.4408 11.4158 14.375 11.25 14.375ZM8.125 16.25C8.125 16.3736 8.08834 16.4944 8.01967 16.5972C7.95099 16.7 7.85338 16.7801 7.73918 16.8274C7.62497 16.8747 7.49931 16.8871 7.37807 16.863C7.25683 16.8389 7.14547 16.7793 7.05806 16.6919C6.97065 16.6045 6.91112 16.4932 6.88701 16.3719C6.86289 16.2507 6.87527 16.125 6.92257 16.0108C6.96988 15.8966 7.04999 15.799 7.15277 15.7303C7.25555 15.6617 7.37639 15.625 7.5 15.625C7.66571 15.6252 7.82458 15.6911 7.94176 15.8082C8.05893 15.9254 8.12483 16.0843 8.125 16.25Z" fill="#212121"/>
</svg>
