<svg width="24" height="24" viewBox="0 0 24 24" fill="none" xmlns="http://www.w3.org/2000/svg">
<g clip-path="url(#clip0_257_7682)">
<path d="M17.5 13C13.916 13 11 10.084 11 6.5C11 2.916 13.916 0 17.5 0C21.084 0 24 2.916 24 6.5C24 10.084 21.084 13 17.5 13ZM17.5 1C14.467 1 12 3.467 12 6.5C12 9.533 14.467 12 17.5 12C20.533 12 23 9.533 23 6.5C23 3.467 20.533 1 17.5 1Z" fill="white"/>
<path d="M17.5 10C17.3674 10 17.2402 9.94732 17.1464 9.85355C17.0527 9.75979 17 9.63261 17 9.5V3.5C17 3.36739 17.0527 3.24021 17.1464 3.14645C17.2402 3.05268 17.3674 3 17.5 3C17.6326 3 17.7598 3.05268 17.8536 3.14645C17.9473 3.24021 18 3.36739 18 3.5V9.5C18 9.63261 17.9473 9.75979 17.8536 9.85355C17.7598 9.94732 17.6326 10 17.5 10Z" fill="white"/>
<path d="M20.4997 7H14.4997C14.3671 7 14.2399 6.94732 14.1461 6.85355C14.0524 6.75979 13.9997 6.63261 13.9997 6.5C13.9997 6.36739 14.0524 6.24021 14.1461 6.14645C14.2399 6.05268 14.3671 6 14.4997 6H20.4997C20.6323 6 20.7595 6.05268 20.8533 6.14645C20.947 6.24021 20.9997 6.36739 20.9997 6.5C20.9997 6.63261 20.947 6.75979 20.8533 6.85355C20.7595 6.94732 20.6323 7 20.4997 7ZM19.4997 17H6.4997C6.38415 16.9999 6.2722 16.9598 6.18287 16.8866C6.09354 16.8133 6.03235 16.7113 6.0097 16.598L4.0097 6.598C3.9952 6.52549 3.99697 6.45067 4.01488 6.37892C4.03279 6.30718 4.06639 6.2403 4.11325 6.1831C4.16012 6.1259 4.21909 6.07981 4.28591 6.04815C4.35274 6.01649 4.42575 6.00004 4.4997 6H8.4997C8.63231 6 8.75948 6.05268 8.85325 6.14645C8.94702 6.24021 8.9997 6.36739 8.9997 6.5C8.9997 6.63261 8.94702 6.75979 8.85325 6.85355C8.75948 6.94732 8.63231 7 8.4997 7H5.1097L6.9097 16H19.0897L19.3667 14.615C19.3776 14.5488 19.4017 14.4854 19.4376 14.4287C19.4735 14.372 19.5204 14.3231 19.5756 14.2849C19.6308 14.2468 19.6931 14.2201 19.7588 14.2065C19.8245 14.1929 19.8923 14.1927 19.9581 14.2058C20.0239 14.219 20.0864 14.2453 20.1419 14.2831C20.1973 14.3209 20.2446 14.3695 20.2808 14.426C20.3171 14.4824 20.3416 14.5456 20.3529 14.6118C20.3642 14.6779 20.3621 14.7457 20.3467 14.811L19.9897 16.598C19.9671 16.7113 19.9059 16.8133 19.8165 16.8866C19.7272 16.9598 19.6152 16.9999 19.4997 17Z" fill="white"/>
<path d="M6.5 17C6.38445 17 6.2725 16.9599 6.18317 16.8866C6.09384 16.8133 6.03265 16.7114 6.01 16.598L3.531 4.20405C3.46215 3.86439 3.27819 3.55891 3.01019 3.33919C2.74218 3.11947 2.40656 2.99897 2.06 2.99805L0.5 3.00005C0.367392 3.00005 0.240215 2.94737 0.146447 2.8536C0.0526784 2.75983 0 2.63266 0 2.50005C0 2.36744 0.0526784 2.24026 0.146447 2.14649C0.240215 2.05273 0.367392 2.00005 0.5 2.00005L2.058 1.99805H2.06C3.248 1.99805 4.279 2.84305 4.512 4.00805L6.99 16.402C7.00449 16.4746 7.00272 16.5494 6.98482 16.6211C6.96691 16.6929 6.93331 16.7598 6.88645 16.8169C6.83958 16.8741 6.78061 16.9202 6.71379 16.9519C6.64696 16.9836 6.57395 17 6.5 17Z" fill="white"/>
<path d="M21.5 19H4.5C3.673 19 3 18.327 3 17.5C3 16.673 3.673 16 4.5 16H6.5C6.63261 16 6.75979 16.0527 6.85355 16.1464C6.94732 16.2402 7 16.3674 7 16.5C7 16.6326 6.94732 16.7598 6.85355 16.8536C6.75979 16.9473 6.63261 17 6.5 17H4.5C4.36739 17 4.24021 17.0527 4.14645 17.1464C4.05268 17.2402 4 17.3674 4 17.5C4 17.6326 4.05268 17.7598 4.14645 17.8536C4.24021 17.9473 4.36739 18 4.5 18H21.5C21.6326 18 21.7598 18.0527 21.8536 18.1464C21.9473 18.2402 22 18.3674 22 18.5C22 18.6326 21.9473 18.7598 21.8536 18.8536C21.7598 18.9473 21.6326 19 21.5 19ZM8 24C6.897 24 6 23.103 6 22C6 20.897 6.897 20 8 20C9.103 20 10 20.897 10 22C10 23.103 9.103 24 8 24ZM8 21C7.449 21 7 21.449 7 22C7 22.551 7.449 23 8 23C8.551 23 9 22.551 9 22C9 21.449 8.551 21 8 21ZM17 24C15.897 24 15 23.103 15 22C15 20.897 15.897 20 17 20C18.103 20 19 20.897 19 22C19 23.103 18.103 24 17 24ZM17 21C16.449 21 16 21.449 16 22C16 22.551 16.449 23 17 23C17.551 23 18 22.551 18 22C18 21.449 17.551 21 17 21Z" fill="white"/>
</g>
<defs>
<clipPath id="clip0_257_7682">
<rect width="24" height="24" fill="white"/>
</clipPath>
</defs>
</svg>
