<svg width="18" height="18" viewBox="0 0 18 18" fill="none" xmlns="http://www.w3.org/2000/svg">
<g clip-path="url(#clip0_1_4777)">
<path d="M16.7142 8.35718H11.5713C11.2163 8.35718 10.9285 8.645 10.9285 9.00003V16.7143C10.9285 17.0693 11.2163 17.3572 11.5713 17.3572H16.7142C17.0692 17.3572 17.357 17.0693 17.357 16.7143V9.00003C17.357 8.645 17.0692 8.35718 16.7142 8.35718Z" stroke="white" stroke-linecap="round" stroke-linejoin="round"/>
<path d="M16.7142 0.642822H11.5713C11.2163 0.642822 10.9285 0.93064 10.9285 1.28568V3.86996C10.9285 4.225 11.2163 4.51282 11.5713 4.51282H16.7142C17.0692 4.51282 17.357 4.225 17.357 3.86996V1.28568C17.357 0.93064 17.0692 0.642822 16.7142 0.642822Z" stroke="white" stroke-linecap="round" stroke-linejoin="round"/>
<path d="M6.42854 0.642822H1.28568C0.93064 0.642822 0.642822 0.93064 0.642822 1.28568V8.99997C0.642822 9.355 0.93064 9.64282 1.28568 9.64282H6.42854C6.78357 9.64282 7.07139 9.355 7.07139 8.99997V1.28568C7.07139 0.93064 6.78357 0.642822 6.42854 0.642822Z" stroke="white" stroke-linecap="round" stroke-linejoin="round"/>
<path d="M6.42854 13.4871H1.28568C0.93064 13.4871 0.642822 13.7748 0.642822 14.1299V16.7142C0.642822 17.0692 0.93064 17.3571 1.28568 17.3571H6.42854C6.78357 17.3571 7.07139 17.0692 7.07139 16.7142V14.1299C7.07139 13.7748 6.78357 13.4871 6.42854 13.4871Z" stroke="white" stroke-linecap="round" stroke-linejoin="round"/>
</g>
<defs>
<clipPath id="clip0_1_4777">
<rect width="18" height="18" fill="white"/>
</clipPath>
</defs>
</svg>
