<svg width="20" height="21" viewBox="0 0 20 21" fill="none" xmlns="http://www.w3.org/2000/svg">
<g id="mail 1">
<g id="Group">
<g id="Group_2">
<path id="Vector" d="M18.2422 3.46875H1.75781C0.786602 3.46875 0 4.26023 0 5.22656V15.7734C0 16.7455 0.792383 17.5312 1.75781 17.5312H18.2422C19.2053 17.5312 20 16.7488 20 15.7734V5.22656C20 4.26195 19.2165 3.46875 18.2422 3.46875ZM17.996 4.64062C17.6369 4.99785 11.4564 11.1458 11.243 11.3581C10.9109 11.6901 10.4695 11.8729 10 11.8729C9.53047 11.8729 9.08906 11.6901 8.75594 11.357C8.61242 11.2142 2.50012 5.13414 2.00398 4.64062H17.996ZM1.17188 15.5349V5.46582L6.23586 10.5031L1.17188 15.5349ZM2.00473 16.3594L7.06672 11.3296L7.9284 12.1867C8.48176 12.7401 9.21746 13.0448 10 13.0448C10.7825 13.0448 11.5182 12.7401 12.0705 12.1878L12.9333 11.3296L17.9953 16.3594H2.00473ZM18.8281 15.5349L13.7641 10.5031L18.8281 5.46582V15.5349Z" fill="#7880AA"/>
</g>
</g>
</g>
</svg>
