<svg width="18" height="18" viewBox="0 0 18 18" fill="none" xmlns="http://www.w3.org/2000/svg">
<g id="facebook 1">
<g id="_x30_1._Facebook">
<path id="Icon_11_" d="M7.78779 10.1787C7.73637 10.1787 6.60494 10.1787 6.09065 10.1787C5.81637 10.1787 5.73065 10.0758 5.73065 9.81869C5.73065 9.13298 5.73065 8.43012 5.73065 7.74441C5.73065 7.47012 5.83351 7.38441 6.09065 7.38441H7.78779C7.78779 7.33298 7.78779 6.33869 7.78779 5.87584C7.78779 5.19012 7.90779 4.53869 8.25065 3.93869C8.61065 3.32155 9.12494 2.91012 9.77637 2.67012C10.2049 2.51584 10.6335 2.44727 11.0964 2.44727H12.7764C13.0164 2.44727 13.1192 2.55012 13.1192 2.79012V4.74441C13.1192 4.98441 13.0164 5.08727 12.7764 5.08727C12.3135 5.08727 11.8507 5.08727 11.3878 5.10441C10.9249 5.10441 10.6849 5.32727 10.6849 5.80727C10.6678 6.32155 10.6849 6.81869 10.6849 7.35012H12.6735C12.9478 7.35012 13.0507 7.45298 13.0507 7.72727V9.80155C13.0507 10.0758 12.9649 10.1616 12.6735 10.1616C12.0564 10.1616 10.7364 10.1616 10.6849 10.1616V15.7501C10.6849 16.0416 10.5992 16.1444 10.2907 16.1444C9.57065 16.1444 8.86779 16.1444 8.14779 16.1444C7.89065 16.1444 7.78779 16.0416 7.78779 15.7844C7.78779 13.9844 7.78779 10.2301 7.78779 10.1787Z" fill="white" fill-opacity="0.9"/>
</g>
</g>
</svg>
