<svg width="20" height="21" viewBox="0 0 20 21" fill="none" xmlns="http://www.w3.org/2000/svg">
<g id="fax 1" clip-path="url(#clip0_85_2606)">
<path id="Vector" d="M17.8125 5.5625H16.1562V1.5625C16.1562 0.96875 15.6875 0.5 15.0938 0.5H4.90625C4.3125 0.5 3.84375 0.96875 3.84375 1.5625V5.5625H2.1875C1.09375 5.5625 0.21875 6.4375 0.21875 7.53125V15.9062C0.21875 17 1.09375 17.875 2.1875 17.875H3.84375V19.4375C3.84375 20.0312 4.3125 20.5 4.90625 20.5H15.0938C15.6875 20.5 16.1562 20.0312 16.1562 19.4375V17.875H17.8125C18.9062 17.875 19.7812 17 19.7812 15.9062V7.53125C19.7812 6.4375 18.9062 5.5625 17.8125 5.5625ZM4.75 1.5625C4.75 1.46875 4.8125 1.40625 4.90625 1.40625H15.0938C15.1875 1.40625 15.25 1.46875 15.25 1.5625V5.5625H4.75V1.5625ZM15.0938 19.5938H4.90625C4.8125 19.5938 4.75 19.5312 4.75 19.4375V17.4375V12.6875C4.75 12.5938 4.8125 12.5312 4.90625 12.5312H15.0938C15.1875 12.5312 15.25 12.5938 15.25 12.6875V17.4375V19.4375C15.25 19.5312 15.1875 19.5938 15.0938 19.5938ZM18.875 15.9062C18.875 16.5 18.4062 16.9688 17.8125 16.9688H16.1562V12.6875C16.1562 12.0938 15.6875 11.625 15.0938 11.625H4.90625C4.3125 11.625 3.84375 12.0938 3.84375 12.6875V17H2.1875C1.59375 17 1.125 16.5312 1.125 15.9375V7.53125C1.125 6.9375 1.59375 6.4375 2.1875 6.4375H17.8125C18.4062 6.4375 18.875 6.90625 18.875 7.5V15.9062Z" fill="#7880AA"/>
<path id="Vector_2" d="M13.0938 13.875H6.90625C6.65625 13.875 6.46875 14.0625 6.46875 14.3125C6.46875 14.5625 6.65625 14.75 6.90625 14.75H13.125C13.375 14.75 13.5625 14.5625 13.5625 14.3125C13.5625 14.0938 13.3438 13.875 13.0938 13.875Z" fill="#7880AA"/>
<path id="Vector_3" d="M13.0938 15.625H6.90625C6.65625 15.625 6.46875 15.8125 6.46875 16.0625C6.46875 16.3125 6.65625 16.5 6.90625 16.5H13.125C13.375 16.5 13.5625 16.3125 13.5625 16.0625C13.5625 15.8125 13.3438 15.625 13.0938 15.625Z" fill="#7880AA"/>
<path id="Vector_4" d="M13.0938 17.3438H6.90625C6.65625 17.3438 6.46875 17.5312 6.46875 17.7812C6.46875 18.0312 6.65625 18.2187 6.90625 18.2187H13.125C13.375 18.2187 13.5625 18.0312 13.5625 17.7812C13.5625 17.5312 13.3438 17.3438 13.0938 17.3438Z" fill="#7880AA"/>
<path id="Vector_5" d="M13.0938 7.71875C12.375 7.71875 11.7812 8.3125 11.7812 9.03125C11.7812 9.75 12.375 10.3438 13.0938 10.3438C13.8125 10.3438 14.4062 9.75 14.4062 9.03125C14.4062 8.3125 13.8125 7.71875 13.0938 7.71875ZM13.0938 9.4375C12.875 9.4375 12.6875 9.25 12.6875 9.03125C12.6875 8.8125 12.875 8.625 13.0938 8.625C13.3125 8.625 13.5 8.8125 13.5 9.03125C13.5 9.25 13.3438 9.4375 13.0938 9.4375Z" fill="#7880AA"/>
<path id="Vector_6" d="M16.375 7.71875C15.6563 7.71875 15.0625 8.3125 15.0625 9.03125C15.0625 9.75 15.6563 10.3438 16.375 10.3438C17.0938 10.3438 17.6875 9.75 17.6875 9.03125C17.6875 8.3125 17.0938 7.71875 16.375 7.71875ZM16.375 9.4375C16.1563 9.4375 15.9687 9.25 15.9687 9.03125C15.9687 8.8125 16.1563 8.625 16.375 8.625C16.5938 8.625 16.7812 8.8125 16.7812 9.03125C16.7812 9.25 16.5938 9.4375 16.375 9.4375Z" fill="#7880AA"/>
</g>
<defs>
<clipPath id="clip0_85_2606">
<rect width="20" height="20" fill="white" transform="translate(0 0.5)"/>
</clipPath>
</defs>
</svg>
