<svg width="18" height="18" viewBox="0 0 18 18" fill="none" xmlns="http://www.w3.org/2000/svg">
<g id="google 1" clip-path="url(#clip0_85_2471)">
<path id="Vector" d="M0.719177 9.28725C0.719177 4.56096 4.56432 0.71582 9.29061 0.71582C11.1994 0.71582 13.0061 1.32994 14.5154 2.49182L12.5236 5.07925C11.5904 4.36088 10.4724 3.98113 9.29061 3.98113C6.36481 3.98113 3.98448 6.36145 3.98448 9.28725C3.98448 12.213 6.36481 14.5934 9.29061 14.5934C11.6471 14.5934 13.6496 13.0495 14.3397 10.9199H9.29061V7.6546H17.862V9.28725C17.862 14.0135 14.0169 17.8587 9.29061 17.8587C4.56432 17.8587 0.719177 14.0135 0.719177 9.28725Z" fill="white" fill-opacity="0.9"/>
</g>
<defs>
<clipPath id="clip0_85_2471">
<rect width="17.1429" height="17.1429" fill="white" transform="translate(0.719177 0.71582)"/>
</clipPath>
</defs>
</svg>
