<svg width="18" height="18" viewBox="0 0 18 18" fill="none" xmlns="http://www.w3.org/2000/svg">
<g id="linkedin 1">
<g id="_x31_0.Linkedin">
<path id="Vector" d="M15.4335 16.1442V11.1214C15.4335 8.6528 14.902 6.76709 12.022 6.76709C10.6335 6.76709 9.70776 7.52138 9.33062 8.24138H9.29633V6.98995H6.57062V16.1442H9.41633V11.6014C9.41633 10.4014 9.63919 9.2528 11.1135 9.2528C12.5706 9.2528 12.5878 10.6071 12.5878 11.6699V16.1271H15.4335V16.1442Z" fill="white" fill-opacity="0.9"/>
<path id="Vector_2" d="M1.94202 6.98975H4.78773V16.144H1.94202V6.98975Z" fill="white" fill-opacity="0.9"/>
<path id="Vector_3" d="M3.36483 2.43018C2.45626 2.43018 1.71912 3.16732 1.71912 4.07589C1.71912 4.98446 2.45626 5.73875 3.36483 5.73875C4.2734 5.73875 5.01055 4.98446 5.01055 4.07589C5.01055 3.16732 4.2734 2.43018 3.36483 2.43018Z" fill="white" fill-opacity="0.9"/>
</g>
</g>
</svg>
