<svg width="16" height="16" viewBox="0 0 16 16" fill="none" xmlns="http://www.w3.org/2000/svg">
<path d="M7.37508 8.83341V0.854248H8.62508V8.83341H7.37508ZM8.00008 15.0834C7.02786 15.0834 6.11119 14.8959 5.25008 14.5209C4.38897 14.1459 3.63897 13.639 3.00008 13.0001C2.36119 12.3612 1.85425 11.6112 1.47925 10.7501C1.10425 9.88897 0.916748 8.9723 0.916748 8.00008C0.916748 6.94453 1.13897 5.95147 1.58341 5.02091C2.02786 4.09036 2.64591 3.2848 3.43758 2.60425L4.29175 3.45841C3.62508 4.01397 3.10425 4.68758 2.72925 5.47925C2.35425 6.27091 2.16675 7.11119 2.16675 8.00008C2.16675 9.61119 2.73619 10.9862 3.87508 12.1251C5.01397 13.264 6.38897 13.8334 8.00008 13.8334C9.62508 13.8334 11.0034 13.264 12.1351 12.1251C13.2673 10.9862 13.8334 9.61119 13.8334 8.00008C13.8334 7.11119 13.6492 6.27091 13.2809 5.47925C12.9131 4.68758 12.389 4.01397 11.7084 3.45841L12.5626 2.60425C13.3681 3.2848 13.9895 4.09036 14.4267 5.02091C14.8645 5.95147 15.0834 6.94453 15.0834 8.00008C15.0834 8.9723 14.8959 9.88897 14.5209 10.7501C14.1459 11.6112 13.639 12.3612 13.0001 13.0001C12.3612 13.639 11.6145 14.1459 10.7601 14.5209C9.90619 14.8959 8.98619 15.0834 8.00008 15.0834Z" fill="white"/>
</svg>
