<svg width="16" height="16" viewBox="0 0 16 16" fill="none" xmlns="http://www.w3.org/2000/svg">
<path d="M6.08341 15.9166L5.75008 13.3749C5.52786 13.3055 5.3023 13.2013 5.07341 13.0624C4.84397 12.9235 4.63203 12.7777 4.43758 12.6249L2.08341 13.6249L0.166748 10.2916L2.20841 8.74992C2.18064 8.62492 2.16341 8.49992 2.15675 8.37492C2.14953 8.24992 2.14591 8.12492 2.14591 7.99992C2.14591 7.88881 2.14953 7.77075 2.15675 7.64575C2.16341 7.52075 2.18064 7.38881 2.20841 7.24992L0.166748 5.70825L2.08341 2.39575L4.43758 3.37492C4.63203 3.22214 4.84397 3.07992 5.07341 2.94825C5.3023 2.81603 5.52786 2.70825 5.75008 2.62492L6.08341 0.083252H9.91675L10.2501 2.62492C10.5001 2.72214 10.7256 2.82964 10.9267 2.94742C11.1284 3.06575 11.3334 3.20825 11.5417 3.37492L13.9167 2.39575L15.8334 5.70825L13.7709 7.27075C13.7987 7.40964 13.8126 7.53464 13.8126 7.64575V7.99992C13.8126 8.11103 13.809 8.22547 13.8017 8.34325C13.7951 8.46159 13.7779 8.59714 13.7501 8.74992L15.7917 10.2916L13.8751 13.6249L11.5417 12.6249C11.3334 12.7916 11.1217 12.9374 10.9067 13.0624C10.6912 13.1874 10.4723 13.2916 10.2501 13.3749L9.91675 15.9166H6.08341ZM8.00008 10.4999C8.69453 10.4999 9.2848 10.2569 9.77091 9.77075C10.257 9.28464 10.5001 8.69436 10.5001 7.99992C10.5001 7.30547 10.257 6.7152 9.77091 6.22908C9.2848 5.74297 8.69453 5.49992 8.00008 5.49992C7.30564 5.49992 6.71536 5.74297 6.22925 6.22908C5.74314 6.7152 5.50008 7.30547 5.50008 7.99992C5.50008 8.69436 5.74314 9.28464 6.22925 9.77075C6.71536 10.2569 7.30564 10.4999 8.00008 10.4999ZM8.00008 9.24992C7.65286 9.24992 7.35786 9.12825 7.11508 8.88492C6.87175 8.64214 6.75008 8.34714 6.75008 7.99992C6.75008 7.6527 6.87175 7.3577 7.11508 7.11492C7.35786 6.87158 7.65286 6.74992 8.00008 6.74992C8.3473 6.74992 8.6423 6.87158 8.88508 7.11492C9.12841 7.3577 9.25008 7.6527 9.25008 7.99992C9.25008 8.34714 9.12841 8.64214 8.88508 8.88492C8.6423 9.12825 8.3473 9.24992 8.00008 9.24992ZM7.16675 14.6666H8.81258L9.10425 12.4374C9.5348 12.3263 9.92369 12.1666 10.2709 11.9583C10.6181 11.7499 10.9584 11.486 11.2917 11.1666L13.3542 12.0416L14.1876 10.6249L12.3751 9.27075C12.4445 9.04853 12.4898 8.83325 12.5109 8.62492C12.5315 8.41658 12.5417 8.20825 12.5417 7.99992C12.5417 7.7777 12.5315 7.56603 12.5109 7.36492C12.4898 7.16325 12.4445 6.95825 12.3751 6.74992L14.1876 5.37492L13.3751 3.95825L11.2709 4.83325C10.9931 4.54158 10.6598 4.28103 10.2709 4.05159C9.88203 3.8227 9.49314 3.65964 9.10425 3.56242L8.83341 1.33325H7.18758L6.89592 3.56242C6.47925 3.65964 6.09036 3.81242 5.72925 4.02075C5.36814 4.22908 5.02091 4.49297 4.68758 4.81242L2.62508 3.95825L1.81258 5.37492L3.60425 6.70825C3.5348 6.91658 3.48619 7.12492 3.45841 7.33325C3.43064 7.54158 3.41675 7.76381 3.41675 7.99992C3.41675 8.22214 3.43064 8.43742 3.45841 8.64575C3.48619 8.85408 3.5348 9.06242 3.60425 9.27075L1.81258 10.6249L2.62508 12.0416L4.68758 11.1666C5.00703 11.486 5.3473 11.7499 5.70841 11.9583C6.06953 12.1666 6.46536 12.3263 6.89592 12.4374L7.16675 14.6666Z" fill="white"/>
</svg>
