<svg width="20" height="21" viewBox="0 0 20 21" fill="none" xmlns="http://www.w3.org/2000/svg">
<g id="telephone 1" clip-path="url(#clip0_85_2593)">
<g id="Group">
<g id="Group_2">
<path id="Vector" d="M19.2336 4.58383C18.4662 3.52786 17.1223 2.57473 15.4494 1.90012C13.7855 1.22918 11.8537 0.858168 10.0096 0.855512C8.16531 0.850902 6.23106 1.21809 4.56481 1.88383C2.88903 2.5534 1.54188 3.50239 0.771681 4.55586C0.0319158 5.5677 -0.181287 6.65829 0.15508 7.70973C0.373283 8.39184 1.00981 8.85079 1.73938 8.85184L4.23746 8.85418C4.23828 8.85418 4.2391 8.85418 4.23996 8.85418C4.73809 8.85414 5.2061 8.6361 5.52414 8.25567C5.83883 7.8793 5.96918 7.38743 5.8818 6.9061C5.87926 6.892 5.87613 6.87793 5.87258 6.86399L5.74113 6.35297C6.46903 6.00567 8.11824 5.33465 10.0019 5.34532C11.8841 5.35496 13.5322 6.02559 14.261 6.37305L14.1275 6.88118C14.1237 6.89555 14.1205 6.91004 14.1177 6.92461C14.029 7.40567 14.1579 7.89789 14.4715 8.27516C14.789 8.65719 15.2574 8.87664 15.7568 8.87739L18.2549 8.87973C18.2557 8.87973 18.2566 8.87973 18.2574 8.87973C18.9855 8.87969 19.6223 8.42286 19.8422 7.74219C20.1816 6.69098 19.9713 5.59883 19.2336 4.58383ZM18.7063 7.37524C18.6471 7.55836 18.4626 7.6861 18.257 7.6861C18.2568 7.6861 18.2565 7.6861 18.2563 7.6861L15.7582 7.68375C15.6143 7.68356 15.4798 7.62102 15.3894 7.51215C15.3402 7.45297 15.2634 7.32989 15.2886 7.15871L15.5371 6.21328C15.6052 5.95418 15.4923 5.68153 15.261 5.54629C15.1646 5.48996 12.8677 4.16629 10.008 4.15157C9.99207 4.15149 9.97664 4.15145 9.96078 4.15145C7.11949 4.15145 4.83887 5.46934 4.74266 5.52575C4.51285 5.66051 4.4002 5.93121 4.46656 6.18926L4.71016 7.13621C4.73504 7.30774 4.65781 7.43082 4.6084 7.48996C4.51781 7.59832 4.38352 7.66043 4.23961 7.66043C4.23938 7.66043 4.23914 7.66043 4.23891 7.66043L1.74078 7.65809C1.5352 7.65778 1.35063 7.52942 1.29195 7.3459C1.07352 6.66305 1.22266 5.96129 1.73524 5.2602C3.09684 3.39786 6.56559 2.04899 9.98922 2.04899C9.99531 2.04899 10.0018 2.04899 10.0079 2.04899C13.435 2.05391 16.9089 3.41504 18.2682 5.28543C18.7795 5.98922 18.9269 6.69231 18.7063 7.37524Z" fill="#7880AA"/>
</g>
</g>
<g id="Group_3">
<g id="Group_4">
<path id="Vector_2" d="M15.6482 11.4299L13.7853 9.47381C13.6726 9.35553 13.5165 9.28861 13.3532 9.28861H12.1493V8.47521C12.1493 8.14561 11.8821 7.87842 11.5525 7.87842C11.2229 7.87842 10.9557 8.14561 10.9557 8.47521V9.28861H9.04465V8.47521C9.04465 8.14561 8.77746 7.87842 8.44785 7.87842C8.11824 7.87842 7.85105 8.14561 7.85105 8.47521V9.28861H6.64719C6.48387 9.28861 6.32766 9.35557 6.21504 9.47381L4.35215 11.4299C2.89152 12.9635 2.08711 14.9746 2.08711 17.0924V19.5476C2.08711 19.8772 2.3543 20.1444 2.68391 20.1444H17.3164C17.646 20.1444 17.9132 19.8772 17.9132 19.5476V17.0924C17.9133 14.9745 17.1089 12.9635 15.6482 11.4299ZM3.2807 18.9508V17.0924C3.2807 15.2824 3.96816 13.5638 5.21652 12.253L6.90301 10.4821H13.0974L14.7839 12.253C16.0321 13.5637 16.7196 15.2824 16.7196 17.0924V18.9508H3.2807Z" fill="#7880AA"/>
</g>
</g>
<g id="Group_5">
<g id="Group_6">
<path id="Vector_3" d="M10.0002 11.7163C8.27793 11.7163 6.8768 13.1175 6.8768 14.8397C6.8768 16.562 8.27797 17.9631 10.0002 17.9631C11.7224 17.9631 13.1236 16.562 13.1236 14.8397C13.1236 13.1174 11.7225 11.7163 10.0002 11.7163ZM10.0002 16.7695C8.93605 16.7695 8.07039 15.9038 8.07039 14.8397C8.07039 13.7756 8.93609 12.9099 10.0002 12.9099C11.0643 12.9099 11.93 13.7756 11.93 14.8397C11.93 15.9038 11.0643 16.7695 10.0002 16.7695Z" fill="#7880AA"/>
</g>
</g>
</g>
<defs>
<clipPath id="clip0_85_2593">
<rect width="20" height="20" fill="white" transform="translate(0 0.5)"/>
</clipPath>
</defs>
</svg>
