<svg width="18" height="18" viewBox="0 0 18 18" fill="none" xmlns="http://www.w3.org/2000/svg">
<g id="twitter 1">
<path id="_x30_4.Twitter" d="M15.5592 5.03582C15.0449 5.25868 14.5135 5.41296 13.9478 5.48153C14.5306 5.13868 14.9763 4.59011 15.1821 3.92153C14.6335 4.24725 14.0335 4.47011 13.3992 4.60725C12.8849 4.05868 12.1478 3.71582 11.3421 3.71582C9.78205 3.71582 8.53062 4.98439 8.53062 6.52725C8.53062 6.75011 8.54777 6.95582 8.5992 7.16153C6.26777 7.05868 4.21062 5.92725 2.82205 4.23011C1.82777 6.01296 2.94205 7.48725 3.6792 7.98439C3.23348 7.98439 2.78777 7.84725 2.41062 7.64154C2.41062 9.03011 3.38777 10.1787 4.65634 10.4358C4.38205 10.5215 3.76491 10.573 3.38777 10.4872C3.74777 11.6015 4.79348 12.4244 6.01062 12.4415C5.05062 13.1958 3.64491 13.7958 1.84491 13.6072C3.09634 14.413 4.57062 14.8758 6.16491 14.8758C11.3421 14.8758 14.1535 10.5901 14.1535 6.88725C14.1535 6.76725 14.1535 6.64725 14.1363 6.52725C14.7192 6.09868 15.1992 5.60153 15.5592 5.03582Z" fill="white" fill-opacity="0.9"/>
</g>
</svg>
