<svg width="14" height="13" viewBox="0 0 14 13" fill="none" xmlns="http://www.w3.org/2000/svg">
<path d="M3.00166 12.625V11.375H8.70998C9.64374 11.375 10.4536 11.0786 11.1395 10.4856C11.8254 9.89265 12.1683 9.14746 12.1683 8.25001C12.1683 7.35257 11.8254 6.60738 11.1395 6.01443C10.4536 5.42147 9.64374 5.12499 8.70998 5.12499H2.96314L5.33816 7.50001L4.45998 8.3782L0.581787 4.50001L4.45998 0.621826L5.33816 1.50001L2.96314 3.87503H8.70998C9.99309 3.87503 11.0986 4.2925 12.0265 5.12743C12.9543 5.96236 13.4183 7.00322 13.4183 8.25001C13.4183 9.49681 12.9543 10.5377 12.0265 11.3726C11.0986 12.2075 9.99309 12.625 8.70998 12.625H3.00166Z" fill="white"/>
</svg>
